SplineFontDB: 3.0
FontName: RansomThreat
FullName: RansomThreat
FamilyName: Ransom Threat
Weight: Book
Copyright: (c)Copyright 1997 - 2008 Terrence Curran http://www.grilledcheese.com
Version: 2015-04-18
ItalicAngle: 0
UnderlinePosition: -123
UnderlineWidth: 20
Ascent: 800
Descent: 200
InvalidEm: 0
sfntRevision: 0x00010000
LayerCount: 2
Layer: 0 1 "Back" 1
Layer: 1 1 "Fore" 0
XUID: [1021 926 -1967619417 4469749]
FSType: 0
OS2Version: 3
OS2_WeightWidthSlopeOnly: 0
OS2_UseTypoMetrics: 1
CreationTime: 1218423840
ModificationTime: 1429428981
PfmFamily: 81
TTFWeight: 400
TTFWidth: 5
LineGap: 0
VLineGap: 0
Panose: 0 0 4 0 0 0 0 0 0 0
OS2TypoAscent: 800
OS2TypoAOffset: 0
OS2TypoDescent: -268
OS2TypoDOffset: 0
OS2TypoLinegap: 0
OS2WinAscent: 800
OS2WinAOffset: 0
OS2WinDescent: 268
OS2WinDOffset: 0
HheadAscent: 800
HheadAOffset: 0
HheadDescent: -268
HheadDOffset: 0
OS2SubXSize: 700
OS2SubYSize: 650
OS2SubXOff: 0
OS2SubYOff: 143
OS2SupXSize: 700
OS2SupYSize: 650
OS2SupXOff: 0
OS2SupYOff: 453
OS2StrikeYSize: 50
OS2StrikeYPos: 259
OS2CapHeight: 0
OS2XHeight: 0
OS2Vendor: 'GRIL'
OS2CodePages: 00000001.00000000
OS2UnicodeRanges: 00000001.08000000.14000000.00000000
Lookup: 258 0 0 "'kern' Horizontal Kerning in Latin lookup 0" { "'kern' Horizontal Kerning in Latin lookup 0 subtable"  } ['kern' ('latn' <'dflt' > ) ]
MarkAttachClasses: 1
DEI: 91125
TtTable: prep
PUSHW_1
 10
CALL
NPUSHB
 31
 18
 18
 17
 17
 16
 16
 15
 15
 14
 14
 13
 13
 12
 12
 11
 11
 10
 10
 9
 9
 4
 4
 3
 3
 2
 2
 1
 1
 0
 0
 1
SCANTYPE
PUSHW_1
 511
SCANCTRL
RCVT
ROUND[Grey]
WCVTP
RCVT
ROUND[Grey]
WCVTP
RCVT
ROUND[Grey]
WCVTP
RCVT
ROUND[Grey]
WCVTP
RCVT
ROUND[Grey]
WCVTP
RCVT
ROUND[Grey]
WCVTP
RCVT
ROUND[Grey]
WCVTP
RCVT
ROUND[Grey]
WCVTP
RCVT
ROUND[Grey]
WCVTP
RCVT
ROUND[Grey]
WCVTP
RCVT
ROUND[Grey]
WCVTP
RCVT
ROUND[Grey]
WCVTP
RCVT
ROUND[Grey]
WCVTP
RCVT
ROUND[Grey]
WCVTP
RCVT
ROUND[Grey]
WCVTP
PUSHB_4
 6
 5
 70
 0
CALL
PUSHB_4
 8
 7
 70
 0
CALL
PUSHB_2
 5
 5
RCVT
ROUND[Grey]
WCVTP
PUSHB_2
 7
 7
RCVT

StartChar: .notdef
Encoding: 256 -1 0
Width: 500
Flags: W
LayerCount: 2
Back
Fore
SplineSet
63 0 m 1,0,-1
 63 800 l 1,1,-1
 438 800 l 1,2,-1
 438 0 l 1,3,-1
 63 0 l 1,0,-1
125 63 m 1,4,-1
 375 63 l 1,5,-1
 375 738 l 1,6,-1
 125 738 l 1,7,-1
 125 63 l 1,4,-1
EndSplineSet
Validated: 1
EndChar

StartChar: exclam
Encoding: 33 33 4
Width: 407
Flags: W
LayerCount: 2
Back
Fore
SplineSet
347 744 m 1,0,1
 364 705 364 705 364 661 c 0,2,3
 364 607 364 607 328 503 c 128,-1,4
 292 399 292 399 292 345 c 0,5,6
 292 297 292 297 311 254 c 1,7,8
 293 197 293 197 279 166 c 0,9,10
 257 116 257 116 227 88 c 1,11,12
 212 81 212 81 197 81 c 0,13,14
 146 81 146 81 116 145 c 1,15,16
 110 192 110 192 109.5 286 c 128,-1,17
 109 380 109 380 104 426 c 0,18,19
 95 500 95 500 69 548 c 1,20,21
 71 632 71 632 82 677 c 0,22,23
 99 748 99 748 145 790 c 1,24,25
 202 800 202 800 232 800 c 0,26,27
 311 800 311 800 347 744 c 1,0,1
50 614 m 1,28,29
 50 609 50 609 34 593 c 1,30,-1
 34 614 l 1,31,-1
 50 614 l 1,28,29
15 254 m 1,32,33
 12 250 12 250 0 250 c 1,34,35
 0 263 0 263 4 265 c 1,36,-1
 15 254 l 1,32,33
328 -78 m 1,37,38
 317 -120 317 -120 235 -154 c 1,39,40
 220 -155 220 -155 206 -155 c 0,41,42
 108 -155 108 -155 80 -99 c 0,43,44
 77 -89 77 -89 77 -79 c 0,45,46
 77 -50 77 -50 103 -16 c 0,47,48
 135 26 135 26 141 38 c 1,49,50
 201 44 201 44 207 44 c 0,51,52
 250 44 250 44 278 23 c 1,53,54
 290 8 290 8 313 -24 c 0,55,56
 331 -50 331 -50 328 -78 c 1,37,38
76 -194 m 1,57,58
 73 -200 73 -200 66 -200 c 2,59,-1
 55 -200 l 1,60,-1
 55 -189 l 1,61,-1
 76 -194 l 1,57,58
256 740 m 1,62,63
 208 749 208 749 212 749 c 1,64,65
 200 749 200 749 191 744 c 1,66,-1
 191 740 l 1,67,68
 206 733 206 733 224 733 c 256,69,70
 242 733 242 733 256 740 c 1,62,63
286 694 m 1,71,72
 274 714 274 714 244 714 c 0,73,74
 231 714 231 714 201.5 708.5 c 128,-1,75
 172 703 172 703 156 704 c 2,76,-1
 220 696 l 2,77,78
 258 691 258 691 286 694 c 1,71,72
296 654 m 1,79,80
 256 674 256 674 189 674 c 0,81,82
 157 674 157 674 135 668 c 1,83,84
 176 649 176 649 241 649 c 0,85,86
 271 649 271 649 296 654 c 1,79,80
296 607 m 1,87,88
 242 628 242 628 184 628 c 0,89,90
 146 628 146 628 116 618 c 1,91,92
 166 598 166 598 227 598 c 0,93,94
 266 598 266 598 296 607 c 1,87,88
282 563 m 1,95,96
 213 578 213 578 157 578 c 0,97,98
 128 578 128 578 109 574 c 1,99,100
 180 557 180 557 231 557 c 0,101,102
 261 557 261 557 282 563 c 1,95,96
267 506 m 1,103,104
 239 532 239 532 172 532 c 0,105,106
 144 532 144 532 120 527 c 1,107,108
 164 506 164 506 267 506 c 1,103,104
256 477 m 1,109,110
 239 476 239 476 208.5 485 c 128,-1,111
 178 494 178 494 163 494 c 0,112,113
 154 494 154 494 145 492 c 1,114,-1
 145 466 l 1,115,116
 152 467 152 467 203 466 c 0,117,118
 239 466 239 466 256 477 c 1,109,110
252 431 m 1,119,120
 243 441 243 441 226 441 c 0,121,122
 217 441 217 441 200 438 c 128,-1,123
 183 435 183 435 174 435 c 0,124,125
 166 435 166 435 160 437 c 1,126,-1
 160 427 l 1,127,128
 171 427 171 427 192.5 421.5 c 128,-1,129
 214 416 214 416 224 416 c 0,130,131
 243 416 243 416 252 431 c 1,119,120
242 376 m 1,132,-1
 242 387 l 1,133,-1
 160 387 l 1,134,-1
 160 376 l 1,135,136
 165 378 165 378 172 378 c 0,137,138
 180 378 180 378 196.5 374.5 c 128,-1,139
 213 371 213 371 221 371 c 0,140,141
 232 371 232 371 242 376 c 1,132,-1
246 336 m 1,142,143
 229 347 229 347 207 347 c 0,144,145
 168 346 168 346 166 347 c 2,146,-1
 166 336 l 1,147,148
 217 328 217 328 220 328 c 0,149,150
 237 328 237 328 246 336 c 1,142,143
246 290 m 1,151,-1
 246 300 l 1,152,153
 240 299 240 299 233 299 c 0,154,155
 223 299 223 299 203 302.5 c 128,-1,156
 183 306 183 306 173 306 c 0,157,158
 166 306 166 306 160 305 c 1,159,-1
 160 286 l 1,160,-1
 246 290 l 1,151,-1
252 246 m 1,161,162
 248 265 248 265 225 265 c 0,163,164
 214 265 214 265 190 259.5 c 128,-1,165
 166 254 166 254 156 254 c 1,166,167
 168 244 168 244 202 244 c 0,168,169
 261 245 261 245 252 246 c 1,161,162
231 210 m 1,170,-1
 160 220 l 1,171,-1
 160 204 l 1,172,173
 169 199 169 199 180 199 c 1,174,175
 176 199 176 199 231 210 c 1,170,-1
227 174 m 1,176,177
 221 179 221 179 213 179 c 0,178,179
 207 179 207 179 195 174.5 c 128,-1,180
 183 170 183 170 177 170 c 1,181,182
 175 166 175 166 178.5 161.5 c 128,-1,183
 182 157 182 157 185 153 c 1,184,185
 189 159 189 159 202 159 c 0,186,187
 219 158 219 158 220 159 c 0,188,189
 229 161 229 161 227 174 c 1,176,177
227 -13 m 1,190,191
 218 -2 218 -2 208 -2 c 0,192,193
 200 -2 200 -2 182.5 -16 c 128,-1,194
 165 -30 165 -30 156 -32 c 1,195,196
 191 -43 191 -43 201 -43 c 0,197,198
 212 -43 212 -43 221 -38 c 1,199,-1
 221 -24 l 2,200,201
 221 -15 221 -15 227 -13 c 1,190,191
261 -78 m 1,202,203
 242 -61 242 -61 203 -63 c 0,204,205
 152 -65 152 -65 141 -63 c 1,206,-1
 141 -74 l 1,207,208
 150 -71 150 -71 161 -71 c 0,209,210
 174 -71 174 -71 198.5 -77.5 c 128,-1,211
 223 -84 223 -84 236 -84 c 0,212,213
 250 -84 250 -84 261 -78 c 1,202,203
221 -107 m 1,214,-1
 196 -107 l 1,215,216
 209 -121 209 -121 217 -118 c 0,217,218
 222 -112 222 -112 221 -107 c 1,214,-1
EndSplineSet
Validated: 33
EndChar

StartChar: numbersign
Encoding: 35 35 5
Width: 942
Flags: W
LayerCount: 2
Back
Fore
SplineSet
124 377 m 1,0,-1
 16 377 l 1,1,2
 49 414 49 414 54 423 c 0,3,4
 74 451 74 451 74 477 c 0,5,6
 74 488 74 488 70 500 c 1,7,-1
 113 513 l 1,8,9
 118 496 118 496 118 478 c 0,10,11
 118 449 118 449 106 422 c 1,12,-1
 174 422 l 1,13,-1
 165 336 l 1,14,-1
 308 336 l 1,15,-1
 308 291 l 1,16,-1
 160 291 l 1,17,-1
 148 189 l 2,18,19
 145 174 145 174 151 157 c 0,20,21
 157 137 157 137 169 137 c 0,22,23
 180 137 180 137 194 156 c 0,24,25
 201 165 201 165 201 182 c 0,26,27
 201 196 201 196 189 193 c 1,28,-1
 178 237 l 1,29,30
 187 239 187 239 195 239 c 0,31,32
 219 239 219 239 232.5 221.5 c 128,-1,33
 246 204 246 204 246 178 c 0,34,35
 246 151 246 151 231 130 c 0,36,37
 209 99 209 99 157 99 c 0,38,39
 100 99 100 99 100 160 c 0,40,41
 100 176 100 176 104 196 c 2,42,-1
 114 291 l 1,43,-1
 -15 291 l 1,44,-1
 -15 336 l 1,45,-1
 119 336 l 1,46,-1
 124 377 l 1,0,-1
495 521 m 1,47,48
 501 503 501 503 501 485 c 0,49,50
 501 434 501 434 458 385 c 1,51,-1
 379 385 l 1,52,-1
 358 196 l 2,53,54
 356 190 356 190 356 185 c 0,55,56
 356 140 356 140 418 140 c 0,57,58
 470 140 470 140 496 175 c 0,59,60
 504 186 504 186 504 205 c 0,61,62
 504 219 504 219 497 224 c 0,63,64
 495 225 495 225 494 224 c 2,65,-1
 483 268 l 1,66,67
 491 270 491 270 498 270 c 0,68,69
 521 270 521 270 534.5 250 c 128,-1,70
 548 230 548 230 548 202 c 0,71,72
 548 171 548 171 533 150 c 0,73,74
 494 95 494 95 421 95 c 0,75,76
 376 95 376 95 345 118 c 0,77,78
 311 143 311 143 311 183 c 0,79,80
 311 193 311 193 313 204 c 2,81,-1
 338 430 l 1,82,-1
 437 430 l 1,83,84
 456 456 456 456 456 485 c 0,85,86
 456 497 456 497 452 507 c 1,87,-1
 495 521 l 1,47,48
420 238 m 1,88,-1
 422 237 l 1,89,-1
 399 198 l 1,90,91
 375 212 375 212 375 236 c 0,92,93
 375 268 375 268 428 310 c 0,94,95
 468 338 468 338 508 366 c 0,96,97
 516 372 516 372 518 374 c 2,98,-1
 552 344 l 1,99,100
 544 336 544 336 510.5 313.5 c 128,-1,101
 477 291 477 291 461 279 c 0,102,103
 426 252 426 252 420 238 c 1,88,-1
682 430 m 1,104,105
 687 453 687 453 683 459 c 0,106,107
 680 460 680 460 671 461 c 1,108,109
 678 438 678 438 677 421 c 1,110,-1
 682 430 l 1,104,105
741 411 m 1,111,-1
 776 282 l 1,112,-1
 796 282 l 1,113,114
 781 326 781 326 798 360 c 1,115,-1
 839 343 l 1,116,117
 822 309 822 309 836 279 c 2,118,-1
 856 236 l 1,119,-1
 789 236 l 1,120,-1
 823 114 l 1,121,122
 820 99 820 99 827 82 c 128,-1,123
 834 65 834 65 846 65 c 0,124,125
 854 65 854 65 863.5 73.5 c 128,-1,126
 873 82 873 82 873 104 c 0,127,128
 873 117 873 117 863 115 c 1,129,-1
 852 158 l 1,130,131
 862 161 862 161 870 161 c 0,132,133
 919 161 919 161 919 101 c 0,134,135
 919 71 919 71 905 52 c 0,136,137
 882 20 882 20 830 20 c 0,138,139
 773 20 773 20 773 82 c 0,140,141
 773 96 773 96 777 113 c 1,142,-1
 743 236 l 1,143,-1
 648 236 l 1,144,-1
 591 103 l 1,145,-1
 550 121 l 1,146,-1
 605 256 l 1,147,-1
 605 281 l 1,148,-1
 617 282 l 1,149,-1
 654 366 l 1,150,-1
 591 366 l 1,151,152
 632 414 632 414 632 431 c 0,153,154
 632 439 632 439 626 457 c 0,155,156
 614 488 614 488 610 500 c 1,157,158
 651 505 651 505 666 505 c 0,159,160
 729 505 729 505 729 451 c 0,161,162
 729 436 729 436 725 416 c 1,163,-1
 722 411 l 1,164,-1
 741 411 l 1,111,-1
668 282 m 1,165,-1
 729 282 l 1,166,-1
 706 366 l 1,167,-1
 704 366 l 1,168,-1
 668 282 l 1,165,-1
EndSplineSet
Validated: 33
EndChar

StartChar: dollar
Encoding: 36 36 6
Width: 942
Flags: W
LayerCount: 2
Back
Fore
SplineSet
124 377 m 1,0,-1
 16 377 l 1,1,2
 49 414 49 414 54 423 c 0,3,4
 74 451 74 451 74 477 c 0,5,6
 74 488 74 488 70 500 c 1,7,-1
 113 513 l 1,8,9
 118 496 118 496 118 478 c 0,10,11
 118 449 118 449 106 422 c 1,12,-1
 174 422 l 1,13,-1
 165 336 l 1,14,-1
 308 336 l 1,15,-1
 308 291 l 1,16,-1
 160 291 l 1,17,-1
 148 189 l 2,18,19
 145 174 145 174 151 157 c 0,20,21
 157 137 157 137 169 137 c 0,22,23
 180 137 180 137 194 156 c 0,24,25
 201 165 201 165 201 182 c 0,26,27
 201 196 201 196 189 193 c 1,28,-1
 178 237 l 1,29,30
 187 239 187 239 195 239 c 0,31,32
 219 239 219 239 232.5 221.5 c 128,-1,33
 246 204 246 204 246 178 c 0,34,35
 246 151 246 151 231 130 c 0,36,37
 209 99 209 99 157 99 c 0,38,39
 100 99 100 99 100 160 c 0,40,41
 100 176 100 176 104 196 c 2,42,-1
 114 291 l 1,43,-1
 -15 291 l 1,44,-1
 -15 336 l 1,45,-1
 119 336 l 1,46,-1
 124 377 l 1,0,-1
495 521 m 1,47,48
 501 503 501 503 501 485 c 0,49,50
 501 434 501 434 458 385 c 1,51,-1
 379 385 l 1,52,-1
 358 196 l 2,53,54
 356 190 356 190 356 185 c 0,55,56
 356 140 356 140 418 140 c 0,57,58
 470 140 470 140 496 175 c 0,59,60
 504 186 504 186 504 205 c 0,61,62
 504 219 504 219 497 224 c 0,63,64
 495 225 495 225 494 224 c 2,65,-1
 483 268 l 1,66,67
 491 270 491 270 498 270 c 0,68,69
 521 270 521 270 534.5 250 c 128,-1,70
 548 230 548 230 548 202 c 0,71,72
 548 171 548 171 533 150 c 0,73,74
 494 95 494 95 421 95 c 0,75,76
 376 95 376 95 345 118 c 0,77,78
 311 143 311 143 311 183 c 0,79,80
 311 193 311 193 313 204 c 2,81,-1
 338 430 l 1,82,-1
 437 430 l 1,83,84
 456 456 456 456 456 485 c 0,85,86
 456 497 456 497 452 507 c 1,87,-1
 495 521 l 1,47,48
420 238 m 1,88,-1
 422 237 l 1,89,-1
 399 198 l 1,90,91
 375 212 375 212 375 236 c 0,92,93
 375 268 375 268 428 310 c 0,94,95
 468 338 468 338 508 366 c 0,96,97
 516 372 516 372 518 374 c 2,98,-1
 552 344 l 1,99,100
 544 336 544 336 510.5 313.5 c 128,-1,101
 477 291 477 291 461 279 c 0,102,103
 426 252 426 252 420 238 c 1,88,-1
682 430 m 1,104,105
 687 453 687 453 683 459 c 0,106,107
 680 460 680 460 671 461 c 1,108,109
 678 438 678 438 677 421 c 1,110,-1
 682 430 l 1,104,105
741 411 m 1,111,-1
 776 282 l 1,112,-1
 796 282 l 1,113,114
 781 326 781 326 798 360 c 1,115,-1
 839 343 l 1,116,117
 822 309 822 309 836 279 c 2,118,-1
 856 236 l 1,119,-1
 789 236 l 1,120,-1
 823 114 l 1,121,122
 820 99 820 99 827 82 c 128,-1,123
 834 65 834 65 846 65 c 0,124,125
 854 65 854 65 863.5 73.5 c 128,-1,126
 873 82 873 82 873 104 c 0,127,128
 873 117 873 117 863 115 c 1,129,-1
 852 158 l 1,130,131
 862 161 862 161 870 161 c 0,132,133
 919 161 919 161 919 101 c 0,134,135
 919 71 919 71 905 52 c 0,136,137
 882 20 882 20 830 20 c 0,138,139
 773 20 773 20 773 82 c 0,140,141
 773 96 773 96 777 113 c 1,142,-1
 743 236 l 1,143,-1
 648 236 l 1,144,-1
 591 103 l 1,145,-1
 550 121 l 1,146,-1
 605 256 l 1,147,-1
 605 281 l 1,148,-1
 617 282 l 1,149,-1
 654 366 l 1,150,-1
 591 366 l 1,151,152
 632 414 632 414 632 431 c 0,153,154
 632 439 632 439 626 457 c 0,155,156
 614 488 614 488 610 500 c 1,157,158
 651 505 651 505 666 505 c 0,159,160
 729 505 729 505 729 451 c 0,161,162
 729 436 729 436 725 416 c 1,163,-1
 722 411 l 1,164,-1
 741 411 l 1,111,-1
668 282 m 1,165,-1
 729 282 l 1,166,-1
 706 366 l 1,167,-1
 704 366 l 1,168,-1
 668 282 l 1,165,-1
EndSplineSet
Validated: 33
EndChar

StartChar: percent
Encoding: 37 37 7
Width: 942
Flags: W
LayerCount: 2
Back
Fore
SplineSet
124 377 m 1,0,-1
 16 377 l 1,1,2
 49 414 49 414 54 423 c 0,3,4
 74 451 74 451 74 477 c 0,5,6
 74 488 74 488 70 500 c 1,7,-1
 113 513 l 1,8,9
 118 496 118 496 118 478 c 0,10,11
 118 449 118 449 106 422 c 1,12,-1
 174 422 l 1,13,-1
 165 336 l 1,14,-1
 308 336 l 1,15,-1
 308 291 l 1,16,-1
 160 291 l 1,17,-1
 148 189 l 2,18,19
 145 174 145 174 151 157 c 0,20,21
 157 137 157 137 169 137 c 0,22,23
 180 137 180 137 194 156 c 0,24,25
 201 165 201 165 201 182 c 0,26,27
 201 196 201 196 189 193 c 1,28,-1
 178 237 l 1,29,30
 187 239 187 239 195 239 c 0,31,32
 219 239 219 239 232.5 221.5 c 128,-1,33
 246 204 246 204 246 178 c 0,34,35
 246 151 246 151 231 130 c 0,36,37
 209 99 209 99 157 99 c 0,38,39
 100 99 100 99 100 160 c 0,40,41
 100 176 100 176 104 196 c 2,42,-1
 114 291 l 1,43,-1
 -15 291 l 1,44,-1
 -15 336 l 1,45,-1
 119 336 l 1,46,-1
 124 377 l 1,0,-1
495 521 m 1,47,48
 501 503 501 503 501 485 c 0,49,50
 501 434 501 434 458 385 c 1,51,-1
 379 385 l 1,52,-1
 358 196 l 2,53,54
 356 190 356 190 356 185 c 0,55,56
 356 140 356 140 418 140 c 0,57,58
 470 140 470 140 496 175 c 0,59,60
 504 186 504 186 504 205 c 0,61,62
 504 219 504 219 497 224 c 0,63,64
 495 225 495 225 494 224 c 2,65,-1
 483 268 l 1,66,67
 491 270 491 270 498 270 c 0,68,69
 521 270 521 270 534.5 250 c 128,-1,70
 548 230 548 230 548 202 c 0,71,72
 548 171 548 171 533 150 c 0,73,74
 494 95 494 95 421 95 c 0,75,76
 376 95 376 95 345 118 c 0,77,78
 311 143 311 143 311 183 c 0,79,80
 311 193 311 193 313 204 c 2,81,-1
 338 430 l 1,82,-1
 437 430 l 1,83,84
 456 456 456 456 456 485 c 0,85,86
 456 497 456 497 452 507 c 1,87,-1
 495 521 l 1,47,48
420 238 m 1,88,-1
 422 237 l 1,89,-1
 399 198 l 1,90,91
 375 212 375 212 375 236 c 0,92,93
 375 268 375 268 428 310 c 0,94,95
 468 338 468 338 508 366 c 0,96,97
 516 372 516 372 518 374 c 2,98,-1
 552 344 l 1,99,100
 544 336 544 336 510.5 313.5 c 128,-1,101
 477 291 477 291 461 279 c 0,102,103
 426 252 426 252 420 238 c 1,88,-1
682 430 m 1,104,105
 687 453 687 453 683 459 c 0,106,107
 680 460 680 460 671 461 c 1,108,109
 678 438 678 438 677 421 c 1,110,-1
 682 430 l 1,104,105
741 411 m 1,111,-1
 776 282 l 1,112,-1
 796 282 l 1,113,114
 781 326 781 326 798 360 c 1,115,-1
 839 343 l 1,116,117
 822 309 822 309 836 279 c 2,118,-1
 856 236 l 1,119,-1
 789 236 l 1,120,-1
 823 114 l 1,121,122
 820 99 820 99 827 82 c 128,-1,123
 834 65 834 65 846 65 c 0,124,125
 854 65 854 65 863.5 73.5 c 128,-1,126
 873 82 873 82 873 104 c 0,127,128
 873 117 873 117 863 115 c 1,129,-1
 852 158 l 1,130,131
 862 161 862 161 870 161 c 0,132,133
 919 161 919 161 919 101 c 0,134,135
 919 71 919 71 905 52 c 0,136,137
 882 20 882 20 830 20 c 0,138,139
 773 20 773 20 773 82 c 0,140,141
 773 96 773 96 777 113 c 1,142,-1
 743 236 l 1,143,-1
 648 236 l 1,144,-1
 591 103 l 1,145,-1
 550 121 l 1,146,-1
 605 256 l 1,147,-1
 605 281 l 1,148,-1
 617 282 l 1,149,-1
 654 366 l 1,150,-1
 591 366 l 1,151,152
 632 414 632 414 632 431 c 0,153,154
 632 439 632 439 626 457 c 0,155,156
 614 488 614 488 610 500 c 1,157,158
 651 505 651 505 666 505 c 0,159,160
 729 505 729 505 729 451 c 0,161,162
 729 436 729 436 725 416 c 1,163,-1
 722 411 l 1,164,-1
 741 411 l 1,111,-1
668 282 m 1,165,-1
 729 282 l 1,166,-1
 706 366 l 1,167,-1
 704 366 l 1,168,-1
 668 282 l 1,165,-1
EndSplineSet
Validated: 33
EndChar

StartChar: ampersand
Encoding: 38 38 8
Width: 741
Flags: W
LayerCount: 2
Back
Fore
SplineSet
473 655 m 1,0,1
 475 660 475 660 486 660 c 0,2,3
 489 660 489 660 496 659 c 0,4,5
 504 659 504 659 507 659 c 0,6,7
 523 659 523 659 525 668 c 1,8,9
 525 667 525 667 534 655 c 1,10,-1
 552 655 l 1,11,-1
 573 660 l 2,12,13
 588 660 588 660 595 646 c 1,14,-1
 599 650 l 1,15,16
 605 646 605 646 609.5 623 c 128,-1,17
 614 600 614 600 629 594 c 1,18,19
 641 602 641 602 660 580 c 0,20,21
 670 565 670 565 670 541 c 0,22,23
 670 518 670 518 660 502 c 1,24,25
 670 470 670 470 668 459 c 1,26,27
 659 455 659 455 660 443 c 0,28,29
 660 423 660 423 660 423 c 1,30,31
 670 418 670 418 669 403 c 0,32,33
 668 380 668 380 668 380 c 1,34,35
 659 374 659 374 660 360 c 0,36,37
 660 336 660 336 660 336 c 1,38,39
 671 326 671 326 668 319 c 1,40,41
 647 314 647 314 656 298 c 0,42,43
 666 279 666 279 651 271 c 1,44,45
 651 262 651 262 651 254 c 0,46,47
 652 244 652 244 660 241 c 1,48,49
 651 226 651 226 643 180 c 1,50,51
 647 176 647 176 647 169 c 0,52,53
 647 163 647 163 643 150 c 128,-1,54
 639 137 639 137 638 132.5 c 128,-1,55
 637 128 637 128 637 125 c 0,56,57
 637 120 637 120 640 109 c 128,-1,58
 643 98 643 98 643 93 c 0,59,60
 643 81 643 81 634 74 c 1,61,-1
 638 71 l 1,62,63
 634 51 634 51 634 15 c 0,64,65
 634 -36 634 -36 634 -39 c 0,66,67
 603 -64 603 -64 560 -71 c 0,68,69
 535 -75 535 -75 473 -74 c 1,70,71
 445 -60 445 -60 389 -52 c 0,72,73
 325 -43 325 -43 302 -35 c 1,74,75
 233 -25 233 -25 164 -14 c 0,76,77
 85 1 85 1 37 31 c 1,78,79
 45 37 45 37 45 47 c 0,80,81
 45 51 45 51 43 60.5 c 128,-1,82
 41 70 41 70 41 74 c 0,83,84
 41 86 41 86 54 92 c 1,85,86
 49 98 49 98 49 104 c 0,87,88
 49 109 49 109 55.5 119.5 c 128,-1,89
 62 130 62 130 62 136 c 1,90,-1
 80 153 l 1,91,92
 69 160 69 160 69 168 c 0,93,94
 69 174 69 174 76 185 c 128,-1,95
 83 196 83 196 85 201.5 c 128,-1,96
 87 207 87 207 99.5 217.5 c 128,-1,97
 112 228 112 228 115 236 c 0,98,99
 116 238 116 238 122 251 c 0,100,101
 126 261 126 261 126 266 c 0,102,103
 126 276 126 276 115 280 c 1,104,-1
 132 292 l 1,105,106
 129 295 129 295 129 298 c 256,107,108
 129 301 129 301 133 308 c 128,-1,109
 137 315 137 315 137 318 c 0,110,111
 137 324 137 324 128 328 c 1,112,113
 144 335 144 335 147 362 c 128,-1,114
 150 389 150 389 171 393 c 1,115,116
 173 401 173 401 169 413 c 128,-1,117
 165 425 165 425 168 432 c 1,118,119
 174 432 174 432 178 441 c 128,-1,120
 182 450 182 450 189 450 c 1,121,-1
 185 471 l 1,122,123
 193 470 193 470 198 476 c 128,-1,124
 203 482 203 482 207 489 c 1,125,126
 204 495 204 495 204 500 c 0,127,128
 204 511 204 511 220 522 c 128,-1,129
 236 533 236 533 236 543 c 0,130,131
 236 548 236 548 233 554 c 1,132,133
 244 565 244 565 256.5 591 c 128,-1,134
 269 617 269 617 280 629 c 1,135,136
 283 658 283 658 307 685 c 1,137,138
 319 675 319 675 324 677 c 2,139,-1
 333 685 l 1,140,-1
 368 672 l 2,141,142
 372 674 372 674 377 674 c 0,143,144
 384 674 384 674 398.5 669 c 128,-1,145
 413 664 413 664 420 663 c 0,146,147
 421 665 421 665 424 665 c 0,148,149
 426 665 426 665 435.5 662 c 128,-1,150
 445 659 445 659 449 659 c 0,151,152
 458 659 458 659 459 668 c 1,153,-1
 473 655 l 1,0,1
612 576 m 1,154,-1
 578 576 l 1,155,156
 580 572 580 572 580 569 c 0,157,158
 580 565 580 565 573 559 c 128,-1,159
 566 553 566 553 566 548 c 0,160,161
 566 545 566 545 568 541 c 0,162,163
 592 531 592 531 599 532 c 0,164,165
 610 532 610 532 612 540 c 0,166,167
 614 545 614 545 612.5 558 c 128,-1,168
 611 571 611 571 612 576 c 1,154,-1
517 188 m 0,169,170
 515 189 515 189 507 198 c 0,171,172
 501 204 501 204 495 201 c 0,173,174
 493 204 493 204 475 219 c 0,175,176
 462 230 462 230 462 241 c 0,177,178
 462 244 462 244 464 249 c 0,179,180
 480 256 480 256 486.5 279.5 c 128,-1,181
 493 303 493 303 508 311 c 1,182,183
 509 328 509 328 503 358 c 1,184,185
 492 360 492 360 473 354 c 1,186,187
 466 333 466 333 459 311 c 0,188,189
 449 288 449 288 429 275 c 1,190,191
 409 296 409 296 391 331 c 0,192,193
 375 360 375 360 359 389 c 1,194,195
 370 404 370 404 391 416 c 0,196,197
 408 427 408 427 426 438.5 c 128,-1,198
 444 450 444 450 464 502 c 1,199,200
 464 543 464 543 455 554 c 0,201,202
 426 591 426 591 394 590 c 1,203,204
 384 594 384 594 366 594 c 0,205,206
 340 594 340 594 338 594 c 0,207,208
 329 586 329 586 320 576.5 c 128,-1,209
 311 567 311 567 302 568 c 1,210,211
 292 563 292 563 291 551.5 c 128,-1,212
 290 540 290 540 289 529 c 1,213,214
 279 521 279 521 280 503 c 0,215,216
 281 479 281 479 280 476 c 0,217,218
 278 468 278 468 286 461 c 0,219,220
 298 450 298 450 298 450 c 2,221,222
 297 448 297 448 286 424 c 0,223,224
 279 409 279 409 268 401 c 0,225,226
 242 386 242 386 231 375 c 0,227,228
 213 358 213 358 211 336 c 1,229,230
 201 322 201 322 202 294 c 0,231,232
 202 246 202 246 202 249 c 1,233,234
 212 240 212 240 222 230 c 128,-1,235
 232 220 232 220 233 210 c 0,236,237
 235 209 235 209 262 193 c 0,238,239
 279 183 279 183 294 183 c 1,240,241
 308 174 308 174 336 174 c 0,242,243
 381 175 381 175 381 175 c 1,244,245
 396 193 396 193 414 193 c 0,246,247
 428 193 428 193 457.5 175 c 128,-1,248
 487 157 487 157 503 158 c 1,249,250
 516 154 516 154 517 167 c 0,251,252
 517 177 517 177 517 188 c 0,169,170
408 529 m 0,253,254
 412 524 412 524 412 518 c 0,255,256
 412 513 412 513 407.5 503 c 128,-1,257
 403 493 403 493 402 490 c 128,-1,258
 401 487 401 487 384 470 c 0,259,260
 375 461 375 461 364 459 c 1,261,-1
 355 450 l 1,262,263
 339 457 339 457 335 477 c 0,264,265
 329 509 329 509 328 510 c 0,266,267
 356 546 356 546 381 546 c 0,268,269
 397 546 397 546 408 529 c 0,253,254
389 249 m 1,270,271
 384 236 384 236 364 214 c 1,272,273
 354 213 354 213 345 213 c 0,274,275
 300 213 300 213 268 241 c 0,276,277
 253 252 253 252 251 276 c 0,278,279
 251 297 251 297 250 319 c 1,280,281
 262 324 262 324 279 350 c 0,282,283
 294 373 294 373 304 373 c 0,284,285
 315 373 315 373 328 354 c 0,286,287
 342 327 342 327 355 300 c 0,288,289
 371 269 371 269 389 249 c 1,270,271
EndSplineSet
Validated: 33
EndChar

StartChar: quotesingle
Encoding: 39 39 9
Width: 308
Flags: W
LayerCount: 2
Back
Fore
SplineSet
23 658 m 2,0,-1
 23 757 l 2,1,2
 25 759 25 759 27 757 c 0,3,4
 26 718 26 718 27 661 c 0,5,6
 26 658 26 658 25 659.5 c 128,-1,7
 24 661 24 661 23 658 c 2,0,-1
243 769 m 1,8,9
 236 734 236 734 132 478 c 1,10,-1
 71 491 l 1,11,-1
 108 637 l 1,12,-1
 71 645 l 1,13,14
 69 667 69 667 69 690 c 0,15,16
 69 760 69 760 92 789 c 1,17,-1
 243 769 l 1,8,9
262 667 m 2,18,-1
 256 788 l 1,19,20
 262 773 262 773 264 728 c 0,21,22
 265 687 265 687 262 667 c 2,18,-1
32 468 m 0,23,24
 35 464 35 464 142 464 c 0,25,26
 255 463 255 463 274 459 c 1,27,-1
 245 454 l 1,28,29
 230 456 230 456 213 456 c 0,30,31
 191 456 191 456 149 452 c 128,-1,32
 107 448 107 448 86 448 c 0,33,34
 55 448 55 448 29 454 c 1,35,-1
 19 471 l 1,36,-1
 29 620 l 1,37,38
 45 540 45 540 32 468 c 0,23,24
EndSplineSet
Validated: 33
EndChar

StartChar: asterisk
Encoding: 42 42 11
Width: 578
Flags: W
LayerCount: 2
Back
Fore
SplineSet
412 633 m 1,0,1
 393 613 393 613 354 577 c 1,2,-1
 351 579 l 2,3,4
 350 576 350 576 340 568 c 128,-1,5
 330 560 330 560 330 554 c 0,6,7
 330 551 330 551 333 547 c 0,8,9
 332 545 332 545 350.5 539 c 128,-1,10
 369 533 369 533 370 533 c 0,11,12
 373 535 373 535 378 535 c 256,13,14
 383 535 383 535 385 533 c 128,-1,15
 387 531 387 531 393 531 c 1,16,17
 393 531 393 531 398 523 c 1,18,19
 401 525 401 525 405 525 c 0,20,21
 410 525 410 525 420.5 519.5 c 128,-1,22
 431 514 431 514 438 514 c 1,23,24
 437 511 437 511 439.5 503.5 c 128,-1,25
 442 496 442 496 442 493 c 0,26,27
 442 486 442 486 435 484 c 1,28,29
 436 478 436 478 430 470 c 1,30,31
 434 469 434 469 432 466 c 0,32,33
 430 461 430 461 430 461 c 1,34,-1
 426 456 l 1,35,-1
 428 454 l 1,36,37
 411 444 411 444 412 444 c 1,38,39
 408 444 408 444 403 447 c 1,40,41
 403 446 403 446 398 454 c 1,42,43
 393 453 393 453 384 451 c 1,44,45
 384 451 384 451 379 458 c 1,46,47
 377 456 377 456 374 456 c 0,48,49
 372 456 372 456 367.5 459 c 128,-1,50
 363 462 363 462 360 462 c 0,51,52
 358 462 358 462 356 461 c 0,53,54
 356 460 356 460 351 468 c 1,55,56
 336 467 336 467 312 479 c 1,57,58
 312 473 312 473 310 449 c 1,59,60
 315 444 315 444 316 444 c 1,61,62
 314 441 314 441 314 430 c 1,63,64
 321 426 321 426 321 426 c 257,65,66
 321 426 321 426 319 413 c 0,67,68
 318 406 318 406 323 403 c 2,69,-1
 326 403 l 2,70,71
 324 400 324 400 324 397 c 0,72,73
 324 393 324 393 328 386 c 128,-1,74
 332 379 332 379 332 374 c 0,75,76
 332 371 332 371 330.5 369.5 c 128,-1,77
 329 368 329 368 326 363 c 128,-1,78
 323 358 323 358 322 358 c 0,79,80
 320 359 320 359 319 361 c 1,81,82
 314 354 314 354 314 354 c 2,83,84
 310 355 310 355 306 355 c 0,85,86
 299 355 299 355 287 350.5 c 128,-1,87
 275 346 275 346 270 346 c 0,88,89
 261 346 261 346 256 358 c 1,90,91
 259 366 259 366 258 370 c 0,92,93
 252 375 252 375 251 375 c 1,94,95
 253 377 253 377 253 389 c 1,96,97
 247 393 247 393 247 393 c 2,98,99
 247 392 247 392 249 406 c 0,100,101
 250 413 250 413 244 416 c 2,102,-1
 242 416 l 2,103,104
 243 417 243 417 244 426 c 1,105,106
 237 436 237 436 237 433 c 1,107,108
 239 440 239 440 233 456 c 1,109,110
 216 445 216 445 217 442 c 1,111,112
 215 442 215 442 212 444 c 0,113,114
 206 441 206 441 207 433 c 0,115,116
 205 432 205 432 203 435 c 1,117,118
 198 427 198 427 185.5 417 c 128,-1,119
 173 407 173 407 168 398 c 1,120,121
 151 386 151 386 151 386 c 1,122,123
 140 387 140 387 131 397 c 128,-1,124
 122 407 122 407 114 416 c 1,125,-1
 112 414 l 1,126,-1
 109 418 l 2,127,128
 105 426 105 426 102 423 c 1,129,130
 98 425 98 425 98 439 c 1,131,132
 130 470 130 470 131 470 c 1,133,134
 131 469 131 469 133 468 c 0,135,136
 145 483 145 483 177 512 c 1,137,-1
 179 509 l 1,138,139
 185 516 185 516 184 519 c 0,140,141
 180 525 180 525 171 527 c 0,142,143
 159 529 159 529 156 531 c 1,144,145
 156 530 156 530 151 537 c 0,146,147
 148 535 148 535 143 535 c 256,148,149
 138 535 138 535 134.5 537 c 128,-1,150
 131 539 131 539 124 547 c 1,151,152
 96 542 96 542 81 561 c 1,153,-1
 70 568 l 2,154,155
 66 575 66 575 86 602 c 0,156,157
 87 606 87 606 84 612 c 1,158,159
 89 612 89 612 91 619 c 128,-1,160
 93 626 93 626 95 628 c 2,161,-1
 105 628 l 2,162,163
 105 627 105 627 110 621 c 1,164,165
 126 617 126 617 146 614 c 1,166,167
 145 612 145 612 159.5 609 c 128,-1,168
 174 606 174 606 174 605 c 0,169,170
 173 600 173 600 179 599 c 0,171,172
 184 599 184 599 188 600 c 1,173,174
 188 599 188 599 193 593 c 1,175,176
 206 594 206 594 207 607 c 1,177,178
 200 609 200 609 200 616 c 0,179,180
 200 618 200 618 201 623.5 c 128,-1,181
 202 629 202 629 202 631 c 0,182,183
 202 637 202 637 195 640 c 1,184,185
 198 644 198 644 197 651 c 0,186,187
 197 659 197 659 191 658 c 1,188,189
 193 670 193 670 186 679 c 1,190,-1
 188 707 l 2,191,192
 191 707 191 707 209 711 c 0,193,194
 222 713 222 713 233 712 c 2,195,-1
 244 711 l 1,196,197
 247 718 247 718 250 718 c 0,198,199
 252 718 252 718 261 698 c 1,200,201
 257 690 257 690 258 686 c 0,202,203
 265 682 265 682 265 682 c 1,204,205
 257 660 257 660 270 656 c 1,206,207
 269 652 269 652 267 644 c 1,208,209
 271 642 271 642 275 637 c 1,210,211
 271 630 271 630 277 616 c 1,212,-1
 286 612 l 1,213,214
 308 639 308 639 335 660 c 1,215,-1
 337 658 l 1,216,-1
 368 689 l 1,217,218
 370 682 370 682 394 662 c 0,219,220
 414 646 414 646 412 633 c 1,0,1
433 709 m 1,221,222
 447 707 447 707 454 691 c 0,223,224
 456 689 456 689 463 663 c 0,225,226
 462 658 462 658 466 646 c 128,-1,227
 470 634 470 634 470 628 c 2,228,229
 470 628 470 628 470 610 c 0,230,231
 472 604 472 604 481 587.5 c 128,-1,232
 490 571 490 571 490 560 c 0,233,234
 490 555 490 555 488 549 c 1,235,236
 494 546 494 546 493.5 533 c 128,-1,237
 493 520 493 520 498 517 c 1,238,239
 497 512 497 512 500 505 c 0,240,241
 497 502 497 502 497 498 c 0,242,243
 497 495 497 495 502 488.5 c 128,-1,244
 507 482 507 482 507 479 c 2,245,-1
 509 477 l 1,246,247
 504 429 504 429 512 409 c 0,248,249
 517 402 517 402 517 387 c 0,250,251
 516 365 516 365 517 363 c 1,252,253
 501 356 501 356 496 345 c 1,254,255
 471 337 471 337 444 333 c 0,256,257
 443 329 443 329 437 327 c 128,-1,258
 431 325 431 325 430 321 c 1,259,260
 427 323 427 323 424 323 c 256,261,262
 421 323 421 323 403 312 c 1,263,264
 387 312 387 312 384 307 c 0,265,266
 382 306 382 306 379 310 c 1,267,268
 375 303 375 303 362 301 c 128,-1,269
 349 299 349 299 345 293 c 1,270,271
 337 295 337 295 327 291.5 c 128,-1,272
 317 288 317 288 311.5 287 c 128,-1,273
 306 286 306 286 293.5 281.5 c 128,-1,274
 281 277 281 277 275 275 c 0,275,276
 270 276 270 276 266 276 c 0,277,278
 259 276 259 276 247.5 269.5 c 128,-1,279
 236 263 236 263 229 263 c 0,280,281
 224 263 224 263 219 265 c 1,282,283
 214 257 214 257 198 256 c 128,-1,284
 182 255 182 255 177 247 c 1,285,286
 168 249 168 249 156.5 242.5 c 128,-1,287
 145 236 145 236 139 236 c 0,288,289
 135 236 135 236 130 237 c 0,290,291
 119 234 119 234 98 223 c 1,292,293
 77 225 77 225 60 237 c 0,294,295
 57 236 57 236 55 236 c 0,296,297
 51 236 51 236 46.5 244 c 128,-1,298
 42 252 42 252 41 253 c 0,299,300
 38 294 38 294 38 376 c 1,301,302
 33 383 33 383 33 401 c 128,-1,303
 33 419 33 419 28 426 c 1,304,305
 30 431 30 431 30 435 c 0,306,307
 30 440 30 440 26.5 448 c 128,-1,308
 23 456 23 456 23 463 c 0,309,310
 23 468 23 468 25 473 c 2,311,-1
 16 510 l 1,312,-1
 11 600 l 1,313,314
 5 606 5 606 0 642 c 1,315,316
 4 644 4 644 5.5 650.5 c 128,-1,317
 7 657 7 657 12 658 c 1,318,319
 8 640 8 640 9 634 c 0,320,321
 9 632 9 632 17 613 c 1,322,323
 16 595 16 595 20 573 c 0,324,325
 25 541 25 541 26 533 c 0,326,327
 24 522 24 522 29 496 c 0,328,329
 29 492 29 492 40 468 c 1,330,331
 37 456 37 456 37 456 c 1,332,333
 46 447 46 447 40 416 c 1,334,335
 43 393 43 393 46 369 c 0,336,337
 48 342 48 342 44 321 c 0,338,339
 45 312 45 312 49 296 c 0,340,341
 53 290 53 290 50 276 c 128,-1,342
 47 262 47 262 51 256.5 c 128,-1,343
 55 251 55 251 62 250 c 256,344,345
 69 249 69 249 72 253 c 0,346,347
 86 262 86 262 126 272 c 0,348,349
 182 286 182 286 184 286 c 0,350,351
 225 311 225 311 263 310 c 1,352,353
 283 319 283 319 305 323 c 1,354,355
 309 333 309 333 333 333 c 1,356,357
 337 339 337 339 337 340 c 0,358,359
 341 341 341 341 346 337 c 1,360,361
 353 350 353 350 372 349 c 1,362,-1
 398 356 l 1,363,364
 406 365 406 365 426 374 c 0,365,366
 442 380 442 380 458 386 c 0,367,368
 462 387 462 387 468 384 c 1,369,370
 472 392 472 392 472 391 c 1,371,372
 476 392 476 392 482 389 c 1,373,374
 487 391 487 391 486.5 399 c 128,-1,375
 486 407 486 407 488 409 c 0,376,377
 484 416 484 416 484 432 c 128,-1,378
 484 448 484 448 479 456 c 0,379,380
 480 461 480 461 477 468 c 1,381,-1
 474 468 l 1,382,383
 475 473 475 473 475 479 c 0,384,385
 475 489 475 489 471 509 c 128,-1,386
 467 529 467 529 468 537 c 0,387,388
 466 553 466 553 456 577 c 1,389,390
 458 583 458 583 458 589 c 0,391,392
 458 597 458 597 453 615 c 128,-1,393
 448 633 448 633 449 644 c 0,394,395
 448 645 448 645 443.5 656.5 c 128,-1,396
 439 668 439 668 438 668 c 1,397,398
 441 673 441 673 441 677 c 0,399,400
 441 682 441 682 436 689 c 128,-1,401
 431 696 431 696 431 701 c 0,402,403
 431 705 431 705 433 709 c 1,221,222
EndSplineSet
Validated: 37
EndChar

StartChar: period
Encoding: 46 46 12
Width: 264
Flags: W
LayerCount: 2
Back
Fore
SplineSet
2 107 m 0,0,1
 2 113 2 113 14 111.5 c 128,-1,2
 26 110 26 110 27.5 114 c 128,-1,3
 29 118 29 118 35 146 c 0,4,5
 38 165 38 165 48 172 c 0,6,7
 78 193 78 193 115 193 c 0,8,9
 122 193 122 193 130 184 c 128,-1,10
 138 175 138 175 143 173 c 0,11,12
 159 175 159 175 184 170 c 1,13,14
 225 140 225 140 225 92 c 0,15,16
 225 84 225 84 214 76.5 c 128,-1,17
 203 69 203 69 201 64 c 0,18,19
 194 46 194 46 185 28 c 128,-1,20
 176 10 176 10 161 3 c 0,21,22
 153 0 153 0 140 2 c 0,23,24
 122 6 122 6 117 6 c 256,25,26
 112 6 112 6 96.5 0.5 c 128,-1,27
 81 -5 81 -5 74 -3 c 0,28,29
 68 -1 68 -1 64.5 12.5 c 128,-1,30
 61 26 61 26 57 29 c 0,31,32
 42 39 42 39 26 49.5 c 128,-1,33
 10 60 10 60 7 72 c 0,34,35
 2 99 2 99 2 107 c 0,0,1
EndSplineSet
Validated: 33
EndChar

StartChar: zero
Encoding: 48 48 13
Width: 592
Flags: W
LayerCount: 2
Back
Fore
SplineSet
131 427 m 0,0,1
 133 447 133 447 126 482 c 1,2,-1
 131 487 l 1,3,-1
 131 599 l 1,4,-1
 126 604 l 1,5,-1
 131 608 l 1,6,-1
 131 706 l 1,7,8
 136 710 136 710 136 720 c 0,9,10
 136 735 136 735 136 736 c 1,11,12
 142 735 142 735 152 727 c 1,13,14
 151 726 151 726 143 708 c 0,15,16
 144 705 144 705 143 688 c 0,17,18
 141 675 141 675 149 671 c 1,19,20
 144 660 144 660 145 655 c 0,21,22
 149 648 149 648 146 630 c 128,-1,23
 143 612 143 612 149 604 c 0,24,25
 150 597 150 597 146 586.5 c 128,-1,26
 142 576 142 576 142 572 c 0,27,28
 142 567 142 567 145 563.5 c 128,-1,29
 148 560 148 560 151 560 c 0,30,31
 155 560 155 560 157.5 568 c 128,-1,32
 160 576 160 576 161 578 c 0,33,34
 159 582 159 582 159 587 c 0,35,36
 159 593 159 593 164.5 604.5 c 128,-1,37
 170 616 170 616 170 622 c 0,38,39
 170 625 170 625 168 629 c 1,40,41
 174 630 174 630 175.5 636.5 c 128,-1,42
 177 643 177 643 180 645 c 2,43,-1
 177 648 l 1,44,45
 181 651 181 651 189 657 c 1,46,47
 196 693 196 693 242 717 c 0,48,49
 277 735 277 735 305 736 c 0,50,51
 317 738 317 738 343.5 733 c 128,-1,52
 370 728 370 728 370 727 c 0,53,54
 412 707 412 707 438 660 c 0,55,56
 463 617 463 617 466 566 c 0,57,58
 468 532 468 532 457 455 c 0,59,60
 449 420 449 420 428 362 c 0,61,62
 415 331 415 331 378 296 c 1,63,-1
 375 299 l 1,64,65
 360 279 360 279 308 269 c 1,66,67
 240 274 240 274 206 309 c 0,68,69
 180 337 180 337 159 401 c 0,70,71
 152 423 152 423 154 432 c 0,72,73
 152 444 152 444 147 469 c 1,74,75
 145 452 145 452 143 435 c 0,76,77
 141 415 141 415 145 401 c 1,78,79
 136 397 136 397 138 373 c 1,80,81
 126 375 126 375 126 402 c 0,82,83
 126 417 126 417 131 427 c 0,0,1
403 482 m 1,84,85
 398 489 398 489 398 502 c 0,86,87
 398 524 398 524 398 525 c 0,88,89
 398 527 398 527 400.5 531.5 c 128,-1,90
 403 536 403 536 403 538 c 0,91,92
 403 541 403 541 398 543 c 1,93,94
 400 553 400 553 396.5 568 c 128,-1,95
 393 583 393 583 394 589 c 0,96,97
 384 618 384 618 375 647 c 0,98,99
 360 690 360 690 326 703 c 0,100,101
 320 702 320 702 303 708 c 1,102,103
 287 704 287 704 272 699 c 0,104,105
 243 688 243 688 236 650 c 1,106,107
 224 640 224 640 221 596 c 0,108,109
 217 547 217 547 212 539 c 0,110,111
 211 534 211 534 211 531 c 0,112,113
 211 525 211 525 221 522.5 c 128,-1,114
 231 520 231 520 233 517 c 0,115,116
 241 515 241 515 252 522 c 1,117,-1
 259 515 l 1,118,119
 256 502 256 502 239 503 c 0,120,121
 212 504 212 504 212 504 c 1,122,-1
 212 499 l 1,123,124
 212 499 212 499 246 500 c 0,125,126
 266 500 266 500 275 490 c 1,127,128
 272 486 272 486 263.5 484 c 128,-1,129
 255 482 255 482 252 476 c 1,130,131
 248 481 248 481 233 485 c 1,132,133
 231 480 231 480 221 480 c 128,-1,134
 211 480 211 480 211 475 c 0,135,136
 211 473 211 473 212 469 c 0,137,138
 218 461 218 461 217.5 443 c 128,-1,139
 217 425 217 425 222 417 c 1,140,141
 221 399 221 399 245 354 c 128,-1,142
 269 309 269 309 280 308 c 0,143,144
 291 304 291 304 305 304 c 0,145,146
 332 304 332 304 357 320 c 1,147,148
 363 331 363 331 380 353 c 0,149,150
 378 356 378 356 378 359 c 0,151,152
 378 365 378 365 384.5 373 c 128,-1,153
 391 381 391 381 391 386 c 0,154,155
 391 390 391 390 389 394 c 1,156,157
 394 397 394 397 393.5 406 c 128,-1,158
 393 415 393 415 398 417 c 1,159,160
 398 423 398 423 398 429 c 0,161,162
 397 436 397 436 392 438 c 1,163,164
 398 443 398 443 398 443 c 1,165,166
 398 467 398 467 403 482 c 1,84,85
149 513 m 1,167,-1
 149 541 l 1,168,-1
 147 541 l 1,169,-1
 147 513 l 1,170,-1
 149 513 l 1,167,-1
368 571 m 1,171,-1
 364 566 l 1,172,173
 362 570 362 570 349 571 c 1,174,175
 348 567 348 567 345 567 c 0,176,177
 344 567 344 567 340 570.5 c 128,-1,178
 336 574 336 574 333 574 c 1,179,180
 339 581 339 581 351 581 c 0,181,182
 364 581 364 581 368 571 c 1,171,-1
380 517 m 1,183,184
 377 516 377 516 377 509.5 c 128,-1,185
 377 503 377 503 373 501 c 0,186,187
 361 501 361 501 359 506 c 0,188,189
 361 507 361 507 366 513.5 c 128,-1,190
 371 520 371 520 375 520 c 0,191,192
 377 520 377 520 380 517 c 1,183,184
392 490 m 1,193,194
 392 481 392 481 387 478 c 1,195,196
 384 483 384 483 376 483 c 0,197,198
 364 482 364 482 364 482 c 1,199,200
 360 473 360 473 355 473 c 0,201,202
 353 473 353 473 347 476 c 128,-1,203
 341 479 341 479 338 479 c 0,204,205
 334 479 334 479 331 476 c 1,206,207
 334 480 334 480 340 487 c 0,208,209
 345 491 345 491 356 488.5 c 128,-1,210
 367 486 367 486 370 494 c 1,211,212
 377 481 377 481 392 490 c 1,193,194
303 548 m 1,213,214
 295 542 295 542 282 542 c 0,215,216
 270 542 270 542 261 548 c 1,217,218
 265 557 265 557 271 557 c 0,219,220
 274 557 274 557 281 554 c 128,-1,221
 288 551 288 551 292 551 c 0,222,223
 295 551 295 551 299 552 c 2,224,-1
 303 548 l 1,213,214
343 508 m 1,225,226
 342 508 342 508 333.5 499.5 c 128,-1,227
 325 491 325 491 326 485 c 1,228,229
 326 485 326 485 317 492 c 1,230,231
 323 498 323 498 322 501 c 0,232,233
 319 506 319 506 308 505.5 c 128,-1,234
 297 505 297 505 294 511 c 1,235,236
 325 525 325 525 343 508 c 1,225,226
303 482 m 0,237,238
 302 480 302 480 297 478 c 128,-1,239
 292 476 292 476 294 471 c 2,240,-1
 301 466 l 1,241,-1
 299 464 l 1,242,243
 292 468 292 468 280 478 c 1,244,245
 292 498 292 498 303 482 c 0,237,238
275 469 m 0,246,247
 273 464 273 464 261 464 c 1,248,-1
 259 466 l 1,249,250
 261 470 261 470 273 476 c 0,251,252
 274 475 274 475 275 469 c 0,246,247
EndSplineSet
Validated: 33
EndChar

StartChar: one
Encoding: 49 49 14
Width: 592
Flags: W
LayerCount: 2
Back
Fore
SplineSet
147 78 m 1,0,1
 168 78 168 78 212 87 c 1,2,3
 232 197 232 197 250 377 c 2,4,-1
 280 668 l 2,5,6
 278 683 278 683 244 698 c 128,-1,7
 210 713 210 713 210 726 c 0,8,9
 210 737 210 737 223 754 c 1,10,11
 244 757 244 757 448 774 c 1,12,13
 442 657 442 657 414 426 c 0,14,15
 385 191 385 191 378 76 c 1,16,17
 387 60 387 60 443 48 c 1,18,19
 443 32 443 32 436 0 c 1,20,-1
 149 29 l 1,21,22
 143 38 143 38 144 53 c 0,23,24
 146 65 146 65 147 78 c 1,0,1
421 168 m 1,25,-1
 438 79 l 1,26,-1
 417 143 l 1,27,-1
 421 168 l 1,25,-1
EndSplineSet
Validated: 1
EndChar

StartChar: two
Encoding: 50 50 15
Width: 592
Flags: W
LayerCount: 2
Back
Fore
SplineSet
211 85 m 1,0,-1
 206 87 l 1,1,-1
 205 82 l 1,2,-1
 209 80 l 1,3,-1
 211 85 l 1,0,-1
260 89 m 1,4,-1
 256 90 l 1,5,-1
 255 88 l 1,6,-1
 260 86 l 1,7,-1
 260 89 l 1,4,-1
201 110 m 1,8,-1
 196 111 l 1,9,-1
 196 109 l 1,10,-1
 200 107 l 1,11,-1
 201 110 l 1,8,-1
280 92 m 1,12,-1
 276 94 l 1,13,-1
 274 89 l 1,14,-1
 279 88 l 1,15,-1
 280 92 l 1,12,-1
268 97 m 1,16,-1
 264 98 l 1,17,-1
 262 94 l 1,18,-1
 267 92 l 1,19,-1
 268 97 l 1,16,-1
259 100 m 1,20,-1
 257 101 l 1,21,-1
 255 96 l 1,22,-1
 257 95 l 1,23,-1
 259 100 l 1,20,-1
177 132 m 1,24,-1
 172 133 l 1,25,-1
 171 128 l 1,26,-1
 175 127 l 1,27,-1
 177 132 l 1,24,-1
275 108 m 1,28,-1
 270 109 l 1,29,-1
 269 105 l 1,30,-1
 273 103 l 1,31,-1
 275 108 l 1,28,-1
179 176 m 1,32,33
 207 204 207 204 260 262 c 0,34,35
 306 313 306 313 321 366 c 1,36,37
 306 364 306 364 279.5 337 c 128,-1,38
 253 310 253 310 238 310 c 0,39,40
 224 310 224 310 212 321.5 c 128,-1,41
 200 333 200 333 200 347 c 0,42,43
 200 375 200 375 244 403 c 0,44,45
 248 406 248 406 309 439 c 1,46,47
 338 441 338 441 361 414 c 2,48,-1
 395 366 l 1,49,-1
 395 351 l 2,50,51
 395 342 395 342 402 340 c 1,52,53
 404 350 404 350 415 362 c 1,54,-1
 411 259 l 1,55,56
 401 273 401 273 401 297 c 2,57,-1
 402 340 l 1,58,59
 392 299 392 299 362 263 c 0,60,61
 344 242 344 242 308 200 c 1,62,63
 315 196 315 196 334.5 193.5 c 128,-1,64
 354 191 354 191 361 186 c 0,65,66
 376 164 376 164 376 138 c 0,67,68
 376 126 376 126 373 113 c 1,69,70
 355 121 355 121 322 121 c 1,71,72
 331 121 331 121 295 120 c 2,73,74
 295 120 295 120 268 120 c 0,75,76
 192 120 192 120 179 176 c 1,32,33
168 145 m 1,77,-1
 164 147 l 1,78,-1
 162 142 l 1,79,-1
 167 140 l 1,80,-1
 168 145 l 1,77,-1
330 96 m 1,81,-1
 325 98 l 1,82,-1
 324 96 l 1,83,-1
 329 94 l 1,84,-1
 330 96 l 1,81,-1
170 158 m 1,85,-1
 165 159 l 1,86,-1
 164 155 l 1,87,-1
 169 153 l 1,88,-1
 170 158 l 1,85,-1
350 100 m 1,89,-1
 345 102 l 1,90,-1
 343 97 l 1,91,-1
 348 95 l 1,92,-1
 350 100 l 1,89,-1
168 167 m 1024,93,-1
229 204 m 1,94,95
 233 202 233 202 236 202 c 0,96,97
 242 202 242 202 247.5 210 c 128,-1,98
 253 218 253 218 257 218 c 0,99,100
 260 218 260 218 263 216 c 1,101,102
 259 214 259 214 253 200 c 128,-1,103
 247 186 247 186 241 186 c 0,104,105
 237 186 237 186 230 193 c 0,106,107
 228 195 228 195 228 198 c 256,108,109
 228 201 228 201 229 204 c 1,94,95
175 209 m 1024,110,-1
182 220 m 1,111,-1
 186 219 l 1,112,113
 185 215 185 215 184 215 c 0,114,115
 182 216 182 216 181 218 c 2,116,-1
 182 220 l 1,111,-1
184 228 m 1024,117,-1
210 264 m 1,118,-1
 205 265 l 1,119,-1
 204 261 l 1,120,-1
 208 259 l 1,121,-1
 210 264 l 1,118,-1
189 271 m 1,122,-1
 186 272 l 1,123,-1
 185 267 l 1,124,-1
 187 266 l 1,125,-1
 189 271 l 1,122,-1
202 277 m 1024,126,-1
192 281 m 1,127,-1
 190 281 l 1,128,-1
 188 277 l 1,129,-1
 190 276 l 1,130,-1
 192 281 l 1,127,-1
235 274 m 1,131,-1
 230 275 l 1,132,-1
 229 273 l 1,133,-1
 234 271 l 1,134,-1
 235 274 l 1,131,-1
229 281 m 1,135,-1
 225 282 l 1,136,-1
 223 278 l 1,137,-1
 228 276 l 1,138,-1
 229 281 l 1,135,-1
211 386 m 1,139,-1
 206 388 l 1,140,-1
 204 383 l 1,141,-1
 209 381 l 1,142,-1
 211 386 l 1,139,-1
215 398 m 1,143,-1
 210 399 l 1,144,-1
 208 395 l 1,145,-1
 213 393 l 1,146,-1
 215 398 l 1,143,-1
217 405 m 1024,147,-1
216 416 m 1,148,-1
 211 418 l 1,149,-1
 209 413 l 1,150,-1
 214 411 l 1,151,-1
 216 416 l 1,148,-1
222 427 m 1,152,-1
 218 429 l 1,153,-1
 216 424 l 1,154,-1
 221 422 l 1,155,-1
 222 427 l 1,152,-1
225 434 m 1,156,-1
 220 436 l 1,157,-1
 218 431 l 1,158,-1
 223 429 l 1,159,-1
 225 434 l 1,156,-1
216 440 m 1,160,-1
 214 441 l 1,161,-1
 213 438 l 1,162,-1
 215 438 l 1,163,-1
 216 440 l 1,160,-1
228 460 m 1,164,-1
 224 461 l 1,165,-1
 222 456 l 1,166,-1
 227 455 l 1,167,-1
 228 460 l 1,164,-1
406 405 m 1,168,-1
 402 407 l 1,169,-1
 401 404 l 1,170,-1
 405 403 l 1,171,-1
 406 405 l 1,168,-1
248 461 m 1,172,-1
 243 462 l 1,173,-1
 242 460 l 1,174,-1
 247 458 l 1,175,-1
 248 461 l 1,172,-1
236 465 m 1,176,-1
 231 467 l 1,177,-1
 230 464 l 1,178,-1
 235 463 l 1,179,-1
 236 465 l 1,176,-1
301 453 m 1,180,-1
 298 454 l 1,181,-1
 297 449 l 1,182,-1
 299 448 l 1,183,-1
 301 453 l 1,180,-1
270 464 m 1,184,-1
 265 465 l 1,185,-1
 263 461 l 1,186,-1
 268 459 l 1,187,-1
 270 464 l 1,184,-1
251 470 m 1,188,-1
 246 472 l 1,189,-1
 244 467 l 1,190,-1
 249 466 l 1,191,-1
 251 470 l 1,188,-1
230 480 m 1,192,-1
 228 481 l 1,193,-1
 226 476 l 1,194,-1
 229 475 l 1,195,-1
 230 480 l 1,192,-1
314 461 m 1,196,-1
 310 463 l 1,197,-1
 308 458 l 1,198,-1
 313 457 l 1,199,-1
 314 461 l 1,196,-1
246 485 m 1,200,-1
 241 487 l 1,201,-1
 239 482 l 1,202,-1
 244 481 l 1,203,-1
 246 485 l 1,200,-1
385 444 m 1,204,-1
 381 446 l 1,205,-1
 380 444 l 1,206,-1
 385 442 l 1,207,-1
 385 444 l 1,204,-1
314 469 m 1,208,-1
 310 471 l 1,209,-1
 309 469 l 1,210,-1
 314 467 l 1,211,-1
 314 469 l 1,208,-1
250 497 m 1,212,-1
 246 493 l 1,213,-1
 238 502 l 1,214,-1
 250 497 l 1,212,-1
231 504 m 1,215,-1
 226 506 l 1,216,-1
 224 501 l 1,217,-1
 229 499 l 1,218,-1
 231 504 l 1,215,-1
390 456 m 1,219,-1
 385 458 l 1,220,-1
 383 453 l 1,221,-1
 388 451 l 1,222,-1
 390 456 l 1,219,-1
311 484 m 1,223,-1
 309 484 l 1,224,-1
 307 480 l 1,225,-1
 310 479 l 1,226,-1
 311 484 l 1,223,-1
302 487 m 1,227,-1
 297 489 l 1,228,-1
 296 484 l 1,229,-1
 300 482 l 1,230,-1
 302 487 l 1,227,-1
252 504 m 1,231,-1
 247 506 l 1,232,-1
 246 501 l 1,233,-1
 251 500 l 1,234,-1
 252 504 l 1,231,-1
245 507 m 1,235,-1
 231 512 l 1,236,-1
 245 507 l 1,235,-1
384 469 m 1,237,-1
 379 471 l 1,238,-1
 377 466 l 1,239,-1
 382 464 l 1,240,-1
 384 469 l 1,237,-1
343 483 m 1,241,-1
 341 484 l 1,242,-1
 339 479 l 1,243,-1
 342 478 l 1,244,-1
 343 483 l 1,241,-1
336 486 m 1,245,-1
 331 487 l 1,246,-1
 330 483 l 1,247,-1
 334 481 l 1,248,-1
 336 486 l 1,245,-1
322 491 m 1,249,-1
 317 492 l 1,250,-1
 316 488 l 1,251,-1
 320 486 l 1,252,-1
 322 491 l 1,249,-1
312 494 m 1,253,-1
 308 496 l 1,254,-1
 306 491 l 1,255,-1
 311 489 l 1,256,-1
 312 494 l 1,253,-1
293 501 m 1,257,-1
 289 502 l 1,258,-1
 287 498 l 1,259,-1
 292 496 l 1,260,-1
 293 501 l 1,257,-1
256 514 m 1,261,-1
 251 516 l 1,262,-1
 249 511 l 1,263,-1
 254 509 l 1,264,-1
 256 514 l 1,261,-1
248 516 m 1,265,-1
 244 518 l 1,266,-1
 242 513 l 1,267,-1
 247 512 l 1,268,-1
 248 516 l 1,265,-1
285 506 m 1,269,-1
 280 508 l 1,270,-1
 278 503 l 1,271,-1
 283 502 l 1,272,-1
 285 506 l 1,269,-1
278 509 m 1,273,-1
 273 510 l 1,274,-1
 271 506 l 1,275,-1
 276 504 l 1,276,-1
 278 509 l 1,273,-1
228 526 m 1,277,278
 228 531 228 531 235 537 c 1,279,-1
 242 535 l 1,280,-1
 237 523 l 1,281,-1
 228 526 l 1,277,278
362 484 m 1,282,-1
 360 485 l 1,283,-1
 359 483 l 1,284,-1
 361 482 l 1,285,-1
 362 484 l 1,282,-1
267 523 m 1,286,-1
 309 508 l 1,287,-1
 267 523 l 1,286,-1
347 495 m 1,288,-1
 345 496 l 1,289,-1
 343 491 l 1,290,-1
 346 490 l 1,291,-1
 347 495 l 1,288,-1
328 502 m 1,292,-1
 324 503 l 1,293,-1
 322 499 l 1,294,-1
 327 497 l 1,295,-1
 328 502 l 1,292,-1
319 505 m 1,296,-1
 317 506 l 1,297,-1
 315 501 l 1,298,-1
 317 500 l 1,299,-1
 319 505 l 1,296,-1
331 509 m 1,300,-1
 326 510 l 1,301,-1
 325 506 l 1,302,-1
 329 504 l 1,303,-1
 331 509 l 1,300,-1
321 512 m 1,304,-1
 319 513 l 1,305,-1
 317 508 l 1,306,-1
 320 507 l 1,307,-1
 321 512 l 1,304,-1
300 520 m 1,308,-1
 295 521 l 1,309,-1
 294 516 l 1,310,-1
 298 515 l 1,311,-1
 300 520 l 1,308,-1
279 527 m 1024,312,-1
349 529 m 1,313,314
 357 531 357 531 368 531 c 0,315,316
 391 531 391 531 429 522 c 1,317,-1
 426 491 l 1,318,319
 420 490 420 490 414 490 c 0,320,321
 378 490 378 490 349 529 c 1,313,314
EndSplineSet
Validated: 37
EndChar

StartChar: three
Encoding: 51 51 16
Width: 592
Flags: W
LayerCount: 2
Back
Fore
SplineSet
127 221 m 1,0,1
 131 248 131 248 146 282 c 0,2,3
 169 335 169 335 172 343 c 1,4,5
 166 286 166 286 166 291 c 1,6,7
 166 225 166 225 268 230 c 1,8,9
 312 249 312 249 337 297 c 0,10,11
 360 341 360 341 360 392 c 1,12,-1
 344 416 l 1,13,14
 379 430 379 430 400 469 c 0,15,16
 419 504 419 504 419 544 c 0,17,18
 419 573 419 573 396.5 589 c 128,-1,19
 374 605 374 605 344 605 c 0,20,21
 311 605 311 605 283 581 c 1,22,-1
 315 650 l 1,23,24
 342 649 342 649 391.5 640.5 c 128,-1,25
 441 632 441 632 465 629 c 1,26,27
 451 574 451 574 399 438 c 0,28,29
 354 323 354 323 342 243 c 1,30,31
 332 218 332 218 303 95 c 1,32,33
 244 142 244 142 127 221 c 1,0,1
238 317 m 2,34,-1
 250 353 l 1,35,36
 243 359 243 359 216.5 364.5 c 128,-1,37
 190 370 190 370 185 379 c 1,38,39
 207 428 207 428 254 506 c 1,40,41
 281 493 281 493 306 496 c 1,42,43
 320 534 320 534 335 533 c 1,44,45
 338 527 338 527 338 518 c 0,46,47
 338 480 338 480 308 458 c 1,48,49
 299 460 299 460 278 455 c 1,50,51
 267 436 267 436 267 419 c 0,52,53
 267 407 267 407 274 389 c 0,54,55
 283 367 283 367 285 360 c 1,56,57
 271 321 271 321 253 299 c 1,58,59
 236 300 236 300 238 317 c 2,34,-1
EndSplineSet
Validated: 33
EndChar

StartChar: four
Encoding: 52 52 17
Width: 592
Flags: W
LayerCount: 2
Back
Fore
SplineSet
528 373 m 1,0,1
 538 352 538 352 538 334 c 0,2,3
 538 292 538 292 490 279 c 0,4,5
 463 272 463 272 460 261 c 0,6,7
 460 251 460 251 464.5 228.5 c 128,-1,8
 469 206 469 206 469 194 c 0,9,10
 469 169 469 169 455 151 c 1,11,12
 431 132 431 132 407 132 c 0,13,14
 363 132 363 132 349 194 c 0,15,16
 341 231 341 231 334 245 c 1,17,18
 306 242 306 242 232 224 c 0,19,20
 166 208 166 208 129 208 c 0,21,22
 94 208 94 208 64 220 c 1,23,-1
 53 248 l 1,24,25
 99 415 99 415 210 664 c 1,26,27
 240 698 240 698 295 703 c 0,28,29
 337 706 337 706 359 680 c 1,30,31
 392 626 392 626 407 535 c 0,32,33
 428 409 428 409 436 384 c 1,34,35
 466 390 466 390 486 390 c 0,36,37
 513 390 513 390 528 373 c 1,0,1
311 362 m 1,38,-1
 275 553 l 1,39,-1
 199 340 l 1,40,41
 224 341 224 341 256 349 c 0,42,43
 279 355 279 355 311 362 c 1,38,-1
EndSplineSet
Validated: 33
EndChar

StartChar: five
Encoding: 53 53 18
Width: 592
Flags: W
LayerCount: 2
Back
Fore
SplineSet
129 480 m 1,0,1
 130 454 130 454 132 403 c 0,2,3
 134 358 134 358 147 333 c 1,4,5
 197 365 197 365 235 365 c 0,6,7
 251 365 251 365 266 360 c 1,8,9
 277 346 277 346 280 318 c 1,10,11
 257 294 257 294 220 294 c 0,12,13
 201 294 201 294 138 309 c 1,14,15
 143 298 143 298 143 280 c 0,16,17
 143 271 143 271 141.5 252.5 c 128,-1,18
 140 234 140 234 140 225 c 0,19,20
 140 180 140 180 182 174 c 0,21,22
 197 172 197 172 216 172 c 0,23,24
 334 172 334 172 391 247 c 0,25,26
 421 286 421 286 421 342 c 0,27,28
 421 383 421 383 402 416 c 0,29,30
 361 488 361 488 292 481 c 0,31,32
 286 482 286 482 273 477 c 128,-1,33
 260 472 260 472 255 472 c 0,34,35
 246 472 246 472 241 481 c 1,36,37
 252 494 252 494 314 510 c 0,38,39
 366 524 366 524 366 553 c 0,40,41
 366 566 366 566 358 584 c 1,42,43
 354 607 354 607 340 656 c 1,44,45
 299 646 299 646 233 620 c 2,46,-1
 124 578 l 1,47,-1
 121 622 l 1,48,-1
 422 721 l 1,49,50
 461 610 461 610 468 472 c 0,51,52
 470 436 470 436 475 223 c 1,53,-1
 300 163 l 2,54,55
 204 131 204 131 121 116 c 1,56,57
 117 193 117 193 117 263 c 0,58,59
 117 381 117 381 129 480 c 1,0,1
160 286 m 1,60,61
 194 276 194 276 219 276 c 0,62,63
 254 276 254 276 283 296 c 0,64,65
 297 306 297 306 297 321 c 0,66,67
 297 326 297 326 294 336.5 c 128,-1,68
 291 347 291 347 291 352 c 0,69,70
 291 361 291 361 304 363 c 1,71,72
 311 360 311 360 323 370.5 c 128,-1,73
 335 381 335 381 341 382 c 0,74,75
 366 385 366 385 370 393 c 1,76,77
 377 390 377 390 376 385 c 1,78,-1
 384 388 l 1,79,-1
 381 392 l 1,80,-1
 387 387 l 1,81,-1
 393 398 l 1,82,83
 405 375 405 375 405 347 c 0,84,85
 405 310 405 310 384 265 c 1,86,87
 359 228 359 228 311 207 c 0,88,89
 268 188 268 188 219 188 c 0,90,91
 196 188 196 188 175 193 c 1,92,93
 161 207 161 207 160 237 c 2,94,95
 160 237 160 237 160 286 c 1,60,61
290 362 m 1,96,-1
 288 363 l 1,97,-1
 287 361 l 1,98,-1
 289 360 l 1,99,-1
 290 362 l 1,96,-1
151 422 m 1,100,-1
 149 423 l 1,101,-1
 147 418 l 1,102,-1
 150 417 l 1,103,-1
 151 422 l 1,100,-1
326 374 m 1,104,-1
 323 372 l 1,105,-1
 322 375 l 1,106,-1
 326 374 l 1,104,-1
136 566 m 1,107,108
 149 567 149 567 172 578.5 c 128,-1,109
 195 590 195 590 206 592 c 2,110,-1
 323 636 l 1,111,112
 336 604 336 604 346 542 c 1,113,114
 338 536 338 536 268 514 c 0,115,116
 217 498 217 498 221 467 c 2,117,-1
 222 463 l 1,118,-1
 203 454 l 1,119,-1
 217 449 l 1,120,121
 195 450 195 450 183 443 c 0,122,123
 180 442 180 442 180 440 c 256,124,125
 180 438 180 438 184 437 c 1,126,127
 179 439 179 439 168 436 c 128,-1,128
 157 433 157 433 154 433 c 0,129,130
 143 433 143 433 143 451 c 0,131,132
 138 490 138 490 136 566 c 1,107,108
175 443 m 1024,133,-1
194 436 m 1,134,-1
 189 438 l 1,135,-1
 187 433 l 1,136,-1
 192 431 l 1,137,-1
 194 436 l 1,134,-1
203 438 m 1,138,-1
 198 440 l 1,139,-1
 196 435 l 1,140,-1
 201 434 l 1,141,-1
 203 438 l 1,138,-1
213 437 m 1,142,-1
 208 439 l 1,143,-1
 207 437 l 1,144,-1
 212 435 l 1,145,-1
 213 437 l 1,142,-1
200 453 m 1,146,-1
 194 452 l 1,147,-1
 193 455 l 1,148,-1
 200 453 l 1,146,-1
EndSplineSet
Validated: 37
EndChar

StartChar: six
Encoding: 54 54 19
Width: 592
Flags: W
LayerCount: 2
Back
Fore
SplineSet
459 130 m 0,0,1
 459 91 459 91 423 51 c 0,2,3
 392 22 392 22 360 -7 c 1,4,5
 325 -27 325 -27 288 -27 c 0,6,7
 245 -27 245 -27 181 6 c 1,8,9
 133 58 133 58 132 146 c 0,10,11
 132 184 132 184 143 219 c 0,12,13
 162 282 162 282 212 353 c 0,14,15
 222 367 222 367 308 477 c 1,16,-1
 277 511 l 1,17,18
 306 530 306 530 346 530 c 0,19,20
 388 530 388 530 456 504 c 1,21,22
 375 492 375 492 309 438 c 0,23,24
 238 380 238 380 224 301 c 1,25,26
 351 310 351 310 408 239 c 0,27,28
 459 174 459 174 459 130 c 0,0,1
389 83 m 1,29,-1
 323 47 l 1,30,31
 321 53 321 53 321 60 c 0,32,33
 321 81 321 81 339.5 121 c 128,-1,34
 358 161 358 161 358 186 c 0,35,36
 358 199 358 199 354 212 c 0,37,38
 347 241 347 241 308 248 c 0,39,40
 248 259 248 259 245 261 c 0,41,42
 165 218 165 218 167 68 c 1,43,44
 184 29 184 29 230 22 c 0,45,46
 292 13 292 13 308 2 c 1,47,48
 395 22 395 22 389 83 c 1,29,-1
EndSplineSet
Validated: 33
EndChar

StartChar: seven
Encoding: 55 55 20
Width: 592
Flags: W
LayerCount: 2
Back
Fore
SplineSet
541 661 m 0,0,1
 534 639 534 639 463 474 c 1,2,3
 447 397 447 397 412.5 298 c 128,-1,4
 378 199 378 199 362 122 c 1,5,6
 346 101 346 101 329 101 c 0,7,8
 324 101 324 101 304.5 106.5 c 128,-1,9
 285 112 285 112 270 110 c 0,10,11
 229 101 229 101 218 101 c 0,12,13
 197 101 197 101 149 107 c 1,14,15
 136 114 136 114 124 122 c 0,16,17
 109 131 109 131 106 144 c 1,18,-1
 111 163 l 1,19,20
 89 363 89 363 54 543 c 1,21,22
 54 589 54 589 48 645 c 128,-1,23
 42 701 42 701 42 747 c 1,24,-1
 103 800 l 1,25,26
 212 796 212 796 320.5 791.5 c 128,-1,27
 429 787 429 787 529 775 c 1,28,29
 551 748 551 748 551 734 c 0,30,31
 551 729 551 729 545.5 713 c 128,-1,32
 540 697 540 697 540 679 c 0,33,34
 540 670 540 670 541 661 c 0,0,1
435 662 m 1,35,-1
 428 687 l 1,36,37
 361 680 361 680 254 680 c 0,38,39
 89 681 89 681 76 680 c 1,40,41
 76 684 76 684 75 651 c 0,42,43
 75 633 75 633 81 624 c 1,44,-1
 347 631 l 1,45,-1
 360 617 l 1,46,47
 328 540 328 540 266 403 c 0,48,49
 198 254 198 254 171 189 c 1,50,-1
 246 189 l 1,51,52
 269 259 269 259 344 424 c 0,53,54
 410 572 410 572 435 662 c 1,35,-1
EndSplineSet
Validated: 33
EndChar

StartChar: eight
Encoding: 56 56 21
Width: 592
Flags: W
LayerCount: 2
Back
Fore
SplineSet
203 439 m 1,0,1
 178 476 178 476 178 520 c 0,2,3
 178 538 178 538 183 556 c 0,4,5
 195 605 195 605 235 636 c 128,-1,6
 275 667 275 667 325 667 c 0,7,8
 343 667 343 667 360 663 c 0,9,10
 410 650 410 650 441 610.5 c 128,-1,11
 472 571 472 571 472 521 c 0,12,13
 472 505 472 505 468 489 c 1,14,-1
 378 512 l 1,15,-1
 383 534 l 1,16,-1
 415 526 l 1,17,18
 413 562 413 562 387 586.5 c 128,-1,19
 361 611 361 611 325 611 c 0,20,21
 287 611 287 611 260.5 584 c 128,-1,22
 234 557 234 557 234 520 c 0,23,24
 234 480 234 480 264 453 c 1,25,26
 308 454 308 454 344 432 c 1,27,28
 395 443 395 443 411 492 c 1,29,-1
 466 478 l 1,30,31
 447 416 447 416 389 388 c 1,32,33
 414 351 414 351 414 307 c 0,34,35
 414 289 414 289 409 271 c 0,36,37
 397 222 397 222 357 191 c 128,-1,38
 317 160 317 160 267 160 c 0,39,40
 249 160 249 160 231 164 c 0,41,42
 179 177 179 177 148 220 c 128,-1,43
 117 263 117 263 120 315 c 1,44,-1
 174 302 l 1,45,46
 176 265 176 265 202.5 241 c 128,-1,47
 229 217 229 217 265 217 c 0,48,49
 303 217 303 217 330 242.5 c 128,-1,50
 357 268 357 268 357 305 c 0,51,52
 357 343 357 343 329.5 370.5 c 128,-1,53
 302 398 302 398 264 398 c 0,54,55
 235 398 235 398 210.5 380 c 128,-1,56
 186 362 186 362 178 333 c 1,57,-1
 126 346 l 1,58,59
 143 410 143 410 203 439 c 1,0,1
EndSplineSet
Validated: 33
EndChar

StartChar: nine
Encoding: 57 57 22
Width: 592
Flags: W
LayerCount: 2
Back
Fore
SplineSet
289 557 m 1,0,1
 284 551 284 551 274 552 c 0,2,3
 258 552 258 552 256 552 c 2,4,-1
 249 559 l 1,5,6
 278 565 278 565 289 557 c 1,0,1
317 519 m 1,7,8
 308 512 308 512 287 517 c 1,9,-1
 282 522 l 1,10,11
 287 527 287 527 291 527 c 0,12,13
 293 527 293 527 298 525 c 128,-1,14
 303 523 303 523 306 523 c 256,15,16
 309 523 309 523 312 524 c 2,17,-1
 317 519 l 1,7,8
433 519 m 1,18,19
 428 517 428 517 428.5 507.5 c 128,-1,20
 429 498 429 498 424 496 c 1,21,22
 426 478 426 478 412 455 c 0,23,24
 397 429 397 429 396 417 c 1,25,26
 368 376 368 376 337 350 c 0,27,28
 283 303 283 303 275 296 c 0,29,30
 233 276 233 276 168 249 c 1,31,32
 166 255 166 255 166 259 c 0,33,34
 166 262 166 262 168 268 c 1,35,36
 207 272 207 272 263 324 c 0,37,38
 309 368 309 368 335 410 c 1,39,40
 335 422 335 422 347.5 441 c 128,-1,41
 360 460 360 460 360 473 c 0,42,43
 360 477 360 477 359 482 c 0,44,45
 359 485 359 485 363 491 c 128,-1,46
 367 497 367 497 367 499 c 0,47,48
 367 503 367 503 359 505 c 0,49,50
 356 504 356 504 349 510 c 1,51,52
 351 514 351 514 357 515 c 0,53,54
 361 515 361 515 366 515 c 1,55,56
 370 526 370 526 370 568 c 0,57,58
 375 626 375 626 326 668 c 1,59,60
 306 678 306 678 284 678 c 0,61,62
 245 678 245 678 229 645 c 1,63,64
 206 619 206 619 206 595 c 0,65,66
 206 574 206 574 219 540 c 1,67,-1
 240 536 l 1,68,69
 238 530 238 530 230 528 c 128,-1,70
 222 526 222 526 222 521 c 0,71,72
 222 519 222 519 224 515 c 0,73,74
 229 506 229 506 246 504 c 128,-1,75
 263 502 263 502 268 494 c 1,76,77
 263 493 263 493 256 487 c 1,78,79
 277 469 277 469 312 473 c 1,80,81
 314 478 314 478 320 478 c 0,82,83
 330 477 330 477 331 478 c 2,84,-1
 335 473 l 2,85,86
 333 471 333 471 325 461.5 c 128,-1,87
 317 452 317 452 310 452 c 0,88,89
 307 452 307 452 303 454 c 1,90,91
 301 449 301 449 293.5 449.5 c 128,-1,92
 286 450 286 450 284 445 c 0,93,94
 280 444 280 444 275 444 c 0,95,96
 268 444 268 444 255 449.5 c 128,-1,97
 242 455 242 455 233 454 c 1,98,99
 233 454 233 454 222 461 c 0,100,101
 216 466 216 466 210 464 c 1,102,103
 199 472 199 472 183.5 492.5 c 128,-1,104
 168 513 168 513 159 519 c 1,105,106
 157 515 157 515 145 515 c 0,107,108
 140 517 140 517 140 526.5 c 128,-1,109
 140 536 140 536 136 538 c 1,110,111
 141 545 141 545 140.5 563.5 c 128,-1,112
 140 582 140 582 145 589 c 1,113,114
 150 578 150 578 150 564 c 0,115,116
 150 549 150 549 145 538 c 0,117,118
 145 533 145 533 145 528 c 0,119,120
 146 523 146 523 152 524 c 0,121,122
 156 523 156 523 163 526 c 1,123,124
 159 529 159 529 159 537 c 128,-1,125
 159 545 159 545 154 547 c 1,126,127
 154 547 154 547 155 577 c 0,128,129
 155 595 155 595 145 603 c 1,130,-1
 145 687 l 1,131,132
 149 689 149 689 149 701 c 1,133,-1
 145 705 l 1,134,-1
 152 713 l 1,135,136
 156 708 156 708 161 703 c 128,-1,137
 166 698 166 698 171 699 c 0,138,139
 174 699 174 699 180 701 c 1,140,141
 180 701 180 701 184 694 c 1,142,143
 180 693 180 693 172 691 c 1,144,145
 169 697 169 697 161 696 c 1,146,147
 158 675 158 675 158 652 c 256,148,149
 158 629 158 629 161 608 c 1,150,151
 165 625 165 625 181 647 c 0,152,153
 196 664 196 664 210 682 c 0,154,155
 212 687 212 687 247 699 c 0,156,157
 265 706 265 706 283 712 c 0,158,159
 310 715 310 715 332 705 c 0,160,161
 351 693 351 693 370 682 c 0,162,163
 372 681 372 681 399 656 c 0,164,165
 412 644 412 644 419 626 c 0,166,167
 424 621 424 621 423.5 607.5 c 128,-1,168
 423 594 423 594 428 589 c 0,169,170
 427 585 427 585 427 581 c 0,171,172
 427 576 427 576 430 567 c 128,-1,173
 433 558 433 558 433 554 c 0,174,175
 433 548 433 548 428 542 c 1,176,177
 434 527 434 527 433 519 c 1,18,19
515 625 m 2,178,-1
 500 594 l 1,179,180
 495 567 495 567 490 546 c 0,181,182
 477 496 477 496 462 484 c 1,183,184
 456 442 456 442 436 371 c 0,185,186
 413 287 413 287 396 262 c 1,187,188
 397 255 397 255 381.5 209 c 128,-1,189
 366 163 366 163 360 158 c 1,190,191
 361 147 361 147 348.5 124 c 128,-1,192
 336 101 336 101 323 79 c 0,193,194
 316 74 316 74 256 108 c 0,195,196
 219 130 219 130 182 152 c 0,197,198
 175 153 175 153 142 172 c 128,-1,199
 109 191 109 191 108 196 c 0,200,201
 95 203 95 203 70 217 c 1,202,203
 72 221 72 221 80 220 c 0,204,205
 88 218 88 218 91 214 c 1,206,207
 94 217 94 217 107 210 c 128,-1,208
 120 203 120 203 124 198 c 1,209,210
 125 200 125 200 156.5 182 c 128,-1,211
 188 164 188 164 193 159 c 1,212,213
 209 166 209 166 212 164 c 0,214,215
 220 164 220 164 235 166 c 0,216,217
 238 164 238 164 319 147 c 1,218,219
 318 141 318 141 323.5 140.5 c 128,-1,220
 329 140 329 140 329 139 c 0,221,222
 329 136 329 136 322 129 c 1,223,224
 316 133 316 133 298 133 c 128,-1,225
 280 133 280 133 275 143 c 1,226,227
 270 143 270 143 257 147.5 c 128,-1,228
 244 152 244 152 236 152 c 0,229,230
 230 152 230 152 224 150 c 1,231,232
 229 133 229 133 256 124 c 1,233,-1
 292 105 l 1,234,235
 300 90 300 90 313 90 c 0,236,237
 317 90 317 90 322 91 c 0,238,239
 334 113 334 113 345 146 c 0,240,241
 357 185 357 185 354 203 c 1,242,-1
 352 205 l 1,243,244
 359 209 359 209 361 222 c 0,245,246
 363 222 363 222 366 219 c 1,247,248
 375 235 375 235 384 271 c 1,249,250
 390 274 390 274 389 282 c 1,251,-1
 387 284 l 1,252,253
 393 285 393 285 395 293.5 c 128,-1,254
 397 302 397 302 403 303 c 1,255,256
 401 312 401 312 401 331 c 1,257,258
 408 332 408 332 408 340 c 0,259,260
 407 354 407 354 406.5 354.5 c 128,-1,261
 406 355 406 355 380 356 c 0,262,263
 380 360 380 360 375.5 361 c 128,-1,264
 371 362 371 362 370 364 c 1,265,266
 383 364 383 364 406 366 c 0,267,268
 415 368 415 368 419 375 c 1,269,270
 418 394 418 394 442 459 c 1,271,272
 439 468 439 468 439 478 c 0,273,274
 439 513 439 513 480 566 c 1,275,276
 480 581 480 581 493 611 c 0,277,278
 505 638 505 638 503 652 c 1,279,280
 508 654 508 654 512.5 664 c 128,-1,281
 517 674 517 674 521 678 c 1,282,283
 534 672 534 672 515 625 c 2,178,-1
259 377 m 257,284,285
 259 377 259 377 249 375 c 1,286,287
 250 376 250 376 245 382 c 1,288,289
 243 380 243 380 241 380 c 0,290,291
 240 380 240 380 237 383.5 c 128,-1,292
 234 387 234 387 231 387 c 1,293,294
 233 393 233 393 252 394 c 1,295,296
 252 394 252 394 267 387 c 0,297,298
 276 382 276 382 284 385 c 1,299,-1
 277 371 l 2,300,301
 277 373 277 373 268 375 c 128,-1,302
 259 377 259 377 259 377 c 257,284,285
136 468 m 1,303,-1
 133 466 l 1,304,305
 131 470 131 470 131 475 c 0,306,307
 131 481 131 481 133 484 c 1,308,309
 134 479 134 479 136 468 c 1,303,-1
184 401 m 1,310,311
 182 395 182 395 166 394 c 0,312,313
 166 393 166 393 159 403 c 1,314,315
 151 401 151 401 140 408 c 1,316,317
 146 413 146 413 149 412 c 0,318,319
 153 403 153 403 164 403 c 0,320,321
 173 403 173 403 182 403 c 1,322,-1
 184 401 l 1,310,311
126 431 m 1,323,-1
 124 429 l 2,324,325
 121 430 121 430 121 433 c 0,326,327
 121 437 121 437 124 438 c 0,328,329
 126 437 126 437 126 431 c 1,323,-1
126 410 m 1,330,-1
 124 408 l 1,331,-1
 122 410 l 1,332,-1
 124 412 l 1,333,-1
 126 410 l 1,330,-1
298 208 m 1,334,335
 292 202 292 202 289 203 c 2,336,-1
 287 205 l 1,337,-1
 294 213 l 1,338,-1
 298 208 l 1,334,335
EndSplineSet
Validated: 33
EndChar

StartChar: colon
Encoding: 58 58 23
Width: 349
Flags: W
LayerCount: 2
Back
Fore
SplineSet
282 20 m 1,0,1
 206 39 206 39 156 39 c 0,2,3
 122 39 122 39 80 32 c 1,4,5
 49 185 49 185 55 512 c 1,6,-1
 253 471 l 1,7,8
 251 431 251 431 251 388 c 0,9,10
 251 296 251 296 264 177 c 0,11,12
 273 98 273 98 282 20 c 1,0,1
207 413 m 1,13,14
 196 429 196 429 170 443.5 c 128,-1,15
 144 458 144 458 124 458 c 0,16,17
 115 458 115 458 109 455 c 0,18,19
 109 453 109 453 119 443 c 128,-1,20
 129 433 129 433 129 427 c 256,21,22
 129 421 129 421 119 416 c 1,23,24
 96 376 96 376 96 351 c 0,25,26
 96 327 96 327 116 320 c 1,27,28
 131 299 131 299 154 299 c 0,29,30
 179 299 179 299 201.5 323.5 c 128,-1,31
 224 348 224 348 224 375 c 0,32,33
 224 398 224 398 207 413 c 1,13,14
234 112 m 0,34,35
 241 148 241 148 241 164 c 0,36,37
 241 206 241 206 185 226 c 0,38,39
 174 230 174 230 152 227 c 0,40,41
 128 223 128 223 112 214 c 1,42,43
 135 197 135 197 135 187 c 0,44,45
 135 181 135 181 116 169.5 c 128,-1,46
 97 158 97 158 96 145 c 0,47,48
 98 106 98 106 99 103 c 0,49,50
 101 94 101 94 119 81 c 1,51,-1
 173 78 l 2,52,53
 195 77 195 77 215 89 c 0,54,55
 232 100 232 100 234 112 c 0,34,35
EndSplineSet
Validated: 33
EndChar

StartChar: question
Encoding: 63 63 24
Width: 798
Flags: W
LayerCount: 2
Back
Fore
SplineSet
807 636 m 1,0,1
 774 535 774 535 669 484 c 0,2,3
 623 462 623 462 442 408 c 0,4,5
 288 362 288 362 223 313 c 0,6,7
 128 241 128 241 137 121 c 0,8,9
 140 117 140 117 140 113 c 0,10,11
 140 105 140 105 130 93 c 0,12,13
 119 78 119 78 117 74 c 128,-1,14
 115 70 115 70 93 70 c 1,15,16
 54 129 54 129 54 186 c 0,17,18
 54 234 54 234 82 273 c 0,19,20
 144 359 144 359 269 416 c 0,21,22
 324 441 324 441 503 498 c 0,23,24
 655 546 655 546 731 596 c 1,25,26
 731 606 731 606 734.5 626.5 c 128,-1,27
 738 647 738 647 738 657 c 0,28,29
 738 694 738 694 710 712 c 1,30,31
 574 715 574 715 400 634 c 0,32,33
 330 601 330 601 118 476 c 1,34,35
 120 465 120 465 109 457.5 c 128,-1,36
 98 450 98 450 87 444 c 1,37,38
 57 459 57 459 57 480 c 1,39,40
 102 565 102 565 218 636 c 0,41,42
 302 688 302 688 422 733 c 0,43,44
 599 800 599 800 675 800 c 0,45,46
 740 800 740 800 786 763 c 0,47,48
 787 761 787 761 808 720 c 0,49,50
 822 693 822 693 822 673 c 256,51,52
 822 653 822 653 807 636 c 1,0,1
122 -84 m 0,53,54
 122 -91 122 -91 109 -110.5 c 128,-1,55
 96 -130 96 -130 96 -140 c 0,56,57
 96 -145 96 -145 97 -149 c 0,58,59
 88 -161 88 -161 66 -176 c 128,-1,60
 44 -191 44 -191 36 -200 c 1,61,62
 22 -197 22 -197 0 -179 c 1,63,64
 -1 -163 -1 -163 -1 -149 c 0,65,66
 -1 -113 -1 -113 6 -92 c 1,67,68
 42 -57 42 -57 75 -57 c 0,69,70
 88 -57 88 -57 105 -65 c 128,-1,71
 122 -73 122 -73 122 -84 c 0,53,54
EndSplineSet
Validated: 33
EndChar

StartChar: at
Encoding: 64 64 25
Width: 648
Flags: W
LayerCount: 2
Back
Fore
SplineSet
595 401 m 1,0,1
 602 372 602 372 602 346 c 0,2,3
 602 248 602 248 519 232 c 1,4,5
 497 241 497 241 474 241 c 0,6,7
 442 241 442 241 380.5 214.5 c 128,-1,8
 319 188 319 188 292 188 c 0,9,10
 251 188 251 188 215 224 c 1,11,12
 195 251 195 251 195 283 c 0,13,14
 195 317 195 317 229 392 c 1,15,16
 254 415 254 415 292 415 c 0,17,18
 304 415 304 415 328.5 412 c 128,-1,19
 353 409 353 409 365 409 c 0,20,21
 406 409 406 409 427 443 c 1,22,23
 445 422 445 422 445 385 c 0,24,25
 445 377 445 377 444 360.5 c 128,-1,26
 443 344 443 344 443 336 c 0,27,28
 443 281 443 281 494 260 c 1,29,30
 528 259 528 259 550 277 c 128,-1,31
 572 295 572 295 572 328 c 0,32,33
 572 346 572 346 564 360 c 0,34,35
 539 428 539 428 470 468 c 0,36,37
 406 504 406 504 329 503 c 0,38,39
 286 503 286 503 233 480.5 c 128,-1,40
 180 458 180 458 146 427 c 1,41,42
 99 402 99 402 99 356 c 0,43,44
 99 343 99 343 103.5 316.5 c 128,-1,45
 108 290 108 290 108 277 c 0,46,47
 108 266 108 266 106 257 c 1,48,49
 135 194 135 194 201 159 c 0,50,51
 261 127 261 127 334 127 c 1,52,-1
 521 181 l 1,53,54
 526 172 526 172 526 164 c 0,55,56
 526 131 526 131 470 126 c 1,57,58
 396 99 396 99 318 99 c 0,59,60
 207 99 207 99 120 152 c 1,61,62
 55 222 55 222 55 307 c 0,63,64
 55 398 55 398 129 473 c 1,65,66
 203 507 203 507 232 518 c 0,67,68
 294 541 294 541 341 541 c 0,69,70
 362 541 362 541 383 537 c 0,71,72
 509 499 509 499 595 401 c 1,0,1
391 281 m 0,73,74
 396 291 396 291 395 299 c 0,75,76
 395 324 395 324 357 351 c 2,77,-1
 303 389 l 1,78,-1
 256 313 l 2,79,80
 251 302 251 302 251 292 c 0,81,82
 251 251 251 251 312 245 c 1,83,84
 347 253 347 253 355 256 c 0,85,86
 377 265 377 265 391 281 c 0,73,74
EndSplineSet
Validated: 33
EndChar

StartChar: A
Encoding: 65 65 26
Width: 923
Flags: W
LayerCount: 2
Back
Fore
SplineSet
762 594 m 0,0,1
 753 594 753 594 753 598 c 2,2,-1
 753 605 l 1,3,4
 765 603 765 603 765 598 c 0,5,6
 764 596 764 596 762 594 c 0,0,1
729 549 m 1,7,8
 722 545 722 545 722 544 c 1,9,10
 719 545 719 545 719 551 c 1,11,-1
 729 549 l 1,7,8
812 639 m 1,12,13
 767 629 767 629 679 612 c 1,14,15
 689 589 689 589 691 534.5 c 128,-1,16
 693 480 693 480 708 455 c 1,17,18
 709 436 709 436 721 404 c 0,19,20
 733 369 733 369 735 353 c 1,21,22
 725 360 725 360 719 390 c 0,23,24
 714 415 714 415 700 415 c 0,25,26
 694 415 694 415 685 411 c 2,27,-1
 655 405 l 1,28,29
 652 424 652 424 633 477 c 0,30,31
 617 523 617 523 617 549 c 0,32,33
 617 579 617 579 634 603 c 1,34,35
 712 644 712 644 773 644 c 0,36,37
 793 644 793 644 812 639 c 1,12,13
756 353 m 2,38,-1
 756 365 l 2,39,40
 758 363 758 363 758 359 c 256,41,42
 758 355 758 355 756 353 c 2,38,-1
986 752 m 0,43,44
 989 751 989 751 989 749 c 256,45,46
 989 747 989 747 972.5 730.5 c 128,-1,47
 956 714 956 714 959 709 c 1,48,49
 952 708 952 708 949 700.5 c 128,-1,50
 946 693 946 693 943 693 c 256,51,52
 940 693 940 693 931 697 c 0,53,54
 900 701 900 701 876 675.5 c 128,-1,55
 852 650 852 650 840 650 c 0,56,57
 831 650 831 650 820 654 c 0,58,59
 788 659 788 659 759 659 c 0,60,61
 654 659 654 659 600 591 c 1,62,63
 595 509 595 509 647 382 c 1,64,65
 665 385 665 385 697 400 c 1,66,67
 735 328 735 328 733 286 c 1,68,69
 711 282 711 282 672 265 c 1,70,71
 673 264 673 264 685 220 c 0,72,73
 693 192 693 192 703 182 c 1,74,75
 708 184 708 184 711 205 c 1,76,77
 703 212 703 212 702 232.5 c 128,-1,78
 701 253 701 253 697 259 c 1,79,80
 704 259 704 259 716 265 c 2,81,-1
 729 272 l 1,82,83
 730 267 730 267 730 260 c 0,84,85
 730 247 730 247 724 220.5 c 128,-1,86
 718 194 718 194 718 181 c 0,87,88
 718 161 718 161 729 151 c 1,89,90
 722 149 722 149 718.5 157.5 c 128,-1,91
 715 166 715 166 712 166 c 256,92,93
 709 166 709 166 706 164 c 0,94,95
 705 152 705 152 711.5 131 c 128,-1,96
 718 110 718 110 718 100 c 0,97,98
 718 89 718 89 713 79 c 1,99,100
 713 86 713 86 702.5 96.5 c 128,-1,101
 692 107 692 107 690 111 c 1,102,-1
 681 111 l 2,103,104
 681 112 681 112 679 115 c 0,105,106
 673 114 673 114 664.5 100 c 128,-1,107
 656 86 656 86 650 86 c 0,108,109
 646 86 646 86 641 90 c 1,110,111
 643 97 643 97 635 97 c 2,112,-1
 623 97 l 1,113,-1
 621 95 l 1,114,-1
 625 90 l 1,115,116
 623 85 623 85 617 85 c 0,117,118
 614 85 614 85 608.5 86.5 c 128,-1,119
 603 88 603 88 600 88 c 0,120,121
 591 88 591 88 587 79 c 1,122,123
 586 81 586 81 586 83 c 256,124,125
 586 85 586 85 587.5 89.5 c 128,-1,126
 589 94 589 94 589 96 c 0,127,128
 589 102 589 102 580 102 c 1,129,130
 578 93 578 93 564 82.5 c 128,-1,131
 550 72 550 72 546 66 c 1,132,133
 563 58 563 58 585 58 c 0,134,135
 603 58 603 58 637.5 64.5 c 128,-1,136
 672 71 672 71 690 71 c 0,137,138
 701 71 701 71 711 70 c 1,139,-1
 713 72 l 1,140,-1
 716 58 l 2,141,142
 719 50 719 50 713 45 c 1,143,144
 691 50 691 50 666 50 c 0,145,146
 623 50 623 50 546 32 c 1,147,148
 540 44 540 44 535 49 c 0,149,150
 528 59 528 59 520 61 c 0,151,152
 510 60 510 60 512 47 c 0,153,154
 516 40 516 40 544 12 c 1,155,156
 677 34 677 34 714 32 c 1,157,158
 717 27 717 27 717 20 c 0,159,160
 717 14 717 14 714 2 c 128,-1,161
 711 -10 711 -10 711 -16 c 0,162,163
 711 -21 711 -21 713 -24 c 1,164,165
 690 -19 690 -19 668 -19 c 0,166,167
 619 -19 619 -19 564 -46 c 0,168,169
 550 -54 550 -54 472 -99 c 1,170,171
 468 -118 468 -118 355 -155 c 1,172,173
 287 -204 287 -204 101 -200 c 0,174,175
 96 -197 96 -197 86 -197 c 0,176,177
 83 -197 83 -197 77 -198 c 2,178,-1
 68 -198 l 2,179,180
 47 -198 47 -198 37 -156 c 0,181,182
 31 -120 31 -120 25 -85 c 1,183,184
 26 -86 26 -86 28 -86 c 0,185,186
 32 -86 32 -86 38 -80 c 0,187,188
 51 -49 51 -49 52 -48 c 0,189,190
 63 -30 63 -30 79 -27 c 1,191,192
 89 -20 89 -20 102 -20 c 0,193,194
 109 -20 109 -20 133 -28 c 0,195,196
 154 -34 154 -34 162 -31 c 1,197,198
 134 -8 134 -8 96 -8 c 0,199,200
 57 -8 57 -8 41 -33.5 c 128,-1,201
 25 -59 25 -59 21 -62 c 1,202,203
 19 -51 19 -51 9 -10 c 0,204,205
 0 23 0 23 0 43 c 1,206,207
 4 47 4 47 10 47 c 0,208,209
 15 47 15 47 25 43 c 128,-1,210
 35 39 35 39 40 39 c 0,211,212
 44 39 44 39 48 41 c 1,213,214
 56 32 56 32 81 25 c 0,215,216
 112 17 112 17 119 13.5 c 128,-1,217
 126 10 126 10 150 -10 c 0,218,219
 169 -26 169 -26 183 -29 c 1,220,-1
 186 -24 l 1,221,-1
 184 -22 l 1,222,223
 187 -19 187 -19 189 -20 c 0,224,225
 191 -24 191 -24 190 -33 c 256,226,227
 189 -42 189 -42 190 -46 c 0,228,229
 192 -52 192 -52 200 -51 c 1,230,231
 200 -53 200 -53 205 -58 c 1,232,233
 212 -56 212 -56 216 -45 c 0,234,235
 223 -13 223 -13 268 81 c 0,236,237
 306 160 306 160 306 209 c 1,238,239
 313 258 313 258 327 357 c 0,240,241
 337 432 337 432 337 498 c 0,242,243
 337 567 337 567 324 628 c 0,244,245
 325 631 325 631 336 634.5 c 128,-1,246
 347 638 347 638 344 646 c 1,247,-1
 340 646 l 2,248,249
 342 649 342 649 342 665 c 1,250,251
 423 703 423 703 596 755 c 0,252,253
 598 756 598 756 598 758 c 256,254,255
 598 760 598 760 597 762 c 128,-1,256
 596 764 596 764 594 766 c 2,257,-1
 602 776 l 1,258,-1
 605 760 l 1,259,260
 755 800 755 800 891 800 c 0,261,262
 921 800 921 800 950 798 c 1,263,264
 958 791 958 791 977 785 c 0,265,266
 988 782 988 782 988 769 c 0,267,268
 988 762 988 762 986 752 c 0,43,44
691 96 m 1,269,-1
 688 96 l 1,270,-1
 688 100 l 1,271,-1
 691 100 l 1,272,-1
 691 96 l 1,269,-1
691 85 m 1,273,-1
 688 85 l 1,274,-1
 688 88 l 1,275,-1
 691 88 l 1,276,-1
 691 85 l 1,273,-1
265 103 m 2,277,278
 266 102 266 102 263 100 c 0,279,280
 262 99 262 99 258 102 c 2,281,-1
 265 103 l 2,277,278
913 744 m 1,282,283
 880 754 880 754 845 754 c 0,284,285
 758 754 758 754 611 670 c 0,286,287
 608 670 608 670 605 665 c 0,288,289
 603 661 603 661 605 659 c 0,290,291
 620 658 620 658 641 672 c 0,292,293
 667 689 667 689 674 691 c 0,294,295
 745 733 745 733 843 742 c 1,296,-1
 843 740 l 1,297,298
 851 737 851 737 865 744 c 1,299,-1
 879 731 l 1,300,-1
 841 692 l 1,301,302
 829 692 829 692 805 693.5 c 128,-1,303
 781 695 781 695 769 695 c 0,304,305
 718 695 718 695 688 665 c 1,306,307
 730 679 730 679 767 679 c 0,308,309
 783 679 783 679 798 676 c 1,310,311
 813 667 813 667 827 667 c 0,312,313
 849 667 849 667 873 698 c 0,314,315
 905 739 905 739 913 744 c 1,282,283
978 766 m 1,316,317
 922 789 922 789 862 789 c 0,318,319
 767 789 767 789 651 732 c 0,320,321
 586 698 586 698 454 630 c 1,322,323
 509 638 509 638 646 713 c 0,324,325
 770 781 770 781 850 781 c 0,326,327
 900 781 900 781 949 760 c 1,328,-1
 965 760 l 2,329,330
 974 759 974 759 978 766 c 1,316,317
670 657 m 1,331,-1
 670 659 l 1,332,-1
 663 659 l 1,333,-1
 663 657 l 1,334,-1
 670 657 l 1,331,-1
683 600 m 1,335,-1
 683 603 l 1,336,-1
 679 603 l 1,337,-1
 679 600 l 1,338,-1
 683 600 l 1,335,-1
669 595 m 1,339,-1
 669 598 l 1,340,-1
 666 598 l 1,341,-1
 666 595 l 1,342,-1
 669 595 l 1,339,-1
610 647 m 1,343,-1
 605 646 l 1,344,-1
 607 646 l 1,345,-1
 610 647 l 1,343,-1
656 601 m 2,346,-1
 647 601 l 1,347,-1
 647 598 l 1,348,349
 656 600 656 600 656 601 c 2,346,-1
598 647 m 1,350,351
 592 651 592 651 586 651 c 0,352,353
 577 651 577 651 554 635 c 128,-1,354
 531 619 531 619 517 620 c 1,355,356
 509 609 509 609 482 599.5 c 128,-1,357
 455 590 455 590 448 583 c 1,358,359
 441 587 441 587 443 591 c 1,360,361
 441 590 441 590 438 590 c 0,362,363
 434 590 434 590 432 594 c 1,364,365
 439 599 439 599 441 598 c 1,366,367
 434 594 434 594 434 612 c 1,368,369
 426 623 426 623 405 620 c 0,370,371
 384 620 384 620 380 601 c 1,372,-1
 391 580 l 1,373,374
 409 575 409 575 428 575 c 0,375,376
 467 575 467 575 517 602 c 0,377,378
 544 617 544 617 598 647 c 1,350,351
511 550 m 1,379,-1
 511 553 l 1,380,-1
 508 553 l 1,381,-1
 508 550 l 1,382,-1
 511 550 l 1,379,-1
627 317 m 1,383,384
 617 340 617 340 610 389 c 128,-1,385
 603 438 603 438 594 461 c 1,386,-1
 584 463 l 1,387,-1
 589 472 l 2,388,389
 587 473 587 473 582 477 c 1,390,-1
 589 484 l 1,391,392
 589 497 589 497 581 525.5 c 128,-1,393
 573 554 573 554 573 569 c 0,394,395
 573 598 573 598 594 617 c 1,396,397
 571 609 571 609 565 584 c 0,398,399
 557 551 557 551 551 544 c 1,400,401
 553 522 553 522 565 522 c 0,402,403
 568 519 568 519 566 515 c 256,404,405
 564 511 564 511 562 508 c 0,406,407
 569 503 569 503 569 492 c 0,408,409
 569 471 569 471 568 472 c 1,410,411
 577 470 577 470 584 443 c 1,412,-1
 584 452 l 1,413,-1
 587 452 l 2,414,415
 593 449 593 449 591 441 c 0,416,417
 586 435 586 435 582 437 c 1,418,419
 582 431 582 431 587 418 c 1,420,421
 594 420 594 420 598 414 c 0,422,423
 599 412 599 412 594 405 c 1,424,425
 604 399 604 399 604 393 c 0,426,427
 604 388 604 388 598 382 c 1,428,429
 603 371 603 371 610 373 c 0,430,431
 614 371 614 371 613 368 c 0,432,433
 611 362 611 362 611 360 c 1,434,435
 617 360 617 360 618 358 c 2,436,-1
 616 355 l 1,437,438
 616 340 616 340 621 336 c 1,439,440
 618 334 618 334 611 328 c 1,441,442
 623 324 623 324 621 317 c 1,443,-1
 627 317 l 1,383,384
483 544 m 1,444,-1
 483 546 l 1,445,-1
 479 546 l 1,446,-1
 479 544 l 1,447,-1
 483 544 l 1,444,-1
714 304 m 1,448,449
 714 315 714 315 706 330.5 c 128,-1,450
 698 346 698 346 697 353 c 0,451,452
 694 366 694 366 685 366 c 0,453,454
 682 366 682 366 674.5 364 c 128,-1,455
 667 362 667 362 663 362 c 0,456,457
 658 362 658 362 655 365 c 1,458,459
 653 360 653 360 653 354 c 0,460,461
 653 344 653 344 660 322.5 c 128,-1,462
 667 301 667 301 668 291 c 1,463,464
 677 289 677 289 691 295 c 0,465,466
 709 303 709 303 714 304 c 1,448,449
504 493 m 2,467,-1
 499 501 l 2,468,469
 498 502 498 502 494 500 c 1,470,471
 502 492 502 492 504 493 c 2,467,-1
449 524 m 1,472,473
 447 528 447 528 448 529 c 0,474,475
 457 540 457 540 457 548 c 256,476,477
 457 556 457 556 448 564 c 1,478,479
 441 543 441 543 441 532 c 0,480,481
 441 526 441 526 443 522 c 1,482,-1
 449 524 l 1,472,473
570 406 m 1,483,-1
 570 410 l 1,484,-1
 567 410 l 1,485,-1
 567 406 l 1,486,-1
 570 406 l 1,483,-1
510 463 m 1,487,-1
 504 461 l 1,488,-1
 508 461 l 1,489,-1
 510 463 l 1,487,-1
445 501 m 1,490,-1
 445 506 l 1,491,-1
 434 506 l 1,492,493
 434 506 434 506 436 497 c 0,494,495
 437 492 437 492 432 490 c 1,496,497
 421 457 421 457 421 450 c 0,498,499
 421 439 421 439 427 434 c 1,500,501
 427 437 427 437 432.5 442 c 128,-1,502
 438 447 438 447 438 449 c 0,503,504
 438 452 438 452 434 455 c 0,505,506
 435 457 435 457 434 470 c 0,507,508
 433 479 433 479 443 482 c 1,509,510
 441 484 441 484 441 489 c 1,511,-1
 441 489 l 1,512,513
 441 495 441 495 438 497 c 2,514,-1
 445 501 l 1,490,-1
655 219 m 1,515,516
 658 226 658 226 658 234 c 0,517,518
 658 245 658 245 639 283 c 0,519,520
 641 286 641 286 641 289 c 256,521,522
 641 292 641 292 637 299 c 128,-1,523
 633 306 633 306 634 310 c 1,524,525
 630 312 630 312 626 308 c 128,-1,526
 622 304 622 304 621 304 c 2,527,-1
 629 294 l 1,528,-1
 625 291 l 1,529,530
 641 269 641 269 643 216 c 1,531,532
 649 216 649 216 655 219 c 1,515,516
497 376 m 1,533,-1
 497 378 l 1,534,-1
 493 376 l 1,535,-1
 497 376 l 1,533,-1
499 468 m 1,536,537
 488 473 488 473 482 473 c 0,538,539
 474 473 474 473 474 463 c 0,540,541
 474 458 474 458 475.5 448 c 128,-1,542
 477 438 477 438 477 433 c 0,543,544
 477 415 477 415 465 407 c 1,545,546
 465 401 465 401 460 396.5 c 128,-1,547
 455 392 455 392 449 394 c 2,548,-1
 456 387 l 1,549,550
 441 372 441 372 432 376 c 1,551,552
 435 379 435 379 436 378 c 0,553,554
 435 376 435 376 432 376 c 0,555,556
 428 376 428 376 423.5 382 c 128,-1,557
 419 388 419 388 419 392 c 0,558,559
 419 399 419 399 427 403 c 0,560,561
 428 405 428 405 428 408 c 256,562,563
 428 411 428 411 424.5 417.5 c 128,-1,564
 421 424 421 424 422 429 c 1,565,566
 420 427 420 427 419 427 c 0,567,568
 413 411 413 411 405 378 c 1,569,570
 408 366 408 366 431 366 c 0,571,572
 466 367 466 367 465 367 c 1,573,574
 473 404 473 404 499 468 c 1,536,537
602 169 m 1,575,576
 588 187 588 187 579 228 c 0,577,578
 573 261 573 261 567 293 c 0,579,580
 564 294 564 294 560 304 c 0,581,582
 558 311 558 311 551 310 c 1,583,-1
 555 315 l 1,584,585
 550 338 550 338 539.5 382 c 128,-1,586
 529 426 529 426 508 455 c 1,587,-1
 580 191 l 1,588,589
 580 161 580 161 589 148 c 1,590,591
 594 150 594 150 594 152 c 0,592,593
 594 153 594 153 591 159 c 0,594,595
 589 164 589 164 591 167 c 2,596,-1
 602 169 l 1,575,576
666 203 m 0,597,598
 662 204 662 204 656 201 c 0,599,600
 654 199 654 199 654 195 c 0,601,602
 654 190 654 190 658 182 c 1,603,604
 670 184 670 184 670 194 c 0,605,606
 670 199 670 199 666 203 c 0,597,598
583 269 m 1,607,-1
 583 272 l 1,608,-1
 580 272 l 1,609,-1
 580 269 l 1,610,-1
 583 269 l 1,607,-1
651 199 m 1,611,-1
 651 203 l 1,612,-1
 647 203 l 1,613,-1
 647 199 l 1,614,-1
 651 199 l 1,611,-1
684 119 m 1,615,616
 686 133 686 133 670 180 c 1,617,618
 670 160 670 160 681 124 c 0,619,620
 678 121 678 121 679 119 c 2,621,-1
 684 119 l 1,615,616
628 188 m 1,622,-1
 628 191 l 1,623,-1
 625 191 l 1,624,-1
 625 188 l 1,625,-1
 628 188 l 1,622,-1
691 114 m 1,626,-1
 691 117 l 1,627,-1
 688 117 l 1,628,-1
 688 114 l 1,629,-1
 691 114 l 1,626,-1
523 265 m 1,630,631
 525 270 525 270 525 274 c 0,632,633
 525 283 525 283 517 300 c 128,-1,634
 509 317 509 317 509 324 c 0,635,636
 509 329 509 329 510 333 c 1,637,638
 486 335 486 335 467 335 c 256,639,640
 448 335 448 335 436 333 c 1,641,642
 426 339 426 339 400 336 c 0,643,644
 392 339 392 339 386 339 c 0,645,646
 373 339 373 339 369 313 c 0,647,648
 365 282 365 282 358 275 c 1,649,650
 436 261 436 261 472 261 c 0,651,652
 498 261 498 261 523 265 c 1,630,631
602 156 m 1,653,-1
 598 156 l 1,654,-1
 600 145 l 1,655,-1
 584 142 l 1,656,657
 584 124 584 124 596 126 c 1,658,659
 605 140 605 140 602 156 c 1,653,-1
587 119 m 0,660,661
 583 121 583 121 581 118 c 128,-1,662
 579 115 579 115 580 111 c 1,663,664
 587 115 587 115 587 119 c 0,660,661
445 232 m 1,665,666
 437 231 437 231 419 236 c 128,-1,667
 401 241 401 241 393 241 c 0,668,669
 382 241 382 241 374 236 c 1,670,671
 381 231 381 231 403.5 228.5 c 128,-1,672
 426 226 426 226 434 220 c 1,673,674
 428 213 428 213 422 212 c 1,675,676
 423 210 423 210 430 201 c 1,677,678
 423 196 423 196 422 196 c 2,679,-1
 422 190 l 1,680,681
 437 188 437 188 437 205 c 0,682,683
 438 227 438 227 445 232 c 1,665,666
432 169 m 0,684,685
 434 172 434 172 434 176 c 0,686,687
 434 181 434 181 430 180 c 0,688,689
 424 174 424 174 425 171 c 0,690,691
 426 169 426 169 432 169 c 0,684,685
449 634 m 1,692,693
 450 636 450 636 451 637 c 0,694,695
 451 643 451 643 436 652 c 0,696,697
 413 660 413 660 396 660 c 0,698,699
 342 660 342 660 342 602 c 0,700,701
 342 588 342 588 346 575 c 0,702,703
 363 544 363 544 391 544 c 1,704,705
 394 536 394 536 394 526 c 0,706,707
 394 515 394 515 389.5 493.5 c 128,-1,708
 385 472 385 472 385 461 c 0,709,710
 382 445 382 445 374 414 c 0,711,712
 367 387 367 387 348 381 c 1,713,714
 342 346 342 346 317 264 c 1,715,-1
 317 247 l 2,716,717
 318 239 318 239 331 241 c 1,718,719
 317 69 317 69 231 -43 c 1,720,721
 226 -58 226 -58 199.5 -64.5 c 128,-1,722
 173 -71 173 -71 167 -80 c 1,723,724
 180 -89 180 -89 186 -88 c 0,725,726
 268 -46 268 -46 309 61 c 0,727,728
 333 125 333 125 351 252 c 1,729,-1
 339 252 l 2,730,731
 332 252 332 252 329 257 c 1,732,733
 336 271 336 271 343 303.5 c 128,-1,734
 350 336 350 336 358 351 c 0,735,736
 355 353 355 353 355 355 c 0,737,738
 361 370 361 370 367 370 c 0,739,740
 369 370 369 370 371 369 c 0,741,742
 389 395 389 395 396 444 c 0,743,744
 406 511 406 511 411 527 c 0,745,746
 415 534 415 534 415 539 c 0,747,748
 415 546 415 546 401 551 c 128,-1,749
 387 556 387 556 385 558 c 0,750,751
 367 567 367 567 355 601 c 1,752,753
 356 612 356 612 377 641 c 1,754,755
 406 646 406 646 416 646 c 0,756,757
 437 646 437 646 449 634 c 1,692,693
436 117 m 0,758,759
 435 124 435 124 425 133 c 1,760,761
 434 136 434 136 434 147 c 2,762,-1
 434 162 l 1,763,764
 427 156 427 156 427 135 c 0,765,766
 428 111 428 111 425 103 c 1,767,-1
 427 103 l 2,768,769
 439 105 439 105 436 117 c 0,758,759
382 176 m 1,770,771
 377 182 377 182 378.5 199.5 c 128,-1,772
 380 217 380 217 377 223 c 1,773,774
 362 197 362 197 364 156 c 1,775,776
 369 156 369 156 374 165 c 128,-1,777
 379 174 379 174 382 176 c 1,770,771
555 111 m 1,778,779
 560 124 560 124 560 138 c 0,780,781
 560 156 560 156 553 183 c 0,782,783
 543 219 543 219 542 227 c 0,784,785
 537 246 537 246 516 243 c 0,786,787
 487 239 487 239 479 243 c 1,788,789
 468 235 468 235 465 210 c 128,-1,790
 462 185 462 185 459 169 c 1,791,-1
 463 114 l 2,792,793
 468 83 468 83 493 72 c 0,794,795
 494 69 494 69 494 66 c 0,796,797
 494 61 494 61 483 54.5 c 128,-1,798
 472 48 472 48 470 43 c 1,799,800
 433 42 433 42 408 8 c 0,801,802
 395 -10 395 -10 371 -65 c 0,803,804
 350 -114 350 -114 332 -133 c 1,805,806
 339 -135 339 -135 345 -124.5 c 128,-1,807
 351 -114 351 -114 358 -114 c 1,808,809
 375 -94 375 -94 397 -49 c 0,810,811
 432 23 432 23 434 25 c 0,812,813
 443 23 443 23 452 23 c 0,814,815
 483 23 483 23 509 57 c 0,816,817
 545 103 545 103 555 111 c 1,778,779
459 66 m 1,818,819
 451 76 451 76 438 100 c 1,820,821
 435 93 435 93 425 90 c 0,822,823
 411 85 411 85 409 84 c 2,824,-1
 416 79 l 1,825,-1
 407 74 l 1,826,827
 393 53 393 53 389 32 c 1,828,-1
 398 32 l 1,829,830
 407 37 407 37 409 57 c 0,831,832
 410 74 410 74 416 74 c 0,833,834
 418 74 418 74 429 67.5 c 128,-1,835
 440 61 440 61 446 61 c 0,836,837
 453 61 453 61 459 66 c 1,818,819
366 117 m 1,838,839
 361 122 361 122 361 126 c 0,840,841
 361 129 361 129 366 134 c 128,-1,842
 371 139 371 139 371 142 c 256,843,844
 371 145 371 145 364 148 c 1,845,846
 356 143 356 143 355 129 c 0,847,848
 354 112 354 112 351 108 c 1,849,850
 353 107 353 107 354 107 c 0,851,852
 355 108 355 108 366 117 c 1,838,839
497 -56 m 1,853,-1
 497 -54 l 1,854,-1
 488 -56 l 1,855,-1
 497 -56 l 1,853,-1
362 92 m 0,856,857
 360 97 360 97 354 97 c 0,858,859
 351 97 351 97 348 95 c 0,860,861
 347 91 347 91 351 86 c 1,862,-1
 340 74 l 2,863,864
 341 73 341 73 339 63 c 0,865,866
 338 56 338 56 344 55 c 1,867,-1
 346 57 l 2,868,869
 347 58 347 58 344 61 c 0,870,871
 350 74 350 74 355 72 c 1,872,-1
 355 77 l 1,873,874
 359 79 359 79 360 79 c 1,875,876
 359 84 359 84 362 92 c 0,856,857
456 -56 m 1,877,-1
 452 -56 l 1,878,-1
 454 -58 l 1,879,-1
 456 -56 l 1,877,-1
335 39 m 1,880,-1
 331 36 l 2,881,882
 331 35 331 35 326.5 30 c 128,-1,883
 322 25 322 25 324 21 c 0,884,885
 327 19 327 19 332 25 c 1,886,-1
 331 28 l 1,887,888
 335 31 335 31 335 39 c 1,880,-1
407 -69 m 2,889,-1
 400 -69 l 1,890,-1
 403 -72 l 2,891,892
 404 -72 404 -72 407 -69 c 2,889,-1
326 12 m 1,893,894
 322 11 322 11 319 7 c 1,895,896
 324 12 324 12 326 12 c 1,893,894
319 -9 m 0,897,898
 321 -4 321 -4 315 0 c 0,899,900
 310 3 310 3 308 -1 c 2,901,-1
 313 -11 l 2,902,903
 312 -13 312 -13 303 -13 c 1,904,905
 305 -16 305 -16 300 -21 c 128,-1,906
 295 -26 295 -26 295 -27 c 0,907,908
 296 -29 296 -29 302 -29 c 0,909,910
 303 -26 303 -26 312 -19.5 c 128,-1,911
 321 -13 321 -13 319 -9 c 0,897,898
295 -38 m 1,912,913
 292 -37 292 -37 279 -45 c 1,914,-1
 281 -46 l 2,915,916
 287 -46 287 -46 295 -38 c 1,912,913
270 -62 m 2,917,918
 269 -65 269 -65 265 -67.5 c 128,-1,919
 261 -70 261 -70 261 -72 c 256,920,921
 261 -74 261 -74 263 -76 c 2,922,-1
 270 -62 l 2,917,918
387 28 m 1,923,924
 359 -2 359 -2 355 -29 c 1,925,926
 343 -40 343 -40 332 -66 c 0,927,928
 323 -87 323 -87 302 -96 c 1,929,-1
 303 -99 l 1,930,-1
 299 -103 l 1,931,932
 288 -122 288 -122 247 -136 c 1,933,-1
 247 -141 l 1,934,935
 213 -160 213 -160 171 -160 c 0,936,937
 127 -160 127 -160 93 -139 c 0,938,939
 90 -139 90 -139 83 -135 c 128,-1,940
 76 -131 76 -131 73 -131 c 256,941,942
 70 -131 70 -131 67 -134 c 1,943,944
 91 -174 91 -174 149 -179 c 0,945,946
 173 -178 173 -178 218 -170 c 1,947,948
 279 -145 279 -145 328 -91 c 0,949,950
 382 -32 382 -32 387 28 c 1,923,924
302 -155 m 1,951,-1
 302 -152 l 1,952,-1
 297 -155 l 1,953,-1
 302 -155 l 1,951,-1
258 -80 m 1,954,955
 251 -81 251 -81 240.5 -88.5 c 128,-1,956
 230 -96 230 -96 223 -96 c 1,957,958
 221 -103 221 -103 228 -112 c 1,959,960
 240 -104 240 -104 258 -80 c 1,954,955
216 -114 m 1,961,-1
 216 -105 l 1,962,963
 207 -113 207 -113 186 -115 c 0,964,965
 162 -118 162 -118 155 -121 c 2,966,-1
 216 -114 l 1,961,-1
146 -69 m 1,967,968
 143 -61 143 -61 130 -51 c 1,969,970
 114 -49 114 -49 102 -49 c 0,971,972
 82 -49 82 -49 72 -54 c 0,973,974
 66 -60 66 -60 64 -70 c 0,975,976
 61 -87 61 -87 61 -88 c 0,977,978
 65 -89 65 -89 70 -85 c 0,979,980
 70 -83 70 -83 67 -80 c 1,981,982
 74 -78 74 -78 72 -69 c 1,983,984
 77 -58 77 -58 88 -58 c 0,985,986
 92 -58 92 -58 102.5 -60.5 c 128,-1,987
 113 -63 113 -63 117 -62 c 2,988,-1
 115 -67 l 1,989,-1
 122 -67 l 2,990,991
 124 -70 124 -70 125 -72 c 128,-1,992
 126 -74 126 -74 126 -75 c 0,993,994
 126 -77 126 -77 124 -78 c 0,995,996
 123 -79 123 -79 119 -76 c 1,997,-1
 112 -88 l 2,998,999
 113 -88 113 -88 118 -94.5 c 128,-1,1000
 123 -101 123 -101 128 -99 c 0,1001,1002
 137 -92 137 -92 146 -69 c 1,967,968
151 -121 m 1,1003,1004
 144 -124 144 -124 141 -114 c 1,1005,-1
 128 -114 l 2,1006,1007
 130 -115 130 -115 135.5 -119.5 c 128,-1,1008
 141 -124 141 -124 144 -124 c 256,1009,1010
 147 -124 147 -124 151 -121 c 1,1003,1004
77 -121 m 2,1011,-1
 66 -94 l 1,1012,1013
 58 -96 58 -96 58 -104 c 0,1014,1015
 59 -116 59 -116 59 -117 c 0,1016,1017
 66 -123 66 -123 72 -123 c 0,1018,1019
 75 -123 75 -123 77 -121 c 2,1011,-1
79 -184 m 1,1020,1021
 80 -177 80 -177 70 -172.5 c 128,-1,1022
 60 -168 60 -168 59 -166 c 1,1023,1024
 59 -187 59 -187 70 -191 c 1,1025,-1
 70 -184 l 2,1026,1027
 71 -181 71 -181 74 -182 c 256,1028,1029
 77 -183 77 -183 79 -184 c 1,1020,1021
574 523 m 1,1030,-1
 571 523 l 1,1031,-1
 571 527 l 1,1032,-1
 574 527 l 1,1033,-1
 574 523 l 1,1030,-1
582 476 m 1,1034,-1
 578 476 l 1,1035,-1
 578 479 l 1,1036,-1
 582 479 l 1,1037,-1
 582 476 l 1,1034,-1
697 326 m 1,1038,-1
 690 320 l 2,1039,1040
 687 320 687 320 681 322 c 1,1041,-1
 677 317 l 2,1042,1043
 676 320 676 320 673 334 c 0,1044,1045
 671 344 671 344 674 349 c 0,1046,1047
 684 352 684 352 687.5 340 c 128,-1,1048
 691 328 691 328 697 326 c 1,1038,-1
425 589 m 1,1049,1050
 420 589 420 589 419 587 c 1,1051,1052
 417 592 417 592 407.5 594.5 c 128,-1,1053
 398 597 398 597 400 603 c 0,1054,1055
 404 608 404 608 409 608 c 0,1056,1057
 415 608 415 608 425 589 c 1,1049,1050
508 308 m 1,1058,-1
 508 291 l 2,1059,1060
 507 281 507 281 497 277 c 1,1061,1062
 455 278 455 278 380 288 c 1,1063,1064
 378 316 378 316 389 328 c 1,1065,1066
 398 328 398 328 416.5 329.5 c 128,-1,1067
 435 331 435 331 444 331 c 0,1068,1069
 492 331 492 331 508 308 c 1,1058,-1
520 225 m 1,1070,1071
 540 161 540 161 540 138 c 0,1072,1073
 540 94 540 94 501 81 c 1,1074,1075
 477 104 477 104 477 145 c 0,1076,1077
 477 158 477 158 480 184 c 128,-1,1078
 483 210 483 210 483 223 c 1,1079,1080
 495 224 495 224 520 225 c 1,1070,1071
EndSplineSet
Validated: 37
EndChar

StartChar: B
Encoding: 66 66 27
Width: 816
Flags: W
LayerCount: 2
Back
Fore
SplineSet
666 767 m 1,0,1
 668 765 668 765 668 761 c 0,2,3
 667 756 667 756 661 754 c 0,4,5
 660 755 660 755 663 760.5 c 128,-1,6
 666 766 666 766 666 767 c 1,0,1
577 785 m 1,7,-1
 572 775 l 1,8,-1
 563 781 l 1,9,-1
 577 785 l 1,7,-1
561 774 m 1,10,-1
 554 778 l 1,11,-1
 554 781 l 1,12,-1
 557 781 l 1,13,-1
 561 774 l 1,10,-1
451 760 m 1,14,-1
 433 765 l 1,15,-1
 440 767 l 1,16,-1
 451 760 l 1,14,-1
420 768 m 2,17,18
 420 767 420 767 418 765 c 0,19,20
 416 765 416 765 415 767 c 2,21,-1
 415 768 l 1,22,-1
 420 768 l 2,17,18
736 422 m 1,23,24
 736 414 736 414 735 414 c 0,25,26
 729 412 729 412 729 417 c 0,27,28
 729 421 729 421 730 424 c 0,29,30
 731 425 731 425 736 422 c 1,23,24
369 754 m 2,31,32
 362 753 362 753 360 753 c 2,33,-1
 360 754 l 1,34,-1
 369 754 l 2,31,32
735 366 m 1,35,36
 731 369 731 369 732 375 c 0,37,38
 734 382 734 382 733 383 c 2,39,-1
 735 385 l 1,40,41
 739 383 739 383 738 378 c 0,42,43
 735 369 735 369 735 366 c 1,35,36
738 361 m 0,44,45
 741 359 741 359 741 356 c 0,46,47
 741 351 741 351 736 344 c 1,48,-1
 733 348 l 2,49,50
 737 349 737 349 736.5 354 c 128,-1,51
 736 359 736 359 738 361 c 0,44,45
321 744 m 1,52,-1
 314 744 l 1,53,-1
 321 746 l 1,54,-1
 321 744 l 1,52,-1
744 313 m 2,55,56
 742 311 742 311 742 307 c 1,57,-1
 742 307 l 1,58,59
 742 303 742 303 740 302 c 0,60,61
 736 303 736 303 737 307 c 0,62,63
 739 312 739 312 738 313 c 2,64,-1
 744 313 l 2,55,56
742 285 m 2,65,66
 739 286 739 286 738 286 c 1,67,68
 738 289 738 289 742 291 c 1,69,-1
 742 285 l 2,65,66
745 281 m 1,70,71
 745 276 745 276 744 276 c 2,72,-1
 742 276 l 1,73,-1
 742 281 l 1,74,-1
 745 281 l 1,70,71
744 256 m 2,75,76
 744 257 744 257 740 261 c 1,77,-1
 744 261 l 1,78,-1
 744 256 l 2,75,76
284 737 m 1,79,80
 280 736 280 736 263 731 c 0,81,82
 251 728 251 728 241 729 c 1,83,84
 244 730 244 730 284 737 c 1,79,80
748 247 m 1,85,-1
 743 242 l 1,86,-1
 744 252 l 1,87,-1
 746 252 l 1,88,-1
 748 247 l 1,85,-1
751 171 m 0,89,90
 745 169 745 169 745 175 c 0,91,92
 744 178 744 178 747 182 c 0,93,94
 752 183 752 183 754 178 c 256,95,96
 756 173 756 173 751 171 c 0,89,90
219 703 m 2,97,-1
 212 701 l 2,98,99
 215 704 215 704 217 705 c 0,100,101
 218 704 218 704 219 703 c 2,97,-1
183 728 m 1,102,-1
 175 719 l 1,103,-1
 177 729 l 1,104,-1
 183 729 l 1,105,-1
 183 728 l 1,102,-1
758 134 m 1,106,107
 750 134 750 134 750 142 c 0,108,109
 750 155 750 155 749 157 c 0,110,111
 750 159 750 159 754 159 c 0,112,113
 755 153 755 153 752 141 c 1,114,115
 760 141 760 141 758 134 c 1,106,107
166 718 m 1,116,117
 160 718 160 718 152 712.5 c 128,-1,118
 144 707 144 707 143 707 c 0,119,120
 140 707 140 707 138 710 c 1,121,122
 148 713 148 713 166 718 c 1,116,117
742 118 m 1,123,-1
 736 126 l 1,124,-1
 740 127 l 1,125,-1
 742 118 l 1,123,-1
758 84 m 1,126,127
 754 90 754 90 754 92 c 0,128,129
 757 93 757 93 755 96 c 0,130,131
 752 99 752 99 752 100 c 0,132,133
 752 103 752 103 756 104 c 1,134,135
 754 101 754 101 757 95.5 c 128,-1,136
 760 90 760 90 760 89 c 0,137,138
 760 86 760 86 758 84 c 1,126,127
747 104 m 2,139,140
 747 102 747 102 745 101 c 0,141,142
 742 100 742 100 738 102 c 1,143,-1
 738 104 l 1,144,-1
 747 104 l 2,139,140
705 129 m 2,145,146
 705 128 705 128 703 126 c 2,147,-1
 699 126 l 1,148,-1
 699 129 l 1,149,-1
 705 129 l 2,145,146
686 132 m 1,150,-1
 682 126 l 1,151,-1
 680 127 l 1,152,-1
 686 132 l 1,150,-1
134 710 m 1,153,154
 109 706 109 706 63 698 c 1,155,156
 87 704 87 704 134 710 c 1,153,154
687 112 m 1,157,-1
 680 117 l 1,158,-1
 687 118 l 1,159,-1
 687 112 l 1,157,-1
752 37 m 1,160,161
 751 33 751 33 746 32 c 0,162,163
 742 31 742 31 741 34 c 128,-1,164
 740 37 740 37 738 38 c 2,165,-1
 735 40 l 1,166,167
 735 50 735 50 742 48 c 1,168,-1
 740 42 l 1,169,-1
 752 37 l 1,160,161
730 201 m 1,170,171
 654 162 654 162 577 87 c 1,172,173
 567 84 567 84 552 61 c 128,-1,174
 537 38 537 38 527 38 c 0,175,176
 520 38 520 38 512 42 c 0,177,178
 478 55 478 55 410 80 c 0,179,180
 350 101 350 101 302 101 c 0,181,182
 236 101 236 101 191 58 c 1,183,184
 170 30 170 30 170 2 c 0,185,186
 170 -18 170 -18 182 -37 c 1,187,-1
 188 -37 l 1,188,189
 187 -45 187 -45 188 -46 c 0,190,191
 194 -47 194 -47 203 -44 c 1,192,-1
 203 -41 l 1,193,-1
 208 -41 l 2,194,195
 209 -43 209 -43 212 -46 c 1,196,197
 215 -43 215 -43 230 -41 c 0,198,199
 242 -39 242 -39 241 -36 c 1,200,201
 244 -37 244 -37 249 -37 c 1,202,203
 247 -34 247 -34 251 -32 c 128,-1,204
 255 -30 255 -30 259 -28 c 0,205,206
 265 -29 265 -29 270 -29 c 0,207,208
 274 -29 274 -29 281 -27.5 c 128,-1,209
 288 -26 288 -26 292 -26 c 0,210,211
 298 -26 298 -26 300 -37 c 0,212,213
 303 -44 303 -44 303 -42 c 1,214,215
 297 -44 297 -44 282 -40.5 c 128,-1,216
 267 -37 267 -37 263 -39 c 1,217,-1
 263 -37 l 1,218,219
 259 -42 259 -42 247 -45 c 0,220,221
 232 -49 232 -49 230 -50 c 2,222,-1
 233 -53 l 2,223,224
 230 -54 230 -54 227 -54 c 256,225,226
 224 -54 224 -54 218 -52.5 c 128,-1,227
 212 -51 212 -51 209 -51 c 0,228,229
 201 -51 201 -51 197 -60 c 1,230,231
 205 -72 205 -72 223 -75.5 c 128,-1,232
 241 -79 241 -79 258 -81 c 1,233,234
 257 -78 257 -78 259 -75 c 0,235,236
 254 -66 254 -66 241 -67 c 1,237,238
 243 -67 243 -67 249 -64 c 1,239,-1
 244 -51 l 2,240,241
 253 -66 253 -66 286 -67 c 1,242,243
 285 -71 285 -71 288 -76 c 1,244,245
 279 -80 279 -80 277 -80 c 0,246,247
 276 -75 276 -75 265 -75 c 1,248,249
 266 -83 266 -83 256 -92 c 1,250,251
 221 -80 221 -80 213 -81 c 1,252,253
 213 -77 213 -77 212 -76 c 1,254,255
 208 -84 208 -84 203 -84 c 0,256,257
 200 -84 200 -84 193.5 -77.5 c 128,-1,258
 187 -71 187 -71 183 -71 c 0,259,260
 180 -71 180 -71 178 -72 c 0,261,262
 150 -25 150 -25 150 27 c 0,263,264
 150 63 150 63 166 92 c 1,265,266
 185 112 185 112 210 150 c 1,267,268
 228 156 228 156 264.5 168 c 128,-1,269
 301 180 301 180 312 203 c 1,270,271
 307 211 307 211 307 210 c 0,272,273
 325 207 325 207 333 221 c 1,274,275
 334 231 334 231 346 249 c 1,276,-1
 337 252 l 1,277,-1
 337 256 l 1,278,279
 346 270 346 270 346 290 c 0,280,281
 346 314 346 314 329 376 c 128,-1,282
 312 438 312 438 312 475 c 0,283,284
 312 569 312 569 369 622 c 1,285,286
 425 689 425 689 510 765 c 1,287,288
 526 753 526 753 604 668 c 0,289,290
 627 642 627 642 650 617 c 0,291,292
 673 587 673 587 669 556 c 1,293,294
 650 530 650 530 581 464 c 1,295,296
 595 454 595 454 630 442.5 c 128,-1,297
 665 431 665 431 679 423 c 0,298,299
 703 408 703 408 703 383 c 0,300,301
 703 376 703 376 701 367 c 0,302,303
 709 312 709 312 730 201 c 1,170,171
736 30 m 2,304,305
 736 28 736 28 731 28 c 1,306,-1
 730 30 l 1,307,-1
 736 30 l 2,304,305
56 699 m 2,308,309
 55 700 55 700 53 698 c 2,310,-1
 53 703 l 1,311,-1
 56 703 l 1,312,-1
 56 699 l 2,308,309
685 67 m 2,313,314
 685 65 685 65 683 64 c 1,315,316
 684 64 684 64 678 67 c 2,317,-1
 685 67 l 2,313,314
765 3 m 0,318,319
 755 2 755 2 733.5 -5.5 c 128,-1,320
 712 -13 712 -13 701 -13 c 1,321,322
 699 -8 699 -8 704.5 -5.5 c 128,-1,323
 710 -3 710 -3 710 -2 c 1,324,325
 710 -6 710 -6 702 7 c 0,326,327
 699 12 699 12 694 11 c 1,328,329
 694 15 694 15 696 16 c 2,330,-1
 683 21 l 2,331,332
 685 23 685 23 685 26 c 0,333,334
 678 37 678 37 678 39 c 2,335,-1
 685 48 l 1,336,-1
 692 42 l 1,337,-1
 694 44 l 2,338,339
 695 43 695 43 693 34 c 0,340,341
 692 28 692 28 699 26 c 1,342,343
 696 24 696 24 696 21 c 0,344,345
 696 17 696 17 701 11 c 2,346,347
 701 11 701 11 709 8 c 0,348,349
 714 7 714 7 713 2 c 1,350,351
 728 6 728 6 754 7 c 1,352,353
 762 17 762 17 760 20 c 2,354,-1
 754 23 l 1,355,-1
 759 26 l 2,356,357
 763 27 763 27 764 26 c 256,358,359
 765 25 765 25 768 14 c 0,360,361
 770 7 770 7 765 3 c 0,318,319
44 696 m 2,362,363
 42 694 42 694 36 694 c 1,364,-1
 36 694 l 1,365,366
 30 694 30 694 28 693 c 1,367,368
 29 696 29 696 34 696 c 2,369,-1
 44 696 l 2,362,363
664 62 m 2,370,-1
 657 69 l 2,371,372
 661 70 661 70 664 70 c 0,373,374
 668 70 668 70 668 66 c 0,375,376
 667 63 667 63 664 62 c 2,370,-1
643 83 m 1,377,378
 637 84 637 84 627 88 c 1,379,380
 629 87 629 87 634 88 c 0,381,382
 640 90 640 90 641 90 c 0,383,384
 644 89 644 89 643 83 c 1,377,378
18 693 m 1,385,386
 21 687 21 687 21 682 c 0,387,388
 21 675 21 675 15 671 c 1,389,-1
 3 675 l 2,390,391
 8 676 8 676 11.5 683.5 c 128,-1,392
 15 691 15 691 18 693 c 1,385,386
621 63 m 1,393,-1
 616 68 l 1,394,-1
 616 70 l 1,395,-1
 619 70 l 1,396,-1
 621 63 l 1,393,-1
25 659 m 1,397,-1
 17 662 l 1,398,-1
 17 665 l 1,399,-1
 20 665 l 1,400,-1
 25 659 l 1,397,-1
134 553 m 2,401,402
 133 550 133 550 130 548 c 0,403,404
 126 547 126 547 124 550 c 2,405,-1
 124 553 l 1,406,-1
 134 553 l 2,401,402
14 661 m 1,407,-1
 8 661 l 1,408,-1
 8 664 l 1,409,-1
 14 664 l 1,410,-1
 14 661 l 1,407,-1
182 481 m 1,411,412
 180 481 180 481 178 479 c 1,413,414
 177 480 177 480 177 486 c 1,415,416
 180 485 180 485 182 481 c 1,411,412
673 -2 m 1,417,418
 668 -7 668 -7 669 -11 c 2,419,-1
 660 -4 l 1,420,421
 666 -3 666 -3 673 -2 c 1,417,418
657 2 m 2,422,-1
 646 3 l 1,423,-1
 652 12 l 2,424,425
 652 10 652 10 655 7.5 c 128,-1,426
 658 5 658 5 657 2 c 2,422,-1
608 54 m 1,427,-1
 605 47 l 1,428,-1
 602 47 l 1,429,-1
 602 49 l 1,430,-1
 608 54 l 1,427,-1
381 703 m 1,431,432
 326 677 326 677 290.5 621.5 c 128,-1,433
 255 566 255 566 255 506 c 0,434,435
 255 493 255 493 271 393 c 0,436,437
 280 338 280 338 303 311 c 1,438,439
 299 312 299 312 293 308 c 1,440,441
 299 282 299 282 297 276 c 0,442,443
 249 211 249 211 242 204 c 0,444,445
 205 165 205 165 164 170 c 1,446,447
 164 170 164 170 167 174 c 1,448,-1
 160 180 l 2,449,450
 169 177 169 177 177 180 c 0,451,452
 186 184 186 184 191 185 c 0,453,454
 214 208 214 208 214 252 c 1,455,456
 214 245 214 245 213 270 c 2,457,458
 213 270 213 270 213 289 c 0,459,460
 213 303 213 303 215 313 c 1,461,462
 227 313 227 313 230 318 c 1,463,464
 218 316 218 316 189 324 c 0,465,466
 156 332 156 332 144 332 c 0,467,468
 124 332 124 332 109 321 c 0,469,470
 93 304 93 304 93 285 c 0,471,472
 93 279 93 279 95 272 c 0,473,474
 103 260 103 260 103 254 c 0,475,476
 103 252 103 252 102 251 c 0,477,478
 86 257 86 257 80 278 c 0,479,480
 79 281 79 281 76 314 c 1,481,482
 90 375 90 375 147 379 c 0,483,484
 162 378 162 378 192 382 c 1,485,486
 183 412 183 412 183 441 c 0,487,488
 183 520 183 520 268 613 c 1,489,490
 191 613 191 613 170 612 c 0,491,492
 115 609 115 609 86 574 c 0,493,494
 81 563 81 563 81 550 c 0,495,496
 81 527 81 527 102 486 c 1,497,498
 82 489 82 489 60 535 c 0,499,500
 57 548 57 548 57 561 c 0,501,502
 57 617 57 617 95 656 c 1,503,504
 145 697 145 697 248 697 c 1,505,506
 240 697 240 697 275 696 c 2,507,508
 275 696 275 696 301 696 c 0,509,510
 351 696 351 696 381 703 c 1,431,432
5 655 m 1,511,512
 7 649 7 649 5 641 c 1,513,514
 2 642 2 642 0 647 c 1,515,-1
 5 655 l 1,511,512
691 -18 m 1,516,517
 678 -26 678 -26 654 -32 c 0,518,519
 622 -40 622 -40 616 -42 c 2,520,-1
 621 -36 l 1,521,-1
 616 -32 l 2,522,523
 619 -33 619 -33 625 -28 c 1,524,-1
 618 -23 l 2,525,526
 614 -21 614 -21 616 -16 c 2,527,-1
 624 -9 l 1,528,529
 615 -3 615 -3 606 14 c 1,530,531
 608 15 608 15 609 17 c 0,532,533
 609 19 609 19 606.5 22 c 128,-1,534
 604 25 604 25 604 27 c 0,535,536
 604 28 604 28 615 40 c 0,537,538
 620 45 620 45 627 42 c 1,539,540
 632 33 632 33 641 35 c 1,541,542
 642 30 642 30 650 21 c 0,543,544
 651 19 651 19 644.5 17.5 c 128,-1,545
 638 16 638 16 638 14 c 256,546,547
 638 12 638 12 639 11 c 1,548,549
 627 10 627 10 621 23 c 0,550,551
 620 26 620 26 616 24 c 0,552,553
 614 23 614 23 611 21 c 1,554,555
 613 19 613 19 615 20 c 2,556,-1
 611 16 l 1,557,558
 616 15 616 15 622 4 c 128,-1,559
 628 -7 628 -7 638 -5 c 1,560,561
 630 -7 630 -7 629 -7 c 1,562,563
 630 -9 630 -9 630 -12 c 0,564,565
 630 -17 630 -17 627 -23 c 0,566,567
 628 -26 628 -26 630 -25 c 2,568,-1
 634 -23 l 1,569,-1
 634 -27 l 1,570,571
 642 -27 642 -27 661.5 -22 c 128,-1,572
 681 -17 681 -17 691 -18 c 1,516,517
588 51 m 1,573,-1
 585 56 l 1,574,-1
 585 58 l 1,575,-1
 587 58 l 1,576,-1
 588 51 l 1,573,-1
571 50 m 1,577,-1
 567 54 l 1,578,-1
 567 56 l 1,579,-1
 570 56 l 1,580,-1
 571 50 l 1,577,-1
147 470 m 2,581,582
 144 467 144 467 143 468 c 2,583,-1
 141 470 l 1,584,-1
 147 470 l 2,581,582
148 459 m 1,585,586
 146 460 146 460 143 463 c 2,587,-1
 143 464 l 2,588,589
 145 464 145 464 148 459 c 1,585,586
617 -11 m 1,590,-1
 615 -11 l 1,591,-1
 615 -9 l 1,592,-1
 617 -9 l 1,593,-1
 617 -11 l 1,590,-1
169 410 m 1,594,-1
 162 406 l 1,595,-1
 160 408 l 1,596,-1
 169 410 l 1,594,-1
610 -19 m 1,597,598
 601 -25 601 -25 581 -32 c 1,599,-1
 577 -23 l 1,600,-1
 567 -27 l 2,601,602
 566 -25 566 -25 566 -23 c 256,603,604
 566 -21 566 -21 568 -18 c 0,605,606
 570 -19 570 -19 573 -19 c 0,607,608
 578 -19 578 -19 588 -13 c 128,-1,609
 598 -7 598 -7 602 -7 c 1,610,611
 601 -14 601 -14 610 -19 c 1,597,598
595 3 m 2,612,-1
 590 0 l 1,613,-1
 593 -5 l 2,614,615
 590 -6 590 -6 587.5 -1 c 128,-1,616
 585 4 585 4 584 4 c 0,617,618
 582 3 582 3 579 0 c 1,619,-1
 581 -2 l 1,620,621
 571 -2 571 -2 568 2 c 0,622,623
 566 2 566 2 565 0 c 2,624,-1
 561 8 l 2,625,626
 557 16 557 16 551 14 c 0,627,628
 537 0 537 0 515 2 c 1,629,630
 515 8 515 8 519 11 c 0,631,632
 521 11 521 11 524 9 c 2,633,-1
 528 17 l 2,634,635
 531 17 531 17 544 20 c 0,636,637
 553 22 553 22 559 20 c 0,638,639
 567 22 567 22 565 23 c 1,640,641
 565 19 565 19 583 9 c 0,642,643
 586 10 586 10 589.5 6.5 c 128,-1,644
 593 3 593 3 595 3 c 2,612,-1
328 225 m 1,645,-1
 325 225 l 1,646,-1
 325 228 l 1,647,-1
 328 228 l 1,648,-1
 328 225 l 1,645,-1
138 410 m 2,649,-1
 130 417 l 2,650,651
 133 418 133 418 138 419 c 1,652,653
 139 411 139 411 138 410 c 2,649,-1
155 394 m 0,654,655
 155 384 155 384 150 387 c 0,656,657
 148 388 148 388 148 392 c 0,658,659
 150 395 150 395 152 395 c 256,660,661
 154 395 154 395 155 394 c 0,654,655
141 400 m 1,662,-1
 135 394 l 2,663,664
 134 395 134 395 134 400 c 1,665,-1
 141 400 l 1,662,-1
477 42 m 1,666,-1
 473 42 l 1,667,-1
 473 44 l 1,668,-1
 477 44 l 1,669,-1
 477 42 l 1,666,-1
518 -22 m 2,670,-1
 514 -25 l 1,671,672
 511 -21 511 -21 505 -14 c 1,673,674
 510 -12 510 -12 511.5 -17 c 128,-1,675
 513 -22 513 -22 518 -22 c 2,670,-1
299 199 m 1,676,-1
 294 192 l 1,677,-1
 292 192 l 1,678,-1
 292 194 l 1,679,-1
 299 199 l 1,676,-1
586 -53 m 1,680,681
 578 -59 578 -59 519 -78 c 1,682,683
 528 -62 528 -62 551 -59 c 0,684,685
 582 -56 582 -56 586 -53 c 1,680,681
501 -14 m 1,686,-1
 491 -14 l 1,687,-1
 491 -13 l 1,688,-1
 501 -13 l 1,689,-1
 501 -14 l 1,686,-1
526 -44 m 1,690,-1
 523 -44 l 1,691,-1
 523 -41 l 1,692,-1
 526 -41 l 1,693,-1
 526 -44 l 1,690,-1
520 -38 m 1,694,-1
 518 -38 l 1,695,-1
 518 -36 l 1,696,-1
 520 -36 l 1,697,-1
 520 -38 l 1,694,-1
36 437 m 1,698,-1
 33 437 l 1,699,-1
 33 440 l 1,700,-1
 36 440 l 1,701,-1
 36 437 l 1,698,-1
46 420 m 1,702,-1
 35 419 l 1,703,-1
 35 422 l 1,704,-1
 38 422 l 1,705,-1
 46 420 l 1,702,-1
417 53 m 2,706,-1
 398 55 l 2,707,708
 402 56 402 56 417 53 c 2,706,-1
510 -48 m 1,709,-1
 504 -48 l 1,710,-1
 504 -46 l 1,711,-1
 510 -46 l 1,712,-1
 510 -48 l 1,709,-1
427 26 m 0,713,714
 424 24 424 24 404 31 c 0,715,716
 404 35 404 35 411 38 c 2,717,-1
 418 40 l 1,718,-1
 427 40 l 1,719,-1
 422 34 l 1,720,721
 428 28 428 28 427 26 c 0,713,714
38 402 m 2,722,-1
 37 408 l 2,723,724
 39 406 39 406 38 402 c 2,722,-1
367 58 m 1,725,726
 363 58 363 58 355 56 c 1,727,728
 350 59 350 59 350 69 c 0,729,730
 351 71 351 71 359 74 c 1,731,-1
 362 70 l 1,732,-1
 356 65 l 1,733,734
 360 63 360 63 367 58 c 1,725,726
505 -57 m 1,735,736
 503 -56 503 -56 498 -62 c 1,737,-1
 502 -66 l 2,738,739
 504 -68 504 -68 501 -71 c 1,740,741
 499 -65 499 -65 490 -65.5 c 128,-1,742
 481 -66 481 -66 481 -63 c 256,743,744
 481 -60 481 -60 482 -57 c 0,745,746
 480 -56 480 -56 475 -55 c 0,747,748
 474 -51 474 -51 477 -46 c 1,749,750
 470 -44 470 -44 461.5 -32.5 c 128,-1,751
 453 -21 453 -21 445 -22 c 1,752,753
 447 -19 447 -19 447 -18 c 2,754,-1
 429 -16 l 1,755,756
 424 -22 424 -22 418 -22 c 1,757,-1
 418 -19 l 1,758,759
 414 -21 414 -21 404 -22 c 1,760,761
 405 -18 405 -18 403 -13 c 0,762,763
 404 -12 404 -12 406 -12 c 256,764,765
 408 -12 408 -12 411.5 -14 c 128,-1,766
 415 -16 415 -16 416 -16 c 0,767,768
 418 -16 418 -16 420 -13 c 0,769,770
 420 1 420 1 426 0 c 0,771,772
 427 2 427 2 427 7 c 1,773,774
 433 6 433 6 443 0 c 1,775,776
 437 0 437 0 426 -5 c 1,777,778
 428 -11 428 -11 442 -11 c 1,779,780
 442 -6 442 -6 445 -4 c 0,781,782
 449 -2 449 -2 452 -5 c 0,783,784
 465 -16 465 -16 477 -14 c 1,785,786
 474 -20 474 -20 474 -24 c 0,787,788
 474 -30 474 -30 479 -32 c 1,789,-1
 482 -30 l 1,790,-1
 487 -39 l 1,791,792
 481 -38 481 -38 475 -44 c 1,793,794
 480 -46 480 -46 489 -42 c 1,795,-1
 495 -48 l 1,796,-1
 489 -53 l 1,797,798
 493 -55 493 -55 505 -57 c 1,735,736
46 380 m 1,799,-1
 44 371 l 1,800,-1
 42 380 l 1,801,-1
 46 380 l 1,799,-1
341 74 m 0,802,803
 340 73 340 73 328 76 c 1,804,-1
 339 81 l 2,805,806
 339 80 339 80 340 78 c 128,-1,807
 341 76 341 76 341 74 c 0,802,803
471 -64 m 2,808,809
 470 -65 470 -65 466 -67 c 1,810,-1
 466 -60 l 1,811,-1
 471 -64 l 2,808,809
50 356 m 1,812,-1
 46 350 l 1,813,-1
 47 358 l 1,814,-1
 50 358 l 1,815,-1
 50 356 l 1,812,-1
316 84 m 1,816,-1
 312 84 l 1,817,-1
 312 87 l 1,818,-1
 316 87 l 1,819,-1
 316 84 l 1,816,-1
142 255 m 1,820,-1
 136 255 l 1,821,-1
 136 263 l 1,822,-1
 142 258 l 1,823,-1
 142 255 l 1,820,-1
171 226 m 1,824,825
 163 224 163 224 162 226 c 0,826,827
 161 229 161 229 164 233 c 1,828,-1
 171 226 l 1,824,825
500 -81 m 1,829,830
 490 -96 490 -96 465 -94 c 0,831,832
 454 -97 454 -97 444 -81.5 c 128,-1,833
 434 -66 434 -66 424 -69 c 1,834,835
 417 -61 417 -61 417 -54 c 0,836,837
 417 -51 417 -51 418 -48 c 1,838,839
 413 -47 413 -47 409 -32 c 1,840,-1
 418 -32 l 1,841,842
 417 -36 417 -36 417 -44 c 1,843,844
 421 -43 421 -43 431 -46 c 1,845,846
 429 -48 429 -48 429 -60 c 1,847,-1
 433 -64 l 2,848,849
 435 -61 435 -61 438 -61 c 0,850,851
 440 -61 440 -61 442 -62 c 1,852,853
 440 -66 440 -66 451 -71 c 1,854,-1
 448 -72 l 1,855,856
 452 -77 452 -77 457 -76 c 2,857,-1
 453 -80 l 1,858,859
 462 -78 462 -78 475 -83 c 0,860,861
 479 -81 479 -81 485 -76 c 0,862,863
 486 -74 486 -74 491 -74 c 0,864,865
 499 -74 499 -74 500 -81 c 1,829,830
385 3 m 2,866,-1
 380 3 l 1,867,-1
 380 11 l 1,868,869
 385 1 385 1 385 3 c 2,866,-1
169 210 m 2,870,871
 165 210 165 210 164 212 c 2,872,-1
 164 214 l 1,873,-1
 169 210 l 2,870,871
121 254 m 1,874,-1
 118 254 l 1,875,-1
 118 256 l 1,876,-1
 121 256 l 1,877,-1
 121 254 l 1,874,-1
279 83 m 1,878,-1
 275 86 l 1,879,-1
 275 88 l 1,880,-1
 278 88 l 1,881,-1
 279 83 l 1,878,-1
175 185 m 1,882,-1
 165 184 l 1,883,-1
 165 187 l 1,884,-1
 175 188 l 1,885,-1
 175 185 l 1,882,-1
153 201 m 1,886,887
 145 198 145 198 144 198 c 1,888,889
 148 210 148 210 135 221.5 c 128,-1,890
 122 233 122 233 124 237 c 1,891,892
 126 236 126 236 140 234 c 0,893,894
 151 233 151 233 152 224 c 1,895,-1
 147 221 l 2,896,897
 150 219 150 219 147 209 c 0,898,899
 145 201 145 201 153 201 c 1,886,887
456 -99 m 1,900,-1
 453 -101 l 1,901,-1
 451 -101 l 1,902,-1
 456 -99 l 1,900,-1
313 46 m 1,903,-1
 308 38 l 1,904,-1
 306 38 l 1,905,-1
 306 45 l 1,906,-1
 313 46 l 1,903,-1
399 -44 m 1,907,908
 393 -52 393 -52 390 -51 c 0,909,910
 375 -43 375 -43 353 -22 c 1,911,912
 362 -22 362 -22 378 -13 c 0,913,914
 382 -14 382 -14 386 -24 c 128,-1,915
 390 -34 390 -34 392 -36 c 1,916,917
 391 -35 391 -35 389 -37 c 0,918,919
 390 -39 390 -39 399 -44 c 1,907,908
200 148 m 1,920,-1
 190 140 l 1,921,-1
 194 150 l 1,922,-1
 197 150 l 1,923,-1
 200 148 l 1,920,-1
180 164 m 1,924,-1
 177 158 l 1,925,-1
 174 158 l 1,926,-1
 173 164 l 1,927,-1
 180 164 l 1,924,-1
153 189 m 1,928,-1
 149 180 l 1,929,-1
 148 190 l 1,930,-1
 153 189 l 1,928,-1
138 185 m 1,931,-1
 135 185 l 1,932,933
 137 190 137 190 129 200.5 c 128,-1,934
 121 211 121 211 121 214 c 0,935,936
 121 218 121 218 127 221 c 1,937,-1
 130 217 l 1,938,939
 130 217 130 217 125 214 c 1,940,941
 128 209 128 209 134 210 c 1,942,943
 132 208 132 208 132 206 c 0,944,945
 132 203 132 203 137 198.5 c 128,-1,946
 142 194 142 194 142 192 c 0,947,948
 142 189 142 189 138 185 c 1,931,-1
374 48 m 1,949,-1
 364 40 l 2,950,951
 365 39 365 39 365 36 c 0,952,953
 365 27 365 27 354.5 20 c 128,-1,954
 344 13 344 13 334 13 c 0,955,956
 328 13 328 13 316 16 c 128,-1,957
 304 19 304 19 298 19 c 0,958,959
 284 19 284 19 277 5 c 0,960,961
 272 2 272 2 268 2 c 0,962,963
 262 2 262 2 251 9.5 c 128,-1,964
 240 17 240 17 236 17 c 2,965,-1
 261 21 l 1,966,-1
 259 20 l 1,967,968
 286 15 286 15 292 16 c 1,969,-1
 288 20 l 1,970,-1
 294 29 l 2,971,972
 298 35 298 35 302 35 c 256,973,974
 306 35 306 35 316 30 c 1,975,-1
 323 39 l 1,976,-1
 325 37 l 1,977,978
 320 34 320 34 320 32 c 256,979,980
 320 30 320 30 325 28 c 2,981,-1
 337 30 l 1,982,-1
 336 28 l 1,983,984
 344 24 344 24 346 25 c 0,985,986
 349 33 349 33 356 51 c 1,987,988
 362 51 362 51 374 48 c 1,949,-1
188 150 m 1,989,-1
 180 141 l 1,990,-1
 180 150 l 1,991,-1
 188 150 l 1,989,-1
270 70 m 0,992,993
 271 66 271 66 268 60 c 1,994,995
 267 66 267 66 261 67 c 0,996,997
 255 66 255 66 250 66 c 0,998,999
 245 67 245 67 245 70 c 1,1000,1001
 249 70 249 70 256 73 c 1,1002,-1
 250 79 l 2,1003,1004
 248 77 248 77 247 78 c 2,1005,-1
 245 79 l 1,1006,1007
 249 82 249 82 252 82 c 256,1008,1009
 255 82 255 82 260.5 76 c 128,-1,1010
 266 70 266 70 270 70 c 0,992,993
113 214 m 2,1011,1012
 113 214 113 214 107.5 216 c 128,-1,1013
 102 218 102 218 102 223 c 1,1014,1015
 108 226 108 226 109 226 c 0,1016,1017
 115 222 115 222 115 218 c 0,1018,1019
 115 216 115 216 113 214 c 2,1011,1012
165 164 m 1,1020,-1
 164 161 l 1,1021,-1
 160 158 l 1,1022,-1
 159 164 l 1,1023,-1
 165 164 l 1,1020,-1
436 -104 m 0,1024,1025
 431 -115 431 -115 415 -115 c 0,1026,1027
 413 -112 413 -112 416.5 -108 c 128,-1,1028
 420 -104 420 -104 420 -102 c 256,1029,1030
 420 -100 420 -100 417 -97 c 0,1031,1032
 409 -99 409 -99 408 -99 c 1,1033,1034
 408 -97 408 -97 415 -95 c 128,-1,1035
 422 -93 422 -93 422 -90 c 0,1036,1037
 422 -81 422 -81 408 -83 c 0,1038,1039
 401 -84 401 -84 398 -80 c 2,1040,-1
 398 -75 l 1,1041,1042
 402 -73 402 -73 409 -76.5 c 128,-1,1043
 416 -80 416 -80 418 -80 c 0,1044,1045
 422 -80 422 -80 426 -75 c 1,1046,1047
 424 -77 424 -77 429 -78.5 c 128,-1,1048
 434 -80 434 -80 434 -83 c 0,1049,1050
 434 -85 434 -85 433 -86 c 2,1051,-1
 427 -86 l 2,1052,1053
 425 -88 425 -88 429 -94 c 1,1054,1055
 424 -99 424 -99 424 -101 c 0,1056,1057
 426 -106 426 -106 430 -104 c 0,1058,1059
 432 -102 432 -102 433 -102 c 0,1060,1061
 435 -103 435 -103 436 -104 c 0,1024,1025
280 40 m 1,1062,-1
 277 40 l 1,1063,-1
 274 46 l 1,1064,-1
 280 42 l 1,1065,-1
 280 40 l 1,1062,-1
166 153 m 1,1066,-1
 164 153 l 1,1067,-1
 164 155 l 1,1068,-1
 166 155 l 1,1069,-1
 166 153 l 1,1066,-1
71 224 m 1,1070,1071
 63 253 63 253 63 265 c 1,1072,1073
 59 267 59 267 60 272 c 2,1074,-1
 60 281 l 1,1075,1076
 70 252 70 252 71 224 c 1,1070,1071
289 39 m 2,1077,1078
 287 38 287 38 285 33.5 c 128,-1,1079
 283 29 283 29 281 29 c 2,1080,-1
 277 31 l 2,1081,1082
 272 31 272 31 283 35 c 1,1083,1084
 280 38 280 38 280 39 c 2,1085,-1
 289 39 l 2,1077,1078
241 77 m 1,1086,-1
 238 73 l 1,1087,-1
 239 79 l 1,1088,-1
 241 79 l 1,1089,-1
 241 77 l 1,1086,-1
121 194 m 1,1090,-1
 118 194 l 1,1091,-1
 118 196 l 1,1092,-1
 121 196 l 1,1093,-1
 121 194 l 1,1090,-1
135 179 m 1,1094,-1
 124 179 l 2,1095,1096
 124 181 124 181 121 184 c 2,1097,-1
 118 184 l 2,1098,1099
 128 186 128 186 135 179 c 1,1094,-1
351 -32 m 1,1100,1101
 348 -32 348 -32 330 -29 c 0,1102,1103
 319 -27 319 -27 311 -33 c 1,1104,-1
 311 -28 l 2,1105,1106
 313 -29 313 -29 318 -25 c 1,1107,-1
 318 -16 l 1,1108,1109
 339 -13 339 -13 351 -32 c 1,1100,1101
111 198 m 1,1110,-1
 109 193 l 1,1111,1112
 104 194 104 194 100 207 c 1,1113,1114
 110 209 110 209 111 198 c 1,1110,-1
383 -78 m 1,1115,-1
 380 -78 l 1,1116,-1
 383 -76 l 1,1117,-1
 383 -78 l 1,1115,-1
351 -42 m 2,1118,1119
 351 -47 351 -47 350 -48 c 2,1120,-1
 347 -48 l 1,1121,-1
 351 -42 l 2,1118,1119
174 143 m 1,1122,1123
 171 145 171 145 165 145 c 0,1124,1125
 160 145 160 145 152 143 c 1,1126,1127
 148 134 148 134 144 134 c 2,1128,-1
 143 136 l 1,1129,1130
 148 138 148 138 147 143 c 256,1131,1132
 146 148 146 148 144 152 c 1,1133,1134
 142 151 142 151 138 148 c 1,1135,-1
 139 145 l 1,1136,-1
 130 145 l 2,1137,1138
 133 145 133 145 134 149.5 c 128,-1,1139
 135 154 135 154 136 154 c 0,1140,1141
 138 153 138 153 139 152 c 2,1142,1143
 139 152 139 152 140.5 157 c 128,-1,1144
 142 162 142 162 147 161 c 1,1145,1146
 149 154 149 154 160.5 149.5 c 128,-1,1147
 172 145 172 145 174 143 c 1,1122,1123
116 181 m 1,1148,-1
 113 181 l 1,1149,-1
 110 186 l 1,1150,-1
 116 184 l 1,1151,-1
 116 181 l 1,1148,-1
88 206 m 1,1152,-1
 84 208 l 1,1153,-1
 85 212 l 1,1154,-1
 87 212 l 1,1155,-1
 88 206 l 1,1152,-1
118 176 m 1,1156,-1
 111 176 l 1,1157,-1
 111 179 l 1,1158,-1
 118 179 l 1,1159,-1
 118 176 l 1,1156,-1
134 164 m 2,1160,1161
 132 161 132 161 120 162 c 1,1162,-1
 118 164 l 1,1163,-1
 134 164 l 2,1160,1161
166 126 m 1,1164,1165
 162 122 162 122 157 122 c 0,1166,1167
 155 122 155 122 152 123 c 0,1168,1169
 151 126 151 126 153 131 c 0,1170,1171
 157 133 157 133 161 129.5 c 128,-1,1172
 165 126 165 126 166 126 c 1,1164,1165
404 -64 m 1,1173,1174
 391 -66 391 -66 383 -66 c 256,1175,1176
 375 -66 375 -66 373 -64 c 2,1177,-1
 376 -62 l 1,1178,-1
 376 -58 l 1,1179,1180
 370 -57 370 -57 365 -57 c 0,1181,1182
 355 -57 355 -57 336 -66 c 128,-1,1183
 317 -75 317 -75 307 -75 c 0,1184,1185
 300 -75 300 -75 293 -72 c 0,1186,1187
 293 -69 293 -69 299.5 -69 c 128,-1,1188
 306 -69 306 -69 307 -67 c 1,1189,1190
 309 -72 309 -72 313 -69 c 0,1191,1192
 319 -65 319 -65 321 -66 c 2,1193,-1
 321 -62 l 1,1194,1195
 330 -62 330 -62 332 -66 c 1,1196,1197
 336 -65 336 -65 335 -61 c 0,1198,1199
 335 -59 335 -59 334 -56 c 0,1200,1201
 336 -55 336 -55 339 -55 c 0,1202,1203
 341 -59 341 -59 344 -58 c 2,1204,-1
 350 -58 l 1,1205,1206
 353 -51 353 -51 361 -51 c 0,1207,1208
 364 -51 364 -51 372 -53.5 c 128,-1,1209
 380 -56 380 -56 383 -56 c 256,1210,1211
 386 -56 386 -56 389 -55 c 1,1212,1213
 390 -59 390 -59 396 -59.5 c 128,-1,1214
 402 -60 402 -60 404 -64 c 1,1173,1174
259 44 m 0,1215,1216
 224 41 224 41 213 51 c 1,1217,1218
 222 57 222 57 243 56 c 0,1219,1220
 259 55 259 55 259 51 c 0,1221,1222
 259 50 259 50 258 49 c 1,1223,1224
 259 48 259 48 259 44 c 0,1215,1216
371 -99 m 1,1225,-1
 365 -99 l 1,1226,-1
 365 -92 l 1,1227,1228
 369 -91 369 -91 370 -95 c 128,-1,1229
 371 -99 371 -99 371 -99 c 1,1225,-1
135 134 m 1,1230,-1
 115 136 l 1,1231,1232
 113 142 113 142 118 155 c 1,1233,-1
 118 157 l 1,1234,-1
 124 157 l 1,1235,-1
 124 155 l 2,1236,1237
 122 155 122 155 116 150 c 1,1238,-1
 116 148 l 1,1239,-1
 121 148 l 2,1240,1241
 124 148 124 148 121 147 c 0,1242,1243
 116 144 116 144 118 141 c 0,1244,1245
 135 144 135 144 135 134 c 1,1230,-1
347 -81 m 1,1246,-1
 345 -81 l 1,1247,-1
 345 -80 l 1,1248,-1
 347 -80 l 1,1249,-1
 347 -81 l 1,1246,-1
404 -117 m 1,1250,1251
 384 -130 384 -130 375 -130 c 0,1252,1253
 372 -130 372 -130 369 -129 c 1,1254,1255
 381 -125 381 -125 404 -117 c 1,1250,1251
111 157 m 2,1256,1257
 111 154 111 154 106 154 c 2,1258,-1
 102 157 l 1,1259,-1
 111 157 l 2,1256,1257
97 164 m 0,1260,1261
 95 162 95 162 90 162.5 c 128,-1,1262
 85 163 85 163 85 161 c 256,1263,1264
 85 159 85 159 86 157 c 0,1265,1266
 94 125 94 125 91 108 c 1,1267,1268
 74 179 74 179 72 221 c 1,1269,1270
 75 200 75 200 80 193 c 1,1271,-1
 86 193 l 1,1272,-1
 80 184 l 1,1273,1274
 90 182 90 182 97 164 c 0,1260,1261
224 25 m 1,1275,-1
 219 25 l 2,1276,1277
 218 26 218 26 221 28 c 2,1278,-1
 224 25 l 1,1275,-1
360 -99 m 1,1279,1280
 355 -101 355 -101 357 -106 c 128,-1,1281
 359 -111 359 -111 356 -113 c 2,1282,-1
 339 -111 l 1,1283,1284
 342 -104 342 -104 333 -92 c 1,1285,1286
 338 -94 338 -94 346 -90 c 1,1287,1288
 345 -92 345 -92 345 -93 c 0,1289,1290
 345 -96 345 -96 352 -97 c 128,-1,1291
 359 -98 359 -98 360 -99 c 1,1279,1280
257 -9 m 1,1292,-1
 244 -6 l 1,1293,-1
 244 -4 l 1,1294,-1
 256 -3 l 1,1295,-1
 257 -9 l 1,1292,-1
244 5 m 1,1296,-1
 234 -4 l 1,1297,-1
 236 7 l 1,1298,-1
 239 7 l 1,1299,-1
 244 5 l 1,1296,-1
328 -88 m 1,1300,-1
 325 -88 l 1,1301,-1
 325 -85 l 1,1302,-1
 328 -85 l 1,1303,-1
 328 -88 l 1,1300,-1
231 20 m 2,1304,1305
 230 19 230 19 228 17 c 128,-1,1306
 226 15 226 15 226 13 c 0,1307,1308
 226 12 226 12 227 11 c 1,1309,1310
 225 9 225 9 222 9 c 0,1311,1312
 220 9 220 9 217 10 c 0,1313,1314
 205 17 205 17 195 25 c 0,1315,1316
 188 29 188 29 191 37 c 1,1317,1318
 191 37 191 37 196 40 c 1,1319,1320
 196 51 196 51 194 48 c 2,1321,-1
 201 48 l 2,1322,1323
 200 47 200 47 197.5 46 c 128,-1,1324
 195 45 195 45 196 42 c 2,1325,-1
 205 39 l 2,1326,1327
 199 40 199 40 196 35 c 0,1328,1329
 197 34 197 34 201 27 c 128,-1,1330
 205 20 205 20 212 20 c 2,1331,-1
 231 20 l 2,1304,1305
324 -93 m 1,1332,-1
 317 -96 l 1,1333,-1
 321 -90 l 1,1334,-1
 324 -90 l 1,1335,-1
 324 -93 l 1,1332,-1
246 -23 m 1,1336,-1
 241 -23 l 1,1337,-1
 244 -11 l 1,1338,-1
 246 -11 l 1,1339,-1
 246 -23 l 1,1336,-1
330 -101 m 1,1340,-1
 327 -104 l 2,1341,1342
 327 -102 327 -102 325 -99 c 2,1343,-1
 330 -101 l 1,1340,-1
328 -126 m 1,1344,-1
 325 -126 l 1,1345,-1
 325 -124 l 1,1346,-1
 328 -124 l 1,1347,-1
 328 -126 l 1,1344,-1
102 93 m 1,1348,-1
 93 95 l 1,1349,-1
 93 97 l 1,1350,-1
 102 102 l 1,1351,-1
 102 93 l 1,1348,-1
97 83 m 1,1352,-1
 95 83 l 1,1353,-1
 95 90 l 2,1354,1355
 96 88 96 88 97 83 c 1,1352,-1
106 69 m 1,1356,-1
 97 73 l 1,1357,-1
 97 76 l 1,1358,-1
 102 81 l 1,1359,-1
 106 69 l 1,1356,-1
341 -143 m 1,1360,1361
 316 -163 316 -163 272 -166 c 1,1362,1363
 277 -157 277 -157 297.5 -151.5 c 128,-1,1364
 318 -146 318 -146 323 -136 c 1,1365,-1
 321 -134 l 2,1366,1367
 324 -133 324 -133 325 -133 c 1,1368,1369
 325 -137 325 -137 341 -143 c 1,1360,1361
288 -120 m 1,1370,1371
 279 -131 279 -131 268 -131 c 0,1372,1373
 261 -131 261 -131 247 -125.5 c 128,-1,1374
 233 -120 233 -120 226 -120 c 0,1375,1376
 221 -120 221 -120 217 -122 c 1,1377,1378
 223 -123 223 -123 231 -118 c 0,1379,1380
 243 -111 243 -111 245 -110 c 0,1381,1382
 248 -112 248 -112 253 -119 c 1,1383,-1
 250 -120 l 1,1384,1385
 252 -124 252 -124 255 -124 c 0,1386,1387
 257 -123 257 -123 259 -122 c 128,-1,1388
 261 -121 261 -121 261 -117 c 1,1389,1390
 267 -119 267 -119 272 -110 c 1,1391,-1
 268 -106 l 1,1392,-1
 272 -103 l 1,1393,-1
 266 -95 l 2,1394,1395
 273 -99 273 -99 284 -108 c 1,1396,1397
 282 -112 282 -112 288 -120 c 1,1370,1371
269 -169 m 1,1398,-1
 266 -169 l 1,1399,-1
 266 -166 l 1,1400,-1
 269 -166 l 1,1401,-1
 269 -169 l 1,1398,-1
208 -104 m 1,1402,-1
 200 -105 l 1,1403,-1
 200 -103 l 1,1404,-1
 202 -103 l 1,1405,-1
 208 -104 l 1,1402,-1
221 -110 m 0,1406,1407
 220 -112 220 -112 217 -117 c 1,1408,1409
 214 -114 214 -114 210 -112 c 256,1410,1411
 206 -110 206 -110 203 -113 c 1,1412,-1
 201 -111 l 1,1413,1414
 209 -108 209 -108 215 -108 c 0,1415,1416
 219 -108 219 -108 221 -110 c 0,1406,1407
205 -138 m 1,1417,1418
 191 -138 191 -138 180 -107 c 0,1419,1420
 177 -107 177 -107 171 -117 c 1,1421,-1
 160 -117 l 2,1422,1423
 168 -114 168 -114 168 -97 c 1,1424,-1
 173 -97 l 2,1425,1426
 173 -98 173 -98 174 -101 c 0,1427,1428
 176 -102 176 -102 186 -97 c 1,1429,1430
 184 -102 184 -102 184 -105 c 0,1431,1432
 184 -115 184 -115 197.5 -120 c 128,-1,1433
 211 -125 211 -125 211 -127 c 0,1434,1435
 211 -131 211 -131 205 -138 c 1,1417,1418
259 -177 m 1,1436,1437
 240 -179 240 -179 203 -189 c 1,1438,-1
 196 -181 l 1,1439,1440
 227 -165 227 -165 243 -165 c 0,1441,1442
 252 -165 252 -165 259 -168 c 1,1443,-1
 259 -177 l 1,1436,1437
133 -103 m 1,1444,-1
 130 -104 l 1,1445,1446
 122 -97 122 -97 120 -80 c 0,1447,1448
 118 -59 118 -59 118 -53 c 1,1449,1450
 123 -69 123 -69 133 -103 c 1,1444,-1
141 -157 m 1,1451,1452
 136 -152 136 -152 130 -113 c 1,1453,1454
 143 -152 143 -152 141 -157 c 1,1451,1452
150 -169 m 1,1455,-1
 147 -176 l 1,1456,-1
 144 -176 l 1,1457,-1
 144 -173 l 1,1458,-1
 150 -169 l 1,1455,-1
174 -200 m 1,1459,1460
 171 -205 171 -205 162 -203 c 256,1461,1462
 153 -201 153 -201 147 -200 c 1,1463,1464
 146 -195 146 -195 144 -186 c 1,1465,-1
 159 -184 l 1,1466,1467
 166 -201 166 -201 174 -200 c 1,1459,1460
539 684 m 1,1468,-1
 533 684 l 1,1469,-1
 537 680 l 1,1470,-1
 539 684 l 1,1468,-1
634 567 m 1,1471,-1
 634 570 l 1,1472,-1
 629 569 l 1,1473,-1
 634 567 l 1,1471,-1
626 564 m 1,1474,-1
 626 567 l 1,1475,-1
 624 567 l 1,1476,-1
 624 564 l 1,1477,-1
 626 564 l 1,1474,-1
376 528 m 1,1478,-1
 371 526 l 1,1479,-1
 373 525 l 1,1480,-1
 376 528 l 1,1478,-1
239 652 m 1,1481,1482
 239 655 239 655 236 657 c 1,1483,1484
 236 653 236 653 239 652 c 1,1481,1482
234 642 m 1,1485,-1
 234 645 l 1,1486,-1
 231 645 l 1,1487,-1
 231 642 l 1,1488,-1
 234 642 l 1,1485,-1
588 514 m 1,1489,1490
 548 593 548 593 448 685 c 1,1491,1492
 426 665 426 665 410.5 628 c 128,-1,1493
 395 591 395 591 395 560 c 0,1494,1495
 395 527 395 527 409 468 c 0,1496,1497
 424 401 424 401 426 374 c 0,1498,1499
 428 362 428 362 428 349 c 0,1500,1501
 428 304 428 304 393 258 c 0,1502,1503
 371 229 371 229 323 185 c 1,1504,1505
 336 186 336 186 349 186 c 0,1506,1507
 418 186 418 186 524 145 c 1,1508,1509
 513 185 513 185 503 255 c 2,1510,-1
 495 308 l 2,1511,1512
 489 351 489 351 486 366 c 0,1513,1514
 457 509 457 509 452 567 c 0,1515,1516
 454 570 454 570 457.5 568 c 128,-1,1517
 461 566 461 566 462 569 c 1,1518,1519
 475 539 475 539 481 489 c 2,1520,-1
 491 406 l 1,1521,1522
 509 421 509 421 545 451 c 0,1523,1524
 578 480 578 480 588 514 c 1,1489,1490
208 652 m 1,1525,-1
 208 656 l 1,1526,-1
 203 659 l 1,1527,-1
 208 652 l 1,1525,-1
180 662 m 1,1528,-1
 180 665 l 1,1529,-1
 177 665 l 1,1530,-1
 177 662 l 1,1531,-1
 180 662 l 1,1528,-1
169 667 m 1,1532,1533
 160 673 160 673 157 670 c 2,1534,-1
 157 665 l 1,1535,-1
 166 662 l 1,1536,1537
 169 668 169 668 169 667 c 1,1532,1533
630 159 m 1,1538,1539
 621 214 621 214 606 321 c 0,1540,1541
 599 350 599 350 562 365 c 0,1542,1543
 554 368 554 368 496 383 c 1,1544,1545
 523 260 523 260 537 146 c 1,1546,1547
 546 134 546 134 588 122 c 1,1548,1549
 593 131 593 131 609 141.5 c 128,-1,1550
 625 152 625 152 630 159 c 1,1538,1539
337 441 m 2,1551,-1
 337 445 l 1,1552,-1
 333 445 l 1,1553,-1
 333 444 l 2,1554,1555
 336 444 336 444 337 441 c 2,1551,-1
367 381 m 1,1556,-1
 364 387 l 1,1557,-1
 360 385 l 1,1558,-1
 367 381 l 1,1556,-1
386 344 m 1,1559,-1
 386 353 l 1,1560,-1
 383 352 l 1,1561,-1
 386 344 l 1,1559,-1
215 482 m 1,1562,1563
 216 483 216 483 217 484 c 1,1564,1565
 216 485 216 485 215 486 c 2,1566,-1
 213 489 l 2,1567,1568
 213 487 213 487 215 482 c 1,1562,1563
226 459 m 1024,1569,-1
619 27 m 1,1570,-1
 619 30 l 1,1571,-1
 616 30 l 1,1572,-1
 616 27 l 1,1573,-1
 619 27 l 1,1570,-1
523 81 m 1,1574,-1
 523 83 l 1,1575,-1
 515 83 l 1,1576,-1
 515 81 l 1,1577,-1
 523 81 l 1,1574,-1
224 326 m 1,1578,-1
 223 332 l 1,1579,-1
 219 329 l 1,1580,-1
 219 326 l 1,1581,-1
 224 326 l 1,1578,-1
483 -38 m 1,1582,-1
 483 -36 l 1,1583,-1
 480 -36 l 1,1584,-1
 480 -38 l 1,1585,-1
 483 -38 l 1,1582,-1
338 24 m 1,1586,-1
 338 26 l 1,1587,-1
 336 26 l 1,1588,-1
 336 24 l 1,1589,-1
 338 24 l 1,1586,-1
381 -27 m 2,1590,-1
 376 -23 l 1,1591,1592
 370 -29 370 -29 371 -30 c 0,1593,1594
 373 -30 373 -30 376.5 -28.5 c 128,-1,1595
 380 -27 380 -27 381 -27 c 2,1590,-1
430 -86 m 1,1596,-1
 430 -83 l 1,1597,-1
 427 -83 l 1,1598,-1
 427 -86 l 1,1599,-1
 430 -86 l 1,1596,-1
256 14 m 1,1600,-1
 256 16 l 1,1601,-1
 253 16 l 1,1602,-1
 253 14 l 1,1603,-1
 256 14 l 1,1600,-1
89 163 m 1,1604,-1
 89 166 l 1,1605,-1
 86 166 l 1,1606,-1
 86 163 l 1,1607,-1
 89 163 l 1,1604,-1
268 -69 m 1,1608,-1
 259 -71 l 1,1609,-1
 261 -72 l 2,1610,1611
 265 -74 265 -74 268 -69 c 1,1608,-1
274 -122 m 1,1612,-1
 274 -120 l 1,1613,-1
 266 -120 l 1,1614,-1
 266 -122 l 1,1615,-1
 274 -122 l 1,1612,-1
455 190 m 1,1616,-1
 446 184 l 1,1617,-1
 452 193 l 1,1618,-1
 455 193 l 1,1619,-1
 455 190 l 1,1616,-1
EndSplineSet
Validated: 165
EndChar

StartChar: C
Encoding: 67 67 28
Width: 779
Flags: W
LayerCount: 2
Back
Fore
SplineSet
594 503 m 1,0,1
 590 499 590 499 588 500 c 2,2,-1
 585 503 l 1,3,-1
 594 503 l 1,0,1
609 417 m 0,4,5
 600 416 600 416 599 423 c 2,6,-1
 599 439 l 2,7,8
 599 449 599 449 594 452 c 1,9,10
 598 460 598 460 604 457 c 1,11,12
 614 427 614 427 614 426 c 0,13,14
 614 420 614 420 609 417 c 0,4,5
535 444 m 1,15,16
 531 445 531 445 529 440 c 1,17,-1
 527 444 l 1,18,-1
 535 449 l 1,19,-1
 535 444 l 1,15,16
416 419 m 2,20,21
 416 418 416 418 406 411 c 1,22,23
 403 414 403 414 403 419 c 1,24,-1
 416 419 l 2,20,21
736 204 m 1,25,26
 631 -1 631 -1 479 9 c 1,27,28
 425 3 425 3 383 3 c 0,29,30
 230 3 230 3 156 76 c 1,31,32
 105 106 105 106 70 171 c 0,33,34
 50 208 50 208 22 288 c 1,35,-1
 12 290 l 1,36,37
 13 295 13 295 29 296 c 0,38,39
 36 296 36 296 38 302 c 1,40,-1
 27 310 l 1,41,42
 35 314 35 314 35 325 c 0,43,44
 35 330 35 330 33 340 c 128,-1,45
 31 350 31 350 31 355 c 256,46,47
 31 360 31 360 32 363 c 2,48,-1
 27 369 l 1,49,-1
 19 360 l 2,50,51
 35 384 35 384 55 451 c 0,52,53
 75 515 75 515 97 543 c 0,54,55
 201 706 201 706 437 706 c 0,56,57
 483 706 483 706 529 699 c 0,58,59
 534 702 534 702 536 708 c 2,60,-1
 540 720 l 1,61,-1
 537 722 l 1,62,63
 553 746 553 746 590 753 c 0,64,65
 603 756 603 756 613.5 744.5 c 128,-1,66
 624 733 624 733 631 726 c 1,67,68
 636 708 636 708 655.5 673 c 128,-1,69
 675 638 675 638 679 618 c 0,70,71
 683 612 683 612 712 583 c 0,72,73
 732 563 732 563 733 540 c 1,74,75
 718 488 718 488 667 488 c 0,76,77
 633 488 633 488 583 534 c 0,78,79
 537 576 537 576 494 586 c 1,80,81
 465 603 465 603 418 603 c 0,82,83
 360 603 360 603 306 575 c 1,84,85
 236 511 236 511 236 407 c 0,86,87
 236 352 236 352 255 299 c 0,88,89
 304 162 304 162 467 129 c 1,90,91
 523 135 523 135 575 172.5 c 128,-1,92
 627 210 627 210 655 261 c 1,93,94
 673 267 673 267 688 267 c 0,95,96
 706 267 706 267 719 258 c 1,97,98
 734 235 734 235 736 204 c 1,25,26
285 459 m 1,99,100
 281 457 281 457 274 471 c 1,101,-1
 285 471 l 1,102,-1
 285 459 l 1,99,100
301 363 m 2,103,104
 299 363 299 363 295 366 c 1,105,-1
 301 369 l 1,106,-1
 301 363 l 2,103,104
36 223 m 0,107,108
 34 222 34 222 26 239 c 2,109,-1
 17 256 l 1,110,-1
 22 262 l 2,111,112
 27 268 27 268 30 268 c 0,113,114
 32 268 32 268 34 266 c 0,115,116
 38 245 38 245 38 234 c 0,117,118
 38 226 38 226 36 223 c 0,107,108
602 712 m 1,119,120
 592 716 592 716 584 716 c 0,121,122
 570 716 570 716 564 704 c 1,123,124
 584 701 584 701 602 712 c 1,119,120
609 699 m 1,125,-1
 559 688 l 2,126,127
 558 687 558 687 587 687 c 0,128,129
 605 687 605 687 609 699 c 1,125,-1
661 605 m 1,130,131
 650 610 650 610 638 610 c 0,132,133
 628 610 628 610 604.5 603 c 128,-1,134
 581 596 581 596 569 597 c 1,135,136
 563 588 563 588 564 586 c 0,137,138
 576 589 576 589 613 592 c 0,139,140
 644 594 644 594 661 605 c 1,130,131
684 561 m 1,141,142
 678 568 678 568 670 568 c 0,143,144
 664 568 664 568 648 560 c 128,-1,145
 632 552 632 552 624 552 c 0,146,147
 619 552 619 552 615 553 c 1,148,149
 619 551 619 551 627 551 c 0,150,151
 636 551 636 551 655.5 556 c 128,-1,152
 675 561 675 561 684 561 c 1,141,142
671 580 m 1,153,154
 664 584 664 584 650 584 c 0,155,156
 633 584 633 584 588 575 c 1,157,158
 596 567 596 567 610 567 c 0,159,160
 620 567 620 567 641 573 c 0,161,162
 666 580 666 580 671 580 c 1,153,154
692 543 m 1,163,164
 682 548 682 548 664 545 c 2,165,-1
 634 540 l 1,166,-1
 634 530 l 1,167,168
 639 529 639 529 646 529 c 0,169,170
 670 529 670 529 692 543 c 1,163,164
648 632 m 1,171,172
 639 634 639 634 629 634 c 0,173,174
 612 634 612 634 573 622 c 128,-1,175
 534 610 534 610 513 611 c 1,176,177
 527 604 527 604 543 604 c 0,178,179
 565 604 565 604 596 615 c 0,180,181
 640 631 640 631 648 632 c 1,171,172
636 653 m 1,182,183
 624 656 624 656 610 656 c 0,184,185
 586 656 586 656 541 644 c 0,186,187
 491 630 491 630 470 628 c 1,188,-1
 470 624 l 1,189,190
 514 620 514 620 636 653 c 1,182,183
615 669 m 1,191,192
 486 665 486 665 183 597 c 1,193,-1
 183 591 l 1,194,195
 241 604 241 604 400 628 c 0,196,197
 533 648 533 648 615 669 c 1,191,192
473 664 m 1,198,199
 388 662 388 662 348 657 c 0,200,201
 275 648 275 648 228 624 c 1,202,-1
 473 664 l 1,198,199
679 242 m 0,203,204
 668 242 668 242 669 237 c 1,205,-1
 677 237 l 2,206,207
 680 240 680 240 679 242 c 0,203,204
698 218 m 1,208,209
 692 206 692 206 676 207 c 256,210,211
 660 208 660 208 650 208 c 1,212,213
 648 196 648 196 658 189 c 1,214,215
 654 183 654 183 640.5 181.5 c 128,-1,216
 627 180 627 180 625 170 c 1,217,218
 650 171 650 171 660 173 c 0,219,220
 683 177 683 177 692 185 c 1,221,-1
 658 189 l 1,222,223
 661 199 661 199 675 200 c 0,224,225
 685 199 685 199 696 199 c 0,226,227
 704 202 704 202 704 208 c 0,228,229
 704 212 704 212 700.5 219 c 128,-1,230
 697 226 697 226 697 230 c 0,231,232
 697 232 697 232 698 235 c 1,233,234
 693 228 693 228 681 228 c 1,235,-1
 681 228 l 1,236,237
 670 228 670 228 665 221 c 1,238,239
 677 223 677 223 698 218 c 1,208,209
279 584 m 1,240,241
 269 587 269 587 255 587 c 0,242,243
 192 587 192 587 159 557 c 1,244,245
 199 564 199 564 279 584 c 1,240,241
247 557 m 1,246,247
 242 556 242 556 189 549 c 0,248,249
 153 544 153 544 134 532 c 1,250,251
 145 528 145 528 158 528 c 0,252,253
 194 528 194 528 247 557 c 1,246,247
226 519 m 1,254,255
 217 525 217 525 203 525 c 0,256,257
 191 525 191 525 161 517 c 128,-1,258
 131 509 131 509 116 508 c 1,259,260
 124 504 124 504 135 504 c 0,261,262
 149 504 149 504 179.5 512 c 128,-1,263
 210 520 210 520 226 519 c 1,254,255
220 500 m 1,264,265
 137 502 137 502 97 467 c 1,266,267
 171 473 171 473 220 500 c 1,264,265
212 465 m 1,268,269
 202 469 202 469 186 469 c 0,270,271
 125 469 125 469 84 440 c 1,272,273
 118 448 118 448 212 465 c 1,268,269
207 438 m 1,274,275
 192 444 192 444 173 444 c 0,276,277
 133 444 133 444 80 423 c 1,278,279
 144 424 144 424 207 438 c 1,274,275
677 162 m 1,280,281
 621 162 621 162 602 148 c 1,282,283
 607 147 607 147 618.5 149 c 128,-1,284
 630 151 630 151 634 151 c 0,285,286
 643 151 643 151 650 145 c 1,287,288
 609 137 609 137 535 122 c 1,289,-1
 535 110 l 1,290,291
 539 111 539 111 581 119 c 0,292,293
 609 124 609 124 625 122 c 1,294,295
 570 100 570 100 523 103 c 1,296,297
 483 81 483 81 400 73 c 0,298,299
 310 64 310 64 274 49 c 1,300,301
 277 46 277 46 277 43 c 0,302,303
 287 40 287 40 298 40 c 0,304,305
 308 40 308 40 328 44.5 c 128,-1,306
 348 49 348 49 358 49 c 0,307,308
 367 49 367 49 376 47 c 1,309,310
 375 46 375 46 352 36 c 1,311,312
 364 34 364 34 377 34 c 0,313,314
 407 34 407 34 460 45 c 0,315,316
 523 58 523 58 540 60 c 1,317,318
 527 57 527 57 502 43 c 1,319,-1
 537 43 l 1,320,321
 539 47 539 47 553 50 c 0,322,323
 563 52 563 52 561 62 c 0,324,325
 559 65 559 65 552 63 c 128,-1,326
 545 61 545 61 542 65 c 1,327,328
 548 70 548 70 576 74 c 0,329,330
 599 77 599 77 602 89 c 1,331,332
 589 87 589 87 489 65 c 0,333,334
 422 50 422 50 376 49 c 1,335,336
 424 65 424 65 493 79 c 2,337,-1
 615 103 l 1,338,339
 641 115 641 115 639 127 c 0,340,341
 641 132 641 132 655 132 c 0,342,343
 660 135 660 135 660 139 c 0,344,345
 660 142 660 142 658 145 c 0,346,347
 662 153 662 153 671 151 c 1,348,349
 678 158 678 158 677 162 c 1,280,281
205 406 m 1,350,351
 195 417 195 417 177 417 c 0,352,353
 165 417 165 417 140.5 411 c 128,-1,354
 116 405 116 405 104 405 c 0,355,356
 97 405 97 405 92 406 c 0,357,358
 71 399 71 399 71 387 c 0,359,360
 71 385 71 385 73 382 c 0,361,362
 91 384 91 384 139 396 c 0,363,364
 180 406 180 406 205 406 c 1,350,351
205 385 m 1,365,366
 192 388 192 388 179 388 c 0,367,368
 157 388 157 388 122 377 c 0,369,370
 81 365 81 365 65 363 c 1,371,372
 78 360 78 360 96 360 c 0,373,374
 154 360 154 360 205 385 c 1,365,366
212 358 m 1,375,376
 202 359 202 359 190 359 c 0,377,378
 165 359 165 359 65 333 c 1,379,380
 75 331 75 331 86 331 c 0,381,382
 109 331 109 331 212 358 c 1,375,376
453 10 m 1,383,-1
 453 14 l 1,384,-1
 448 14 l 1,385,-1
 448 10 l 1,386,-1
 453 10 l 1,383,-1
218 331 m 1,387,388
 206 332 206 332 193 332 c 0,389,390
 108 332 108 332 67 302 c 1,391,392
 79 303 79 303 218 331 c 1,387,388
489 100 m 1,393,394
 465 105 465 105 439 105 c 0,395,396
 386 105 386 105 226 62 c 1,397,-1
 231 57 l 1,398,399
 318 69 318 69 489 100 c 1,393,394
226 304 m 1,400,401
 212 307 212 307 195 307 c 0,402,403
 162 307 162 307 65 277 c 1,404,405
 95 274 95 274 143 284 c 0,406,407
 170 291 170 291 226 304 c 1,400,401
231 266 m 1,408,409
 219 278 219 278 193 278 c 0,410,411
 166 278 166 278 70 248 c 1,412,413
 80 247 80 247 90 247 c 0,414,415
 117 247 117 247 161 255 c 0,416,417
 216 264 216 264 231 266 c 1,408,409
241 256 m 1,418,419
 212 255 212 255 158 243 c 128,-1,420
 104 231 104 231 78 229 c 1,421,422
 93 223 93 223 116 223 c 0,423,424
 185 223 185 223 241 256 c 1,418,419
389 116 m 1,425,426
 357 114 357 114 297 103 c 0,427,428
 226 90 226 90 201 87 c 1,429,430
 213 85 213 85 228 85 c 0,431,432
 265 85 265 85 389 116 c 1,425,426
255 229 m 1,433,434
 177 233 177 233 89 199 c 1,435,436
 124 198 124 198 173 211 c 0,437,438
 234 227 234 227 255 229 c 1,433,434
358 132 m 1,439,440
 298 122 298 122 180 97 c 1,441,442
 217 99 217 99 269 111 c 0,443,444
 346 128 346 128 358 132 c 1,439,440
298 183 m 1,445,446
 287 185 287 185 274 185 c 0,447,448
 239 185 239 185 124 154 c 1,449,450
 180 164 180 164 298 183 c 1,445,446
344 145 m 1,451,452
 306 146 306 146 250 134 c 2,453,-1
 156 114 l 1,454,455
 191 112 191 112 250 125 c 2,456,-1
 344 145 l 1,451,452
274 210 m 1,457,458
 263 212 263 212 252 212 c 0,459,460
 226 212 226 212 175 197.5 c 128,-1,461
 124 183 124 183 97 183 c 1,462,463
 95 179 95 179 99 175 c 128,-1,464
 103 171 103 171 103 170 c 1,465,466
 204 180 204 180 274 210 c 1,457,458
322 162 m 1,467,468
 304 165 304 165 283 165 c 0,469,470
 227 165 227 165 126 137 c 1,471,472
 127 132 127 132 132 124 c 1,473,474
 194 138 194 138 322 162 c 1,467,468
EndSplineSet
Validated: 37
EndChar

StartChar: D
Encoding: 68 68 29
Width: 800
Flags: W
LayerCount: 2
Back
Fore
SplineSet
752 509 m 0,0,1
 750 502 750 502 729 471 c 0,2,3
 714 448 714 448 714 432 c 0,4,5
 714 423 714 423 719 414 c 1,6,7
 710 413 710 413 697 401 c 1,8,9
 670 354 670 354 648 303 c 0,10,11
 623 244 623 244 608 232 c 1,12,13
 607 221 607 221 588.5 196.5 c 128,-1,14
 570 172 570 172 570 166 c 0,15,16
 570 158 570 158 579 154 c 1,17,18
 577 142 577 142 568 140 c 1,19,20
 570 144 570 144 566 145 c 0,21,22
 559 148 559 148 559 148 c 1,23,24
 549 138 549 138 549 128 c 0,25,26
 549 124 549 124 550 121 c 0,27,28
 547 109 547 109 525.5 79 c 128,-1,29
 504 49 504 49 504 38 c 0,30,31
 504 34 504 34 505 31 c 1,32,33
 505 34 505 34 501 40.5 c 128,-1,34
 497 47 497 47 497 51 c 2,35,-1
 492 43 l 2,36,37
 490 44 490 44 488 51 c 128,-1,38
 486 58 486 58 483 58 c 256,39,40
 480 58 480 58 477 55 c 0,41,42
 477 50 477 50 484.5 42 c 128,-1,43
 492 34 492 34 492 31 c 0,44,45
 492 25 492 25 481 21 c 1,46,47
 467 28 467 28 450 28 c 0,48,49
 439 28 439 28 417 24 c 128,-1,50
 395 20 395 20 384 20 c 0,51,52
 375 20 375 20 370 21 c 2,53,-1
 355 24 l 2,54,55
 352 23 352 23 330 22 c 0,56,57
 314 21 314 21 309 15 c 1,58,59
 289 13 289 13 248 19 c 1,60,61
 224 13 224 13 191 13 c 0,62,63
 179 13 179 13 156.5 14 c 128,-1,64
 134 15 134 15 122 15 c 0,65,66
 92 15 92 15 71 8 c 1,67,68
 71 10 71 10 66.5 13 c 128,-1,69
 62 16 62 16 60 15 c 0,70,71
 57 8 57 8 50 8 c 2,72,-1
 36 8 l 1,73,74
 22 32 22 32 22 62 c 0,75,76
 22 78 22 78 29 118 c 0,77,78
 35 154 35 154 33 175 c 1,79,80
 56 353 56 353 62 629 c 0,81,82
 61 632 61 632 60 638 c 0,83,84
 65 653 65 653 61.5 689.5 c 128,-1,85
 58 726 58 726 65 735 c 0,86,87
 80 746 80 746 110 747 c 0,88,89
 127 747 127 747 160 746 c 0,90,91
 178 743 178 743 201 743 c 0,92,93
 255 743 255 743 288 758 c 1,94,95
 288 753 288 753 291 751 c 0,96,97
 344 768 344 768 421 773 c 0,98,99
 465 775 465 775 554 780 c 1,100,101
 566 763 566 763 572 745 c 1,102,103
 577 750 577 750 576 751 c 2,104,-1
 575 753 l 1,105,-1
 583 753 l 1,106,-1
 581 742 l 1,107,108
 605 733 605 733 674 653 c 0,109,110
 692 635 692 635 726 599 c 0,111,112
 757 565 757 565 757 534 c 0,113,114
 757 523 757 523 752 509 c 0,0,1
258 -18 m 1,115,116
 257 -18 257 -18 248 -22 c 0,117,118
 243 -24 243 -24 240.5 -19 c 128,-1,119
 238 -14 238 -14 238 -10 c 0,120,121
 238 1 238 1 247 2 c 0,122,123
 253 0 253 0 253.5 -7.5 c 128,-1,124
 254 -15 254 -15 258 -18 c 1,115,116
557 738 m 1,125,126
 553 737 553 737 548.5 743 c 128,-1,127
 544 749 544 749 543 749 c 0,128,129
 540 749 540 749 539 742 c 0,130,131
 542 738 542 738 557 738 c 1,125,126
588 661 m 1,132,-1
 588 664 l 1,133,-1
 586 664 l 1,134,-1
 586 661 l 1,135,-1
 588 661 l 1,132,-1
511 723 m 1,136,-1
 511 727 l 1,137,-1
 508 727 l 1,138,-1
 508 723 l 1,139,-1
 511 723 l 1,136,-1
411 750 m 1,140,-1
 411 753 l 1,141,-1
 408 753 l 1,142,-1
 408 750 l 1,143,-1
 411 750 l 1,140,-1
632 536 m 1,144,145
 630 533 630 533 628 529 c 0,146,147
 626 526 626 526 630 523 c 1,148,149
 630 527 630 527 632 536 c 1,144,145
117 700 m 2,150,-1
 117 707 l 1,151,-1
 114 702 l 2,152,153
 116 700 116 700 117 700 c 2,150,-1
612 503 m 1,154,155
 598 523 598 523 584 542 c 0,156,157
 569 566 569 566 570 587 c 0,158,159
 566 627 566 627 527 653 c 0,160,161
 508 666 508 666 450 689 c 0,162,163
 445 693 445 693 441 693 c 256,164,165
 437 693 437 693 435 686 c 1,166,167
 415 688 415 688 361 699 c 0,168,169
 315 709 315 709 287 709 c 0,170,171
 272 709 272 709 258 707 c 1,172,173
 243 714 243 714 221 714 c 0,174,175
 210 714 210 714 184 711 c 128,-1,176
 158 708 158 708 144 709 c 0,177,178
 126 706 126 706 119 687 c 0,179,180
 117 681 117 681 111 651 c 1,181,182
 142 633 142 633 186 633 c 0,183,184
 205 633 205 633 226 636 c 0,185,186
 234 635 234 635 235 625 c 0,187,188
 236 611 236 611 237 609 c 0,189,190
 250 586 250 586 264 580 c 1,191,192
 247 563 247 563 247 529 c 0,193,194
 247 507 247 507 242 472 c 0,195,196
 238 446 238 446 239 327 c 0,197,198
 239 239 239 239 222 184 c 1,199,200
 184 194 184 194 155 194 c 0,201,202
 114 194 114 194 93 175 c 0,203,204
 93 173 93 173 94 163 c 0,205,206
 96 158 96 158 89 154 c 0,207,208
 86 150 86 150 86 145 c 0,209,210
 86 135 86 135 99 122 c 2,211,-1
 117 104 l 1,212,213
 106 105 106 105 163 105 c 0,214,215
 182 105 182 105 193 95 c 1,216,217
 203 94 203 94 213 102 c 1,218,219
 221 100 221 100 231 100 c 256,220,221
 241 100 241 100 262 102.5 c 128,-1,222
 283 105 283 105 293 105 c 0,223,224
 318 105 318 105 331 92 c 1,225,226
 367 97 367 97 439 113 c 0,227,228
 443 112 443 112 448 112 c 0,229,230
 465 112 465 112 485 132 c 0,231,232
 511 158 511 158 519 162 c 0,233,234
 595 253 595 253 608 321 c 1,235,236
 614 400 614 400 614 453 c 0,237,238
 614 482 614 482 612 503 c 1,154,155
144 594 m 1,239,-1
 144 596 l 1,240,-1
 142 596 l 1,241,-1
 142 594 l 1,242,-1
 144 594 l 1,239,-1
183 517 m 1,243,-1
 183 520 l 1,244,-1
 180 520 l 1,245,-1
 180 517 l 1,246,-1
 183 517 l 1,243,-1
137 540 m 1,247,-1
 137 542 l 1,248,-1
 133 542 l 1,249,-1
 133 540 l 1,250,-1
 137 540 l 1,247,-1
139 422 m 1,251,-1
 139 425 l 1,252,-1
 136 425 l 1,253,-1
 136 422 l 1,254,-1
 139 422 l 1,251,-1
121 429 m 1,255,-1
 121 431 l 1,256,-1
 117 431 l 1,257,-1
 117 429 l 1,258,-1
 121 429 l 1,255,-1
141 337 m 1,259,-1
 141 341 l 1,260,-1
 138 341 l 1,261,-1
 138 337 l 1,262,-1
 141 337 l 1,259,-1
127 335 m 1,263,-1
 127 339 l 1,264,-1
 125 339 l 1,265,-1
 125 335 l 1,266,-1
 127 335 l 1,263,-1
377 59 m 1,267,-1
 372 63 l 2,268,269
 367 67 367 67 364 66 c 2,270,-1
 364 59 l 1,271,-1
 377 59 l 1,267,-1
550 439 m 1,272,273
 541 423 541 423 529 366 c 0,274,275
 520 323 520 323 494 301 c 0,276,277
 493 298 493 298 493 295 c 0,278,279
 493 289 493 289 498.5 278.5 c 128,-1,280
 504 268 504 268 504 264 c 0,281,282
 504 255 504 255 488 250 c 1,283,284
 473 238 473 238 443.5 214.5 c 128,-1,285
 414 191 414 191 388 191 c 0,286,287
 374 191 374 191 361 197 c 0,288,289
 355 197 355 197 337 201 c 128,-1,290
 319 205 319 205 309 203 c 1,291,292
 314 221 314 221 314 244 c 0,293,294
 314 258 314 258 311 295 c 128,-1,295
 308 332 308 332 310 347 c 0,296,297
 318 406 318 406 324 461 c 1,298,299
 315 473 315 473 315 509 c 1,300,301
 324 513 324 513 324 519 c 0,302,303
 324 522 324 522 321 529 c 0,304,305
 320 536 320 536 321 540 c 2,306,-1
 309 550 l 1,307,308
 317 560 317 560 324 594 c 0,309,310
 332 625 332 625 339 631 c 1,311,312
 332 627 332 627 332 619 c 256,313,314
 332 611 332 611 337 601 c 0,315,316
 343 595 343 595 346 596 c 0,317,318
 351 602 351 602 352.5 615 c 128,-1,319
 354 628 354 628 355 634 c 0,320,321
 358 635 358 635 363.5 631.5 c 128,-1,322
 369 628 369 628 370 628 c 0,323,324
 373 628 373 628 375 631 c 1,325,326
 384 617 384 617 396 617 c 0,327,328
 402 617 402 617 408 620 c 0,329,330
 419 627 419 627 426 629 c 0,331,332
 511 606 511 606 519 534 c 1,333,334
 536 522 536 522 536 497 c 0,335,336
 536 487 536 487 530 456 c 0,337,338
 531 455 531 455 550 439 c 1,272,273
285 367 m 1,339,-1
 282 367 l 1,340,-1
 282 370 l 1,341,-1
 285 370 l 1,342,-1
 285 367 l 1,339,-1
430 586 m 1,343,-1
 430 589 l 1,344,-1
 426 589 l 1,345,-1
 426 586 l 1,346,-1
 430 586 l 1,343,-1
436 309 m 1,347,-1
 436 312 l 1,348,-1
 432 312 l 1,349,-1
 432 309 l 1,350,-1
 436 309 l 1,347,-1
EndSplineSet
Validated: 37
EndChar

StartChar: E
Encoding: 69 69 30
Width: 703
Flags: W
LayerCount: 2
Back
Fore
SplineSet
647 491 m 1,0,1
 637 491 637 491 633 497 c 0,2,3
 632 504 632 504 637 515 c 1,4,5
 641 508 641 508 647 491 c 1,0,1
651 447 m 2,6,7
 648 446 648 446 645 449 c 2,8,-1
 651 449 l 1,9,-1
 651 447 l 2,6,7
647 385 m 2,10,-1
 641 369 l 2,11,12
 636 359 636 359 628 358 c 0,13,14
 619 361 619 361 619 377 c 1,15,16
 625 373 625 373 631 373 c 0,17,18
 641 373 641 373 647 385 c 2,10,-1
609 371 m 1,19,-1
 605 369 l 1,20,-1
 603 369 l 1,21,-1
 609 371 l 1,19,-1
591 377 m 1,22,-1
 583 377 l 1,23,-1
 583 379 l 1,24,-1
 591 379 l 1,25,-1
 591 377 l 1,22,-1
290 675 m 1,26,27
 288 674 288 674 279 664 c 128,-1,28
 270 654 270 654 262 655 c 0,29,30
 248 663 248 663 250 687 c 1,31,32
 257 689 257 689 267.5 681 c 128,-1,33
 278 673 278 673 283 673 c 0,34,35
 286 673 286 673 290 675 c 1,26,27
505 393 m 1,36,-1
 503 387 l 1,37,-1
 499 391 l 1,38,-1
 505 393 l 1,36,-1
479 403 m 1,39,-1
 477 399 l 1,40,-1
 469 399 l 1,41,-1
 479 403 l 1,39,-1
457 427 m 1,42,43
 456 427 456 427 449 417 c 1,44,45
 438 417 438 417 437 419 c 0,46,47
 444 429 444 429 451 429 c 0,48,49
 454 429 454 429 457 427 c 1,42,43
486 378 m 1,50,-1
 483 378 l 1,51,-1
 483 383 l 1,52,-1
 486 383 l 1,53,-1
 486 378 l 1,50,-1
409 331 m 256,54,55
 409 330 409 330 408 330 c 0,56,57
 402 330 402 330 402 331 c 0,58,59
 404 332 404 332 408 333 c 0,60,61
 409 332 409 332 409 331 c 256,54,55
379 313 m 0,62,63
 376 308 376 308 374 306 c 2,64,-1
 376 312 l 2,65,66
 377 315 377 315 378 315 c 0,67,68
 379 314 379 314 379 313 c 0,62,63
117 575 m 1,69,-1
 116 568 l 1,70,-1
 109 573 l 1,71,-1
 117 575 l 1,69,-1
619 147 m 1,72,-1
 581 125 l 2,73,74
 467 59 467 59 326 59 c 0,75,76
 231 59 231 59 146 91 c 1,77,78
 126 111 126 111 85 153 c 0,79,80
 51 189 51 189 39 229 c 0,81,82
 22 287 22 287 22 352 c 0,83,84
 22 379 22 379 25 407 c 0,85,86
 36 453 36 453 56 487 c 1,87,88
 56 485 56 485 61 485 c 0,89,90
 64 485 64 485 64 491 c 0,91,92
 64 494 64 494 61 494 c 1,93,94
 127 609 127 609 244 629 c 1,95,96
 293 655 293 655 366 652 c 0,97,98
 366 648 366 648 371 648 c 0,99,100
 374 648 374 648 374 652 c 2,101,-1
 444 648 l 2,102,103
 484 646 484 646 513 649 c 1,104,105
 522 640 522 640 551 625 c 0,106,107
 575 612 575 612 581 599 c 0,108,109
 599 491 599 491 595 435 c 1,110,111
 456 506 456 506 387 506 c 0,112,113
 323 506 323 506 275 463 c 1,114,115
 270 453 270 453 263 442 c 0,116,117
 254 428 254 428 254 420 c 0,118,119
 254 413 254 413 258 407 c 0,120,121
 272 395 272 395 287 395 c 0,122,123
 296 395 296 395 305 399 c 0,124,125
 327 413 327 413 337 411 c 1,126,127
 338 396 338 396 348.5 364.5 c 128,-1,128
 359 333 359 333 359 316 c 0,129,130
 359 297 359 297 347 281 c 1,131,132
 333 284 333 284 319 284 c 0,133,134
 304 284 304 284 287 280 c 1,135,136
 288 280 288 280 288 279 c 0,137,138
 288 276 288 276 285 276 c 256,139,140
 282 276 282 276 282 279 c 1,141,142
 282 278 282 278 279 278 c 0,143,144
 273 277 273 277 267 273 c 1,145,146
 288 220 288 220 381 217 c 1,147,148
 528 231 528 231 563 313 c 0,149,150
 562 320 562 320 568 328 c 128,-1,151
 574 336 574 336 577 341 c 1,152,153
 627 313 627 313 627 245 c 0,154,155
 627 229 627 229 623 196 c 128,-1,156
 619 163 619 163 619 147 c 1,72,-1
373 289 m 0,157,158
 373 284 373 284 372 283 c 1,159,160
 371 285 371 285 370 289 c 0,161,162
 371 291 371 291 372 291 c 256,163,164
 373 291 373 291 373 289 c 0,157,158
101 559 m 1,165,-1
 98 553 l 1,166,-1
 94 559 l 1,167,-1
 101 559 l 1,165,-1
340 278 m 0,168,169
 339 277 339 277 337 277 c 0,170,171
 334 277 334 277 333 278 c 0,172,173
 334 280 334 280 337 280 c 256,174,175
 340 280 340 280 340 278 c 0,168,169
353 266 m 0,176,177
 351 263 351 263 347 263 c 0,178,179
 345 263 345 263 345 264 c 0,180,181
 346 265 346 265 347 265 c 0,182,183
 354 266 354 266 353 266 c 0,176,177
357 258 m 0,184,185
 355 255 355 255 353 254 c 2,186,-1
 354 258 l 2,187,188
 354 259 354 259 355 259 c 0,189,190
 357 259 357 259 357 258 c 0,184,185
343 258 m 0,191,192
 342 256 342 256 340 256 c 0,193,194
 337 256 337 256 337 258 c 0,195,196
 337 261 337 261 340 261 c 256,197,198
 343 261 343 261 343 258 c 0,191,192
323 279 m 2,199,-1
 315 279 l 2,200,201
 313 279 313 279 313 280 c 0,202,203
 314 281 314 281 315 281 c 0,204,205
 322 280 322 280 323 279 c 2,199,-1
349 242 m 0,206,207
 348 241 348 241 347 241 c 0,208,209
 345 241 345 241 345 242 c 0,210,211
 346 244 346 244 347 244 c 0,212,213
 349 244 349 244 349 242 c 0,206,207
325 263 m 0,214,215
 325 262 325 262 323 262 c 0,216,217
 322 262 322 262 322 263 c 0,218,219
 322 265 322 265 323 265 c 0,220,221
 325 265 325 265 325 263 c 0,214,215
304 280 m 2,222,223
 303 280 303 280 303 281 c 2,224,-1
 304 282 l 1,225,-1
 304 280 l 2,222,223
311 274 m 0,226,227
 310 272 310 272 308 272 c 0,228,229
 305 272 305 272 305 274 c 256,230,231
 305 276 305 276 308 276 c 256,232,233
 311 276 311 276 311 274 c 0,226,227
328 256 m 0,234,235
 328 249 328 249 327 249 c 0,236,237
 326 251 326 251 326 256 c 0,238,239
 326 257 326 257 327 258 c 1,240,241
 328 257 328 257 328 256 c 0,234,235
340 242 m 0,242,243
 339 236 339 236 337 236 c 0,244,245
 336 237 336 237 335 242 c 0,246,247
 336 243 336 243 338 243 c 256,248,249
 340 243 340 243 340 242 c 0,242,243
299 271 m 2,250,-1
 294 272 l 2,251,252
 293 272 293 272 293 273 c 256,253,254
 293 274 293 274 294 274 c 0,255,256
 298 273 298 273 299 271 c 2,250,-1
78 136 m 1,257,-1
 58 128 l 1,258,-1
 61 147 l 1,259,-1
 78 136 l 1,257,-1
413 644 m 0,260,261
 412 647 412 647 409 647 c 256,262,263
 406 647 406 647 406 644 c 0,264,265
 407 642 407 642 409 642 c 0,266,267
 412 642 412 642 413 644 c 0,260,261
396 622 m 256,268,269
 396 625 396 625 390 625 c 256,270,271
 384 625 384 625 384 622 c 256,272,273
 384 619 384 619 390 619 c 256,274,275
 396 619 396 619 396 622 c 256,268,269
352 644 m 0,276,277
 352 647 352 647 350 647 c 0,278,279
 347 647 347 647 347 644 c 0,280,281
 347 642 347 642 350 642 c 0,282,283
 352 642 352 642 352 644 c 0,276,277
350 626 m 1,284,-1
 350 631 l 1,285,-1
 345 631 l 1,286,-1
 345 626 l 1,287,-1
 350 626 l 1,284,-1
333 614 m 2,288,-1
 323 614 l 1,289,-1
 323 611 l 1,290,291
 331 611 331 611 333 614 c 2,288,-1
301 639 m 1,292,293
 297 640 297 640 292 640 c 0,294,295
 290 640 290 640 289 639 c 0,296,297
 290 634 290 634 291 634 c 0,298,299
 296 634 296 634 301 639 c 1,292,293
303 630 m 1,300,-1
 295 632 l 1,301,-1
 295 625 l 1,302,-1
 303 630 l 1,300,-1
340 587 m 1,303,-1
 340 592 l 1,304,-1
 335 592 l 1,305,-1
 335 587 l 1,306,-1
 340 587 l 1,303,-1
321 585 m 1,307,-1
 321 589 l 1,308,-1
 318 589 l 1,309,-1
 318 585 l 1,310,-1
 321 585 l 1,307,-1
293 605 m 1,311,-1
 293 610 l 1,312,-1
 288 610 l 1,313,-1
 288 605 l 1,314,-1
 293 605 l 1,311,-1
303 591 m 1,315,-1
 301 600 l 1,316,-1
 295 597 l 1,317,-1
 303 591 l 1,315,-1
308 581 m 256,318,319
 308 584 308 584 305 584 c 0,320,321
 303 584 303 584 303 581 c 256,322,323
 303 578 303 578 305 578 c 0,324,325
 308 578 308 578 308 581 c 256,318,319
282 607 m 1,326,-1
 282 609 l 1,327,-1
 274 609 l 1,328,-1
 274 607 l 1,329,-1
 282 607 l 1,326,-1
255 620 m 1,330,-1
 255 623 l 1,331,-1
 252 623 l 1,332,-1
 252 620 l 1,333,-1
 255 620 l 1,330,-1
262 607 m 0,334,335
 258 606 258 606 254 601 c 1,336,-1
 260 601 l 1,337,338
 264 605 264 605 262 607 c 0,334,335
275 592 m 2,339,-1
 266 592 l 1,340,-1
 266 590 l 1,341,342
 274 590 274 590 275 592 c 2,339,-1
246 609 m 1,343,-1
 238 611 l 1,344,-1
 240 603 l 1,345,-1
 246 609 l 1,343,-1
285 570 m 1,346,-1
 282 566 l 1,347,-1
 278 566 l 1,348,-1
 283 557 l 1,349,-1
 285 570 l 1,346,-1
237 600 m 1,350,-1
 237 603 l 1,351,-1
 233 603 l 1,352,-1
 233 600 l 1,353,-1
 237 600 l 1,350,-1
264 564 m 1,354,-1
 264 567 l 1,355,-1
 261 567 l 1,356,-1
 261 564 l 1,357,-1
 264 564 l 1,354,-1
244 568 m 1,358,-1
 244 578 l 1,359,-1
 238 576 l 1,360,-1
 244 568 l 1,358,-1
225 586 m 1,361,-1
 225 588 l 1,362,-1
 217 588 l 1,363,-1
 217 586 l 1,364,-1
 225 586 l 1,361,-1
198 599 m 1,365,-1
 198 602 l 1,366,-1
 195 602 l 1,367,-1
 195 599 l 1,368,-1
 198 599 l 1,365,-1
205 586 m 0,369,370
 201 585 201 585 197 580 c 1,371,-1
 203 580 l 2,372,373
 206 583 206 583 205 586 c 0,369,370
254 524 m 1,374,-1
 244 523 l 1,375,-1
 244 518 l 1,376,-1
 248 518 l 1,377,-1
 254 524 l 1,374,-1
176 573 m 2,378,-1
 167 573 l 1,379,-1
 167 570 l 1,380,381
 175 570 175 570 176 573 c 2,378,-1
183 546 m 1,382,-1
 183 551 l 1,383,-1
 178 551 l 1,384,-1
 178 546 l 1,385,-1
 183 546 l 1,382,-1
567 159 m 1,386,-1
 555 159 l 1,387,-1
 555 155 l 1,388,389
 560 154 560 154 567 159 c 1,386,-1
145 559 m 1,390,-1
 139 556 l 1,391,-1
 142 555 l 1,392,-1
 145 559 l 1,390,-1
135 564 m 0,393,394
 135 567 135 567 132 567 c 256,395,396
 129 567 129 567 129 564 c 0,397,398
 129 562 129 562 132 562 c 256,399,400
 135 562 135 562 135 564 c 0,393,394
154 522 m 2,401,-1
 144 522 l 1,402,-1
 144 520 l 1,403,404
 152 520 152 520 154 522 c 2,401,-1
499 173 m 1,405,-1
 493 173 l 1,406,-1
 497 169 l 1,407,-1
 499 173 l 1,405,-1
136 532 m 0,408,409
 136 534 136 534 133 534 c 256,410,411
 130 534 130 534 130 532 c 0,412,413
 130 529 130 529 133 529 c 256,414,415
 136 529 136 529 136 532 c 0,408,409
161 495 m 1,416,-1
 161 500 l 1,417,-1
 156 500 l 1,418,-1
 156 495 l 1,419,-1
 161 495 l 1,416,-1
143 508 m 1,420,-1
 135 511 l 1,421,-1
 136 503 l 1,422,-1
 143 508 l 1,420,-1
445 193 m 2,423,-1
 445 195 l 1,424,-1
 441 195 l 1,425,-1
 441 193 l 2,426,427
 442 190 442 190 443 189 c 0,428,429
 445 190 445 190 445 193 c 2,423,-1
300 337 m 1,430,-1
 300 341 l 1,431,-1
 291 337 l 1,432,-1
 300 337 l 1,430,-1
123 505 m 1,433,-1
 122 511 l 1,434,-1
 116 506 l 1,435,-1
 123 505 l 1,433,-1
112 515 m 256,436,437
 112 518 112 518 110 518 c 0,438,439
 107 518 107 518 107 515 c 256,440,441
 107 512 107 512 110 512 c 0,442,443
 112 512 112 512 112 515 c 256,436,437
122 499 m 1,444,-1
 114 501 l 1,445,-1
 114 494 l 1,446,-1
 122 499 l 1,444,-1
172 443 m 2,447,-1
 163 443 l 1,448,-1
 163 440 l 1,449,450
 171 440 171 440 172 443 c 2,447,-1
122 485 m 1,451,-1
 122 488 l 1,452,-1
 114 488 l 1,453,-1
 114 485 l 1,454,-1
 122 485 l 1,451,-1
143 459 m 1,455,456
 140 463 140 463 135 461 c 1,457,-1
 137 459 l 1,458,-1
 143 459 l 1,455,456
469 132 m 0,459,460
 469 134 469 134 466 134 c 256,461,462
 463 134 463 134 463 132 c 0,463,464
 463 129 463 129 466 129 c 256,465,466
 469 129 469 129 469 132 c 0,459,460
179 416 m 1,467,-1
 179 420 l 1,468,-1
 175 420 l 1,469,-1
 175 416 l 1,470,-1
 179 416 l 1,467,-1
95 498 m 1,471,-1
 95 502 l 1,472,-1
 92 502 l 1,473,-1
 92 498 l 1,474,-1
 95 498 l 1,471,-1
247 347 m 1,475,-1
 247 349 l 1,476,-1
 239 349 l 1,477,-1
 239 347 l 1,478,-1
 247 347 l 1,475,-1
466 124 m 1,479,-1
 466 127 l 1,480,-1
 463 127 l 1,481,-1
 463 124 l 1,482,-1
 466 124 l 1,479,-1
297 286 m 256,483,484
 297 287 297 287 295 288 c 0,485,486
 293 287 293 287 293 286 c 256,487,488
 293 285 293 285 295 285 c 256,489,490
 297 285 297 285 297 286 c 256,483,484
102 485 m 0,491,492
 98 485 98 485 94 480 c 1,493,-1
 100 480 l 2,494,495
 104 483 104 483 102 485 c 0,491,492
101 476 m 1,496,-1
 101 478 l 1,497,-1
 93 478 l 1,498,-1
 93 476 l 1,499,-1
 101 476 l 1,496,-1
417 155 m 2,500,-1
 417 159 l 2,501,502
 416 160 416 160 415 161 c 0,503,504
 413 160 413 160 412 159 c 2,505,-1
 412 155 l 2,506,507
 413 153 413 153 415 153 c 0,508,509
 416 153 416 153 417 155 c 2,500,-1
136 437 m 2,510,-1
 126 437 l 1,511,-1
 126 435 l 1,512,513
 134 435 134 435 136 437 c 2,510,-1
143 422 m 1,514,-1
 141 429 l 1,515,-1
 135 426 l 1,516,-1
 143 422 l 1,514,-1
74 489 m 1,517,-1
 74 492 l 1,518,-1
 71 492 l 1,519,-1
 71 489 l 1,520,-1
 74 489 l 1,517,-1
122 436 m 1,521,-1
 122 438 l 1,522,-1
 114 438 l 1,523,-1
 114 436 l 1,524,-1
 122 436 l 1,521,-1
143 410 m 1,525,-1
 143 415 l 1,526,-1
 138 415 l 1,527,-1
 138 410 l 1,528,-1
 143 410 l 1,525,-1
107 451 m 2,529,-1
 98 451 l 1,530,-1
 98 449 l 1,531,532
 106 449 106 449 107 451 c 2,529,-1
81 476 m 0,533,534
 76 476 76 476 73 470 c 1,535,-1
 79 470 l 1,536,537
 82 474 82 474 81 476 c 0,533,534
416 137 m 0,539,540
 415 138 415 138 413.5 139.5 c 128,-1,541
 412 141 412 141 411 141 c 0,542,543
 409 141 409 141 409 139 c 0,544,545
 407 138 407 138 409 134 c 0,546,547
 409 131 409 131 411 130 c 0,548,549
 412 131 412 131 413.5 133 c 128,-1,538
 415 135 415 135 416 137 c 0,539,540
95 449 m 1,550,-1
 95 452 l 1,551,-1
 92 452 l 1,552,-1
 92 449 l 1,553,-1
 95 449 l 1,550,-1
114 424 m 1,554,-1
 114 429 l 1,555,-1
 110 429 l 1,556,-1
 110 424 l 1,557,-1
 114 424 l 1,554,-1
102 436 m 0,558,559
 98 435 98 435 94 430 c 1,560,-1
 100 430 l 2,561,562
 103 433 103 433 102 436 c 0,558,559
80 449 m 0,563,564
 81 451 81 451 80 457 c 0,565,566
 79 458 79 458 75 458 c 0,567,568
 73 458 73 458 73 456 c 0,569,570
 77 450 77 450 80 449 c 0,563,564
64 461 m 0,571,572
 62 471 62 471 61 472 c 0,573,574
 57 469 57 469 55 464 c 0,575,576
 56 463 56 463 57 463 c 0,577,578
 67 461 67 461 64 461 c 0,571,572
104 423 m 1,579,-1
 98 421 l 1,580,-1
 103 419 l 1,581,-1
 104 423 l 1,579,-1
125 398 m 2,582,-1
 116 398 l 1,583,-1
 116 395 l 1,584,585
 124 395 124 395 125 398 c 2,582,-1
61 449 m 1,586,587
 57 455 57 455 52 457 c 0,588,589
 51 457 51 457 51 455 c 0,590,591
 51 451 51 451 52 451 c 0,592,593
 57 450 57 450 61 449 c 1,586,587
255 259 m 1,594,595
 257 267 257 267 249 268 c 0,596,597
 240 269 240 269 239 263 c 0,598,599
 241 259 241 259 246 259 c 2,600,-1
 255 259 l 1,594,595
76 437 m 1,601,-1
 68 437 l 1,602,-1
 72 432 l 1,603,-1
 76 437 l 1,601,-1
96 414 m 1,604,-1
 88 416 l 1,605,-1
 89 410 l 1,606,-1
 96 414 l 1,604,-1
105 402 m 0,607,608
 104 405 104 405 102 405 c 256,609,610
 100 405 100 405 100 402 c 0,611,612
 100 400 100 400 102 400 c 0,613,614
 105 400 105 400 105 402 c 0,607,608
132 371 m 1,615,-1
 132 375 l 1,616,-1
 128 375 l 1,617,-1
 128 371 l 1,618,-1
 132 371 l 1,615,-1
141 356 m 1,619,-1
 141 358 l 1,620,-1
 133 358 l 1,621,-1
 133 356 l 1,622,-1
 141 356 l 1,619,-1
145 352 m 2,623,-1
 135 352 l 1,624,-1
 135 350 l 1,625,626
 143 350 143 350 145 352 c 2,623,-1
153 330 m 1,627,-1
 153 335 l 1,628,-1
 149 335 l 1,629,-1
 149 330 l 1,630,-1
 153 330 l 1,627,-1
118 366 m 1,631,-1
 114 372 l 1,632,-1
 110 372 l 1,633,-1
 110 369 l 1,634,-1
 118 366 l 1,631,-1
49 436 m 256,635,636
 49 439 49 439 47 439 c 0,637,638
 44 439 44 439 44 436 c 256,639,640
 44 433 44 433 47 433 c 0,641,642
 49 433 49 433 49 436 c 256,635,636
387 95 m 0,643,644
 388 96 388 96 388 97 c 0,645,646
 388 100 388 100 384 105 c 1,647,-1
 375 97 l 2,648,649
 376 95 376 95 387 95 c 0,643,644
67 409 m 256,650,651
 67 412 67 412 64 412 c 256,652,653
 61 412 61 412 61 409 c 256,654,655
 61 406 61 406 64 406 c 256,656,657
 67 406 67 406 67 409 c 256,650,651
94 384 m 1,658,-1
 88 381 l 1,659,-1
 92 378 l 1,660,-1
 94 384 l 1,658,-1
121 356 m 0,661,662
 116 356 116 356 113 350 c 1,663,-1
 119 350 l 1,664,665
 122 354 122 354 121 356 c 0,661,662
325 145 m 2,666,-1
 325 147 l 2,667,668
 324 149 324 149 322 149 c 0,669,670
 321 149 321 149 319 147 c 2,671,-1
 319 145 l 2,672,673
 320 144 320 144 322 144 c 256,674,675
 324 144 324 144 325 145 c 2,666,-1
75 391 m 1,676,-1
 75 393 l 1,677,-1
 67 393 l 1,678,-1
 67 391 l 1,679,-1
 75 391 l 1,676,-1
110 352 m 2,680,-1
 100 352 l 1,681,-1
 100 349 l 1,682,683
 108 349 108 349 110 352 c 2,680,-1
40 421 m 0,684,685
 40 423 40 423 37 423 c 256,686,687
 34 423 34 423 34 421 c 0,688,689
 34 410 34 410 37 410 c 256,690,691
 40 410 40 410 40 421 c 0,684,685
115 343 m 1,692,-1
 109 341 l 1,693,-1
 113 339 l 1,694,-1
 115 343 l 1,692,-1
48 404 m 1,695,-1
 48 407 l 1,696,-1
 45 407 l 1,697,-1
 45 404 l 1,698,-1
 48 404 l 1,695,-1
206 249 m 1,699,-1
 202 249 l 1,700,-1
 202 234 l 1,701,-1
 206 234 l 1,702,-1
 206 249 l 1,699,-1
117 325 m 1,703,-1
 117 329 l 1,704,-1
 112 329 l 1,705,-1
 112 325 l 1,706,-1
 117 325 l 1,703,-1
81 366 m 2,707,-1
 72 366 l 1,708,-1
 72 363 l 1,709,710
 80 363 80 363 81 366 c 2,707,-1
55 391 m 0,711,712
 50 390 50 390 47 385 c 1,713,-1
 53 385 l 2,714,715
 56 388 56 388 55 391 c 0,711,712
63 376 m 256,716,717
 63 378 63 378 61 379 c 0,718,719
 59 378 59 378 59 376 c 256,720,721
 59 374 59 374 61 374 c 256,722,723
 63 374 63 374 63 376 c 256,716,717
88 339 m 1,724,-1
 88 344 l 1,725,-1
 84 344 l 1,726,-1
 84 339 l 1,727,-1
 88 339 l 1,724,-1
79 330 m 1,728,-1
 78 340 l 1,729,-1
 72 335 l 1,730,-1
 79 330 l 1,728,-1
99 312 m 2,731,-1
 89 317 l 1,732,-1
 90 310 l 1,733,734
 98 310 98 310 99 312 c 2,731,-1
61 337 m 0,735,736
 61 340 61 340 59 340 c 0,737,738
 56 340 56 340 56 337 c 0,739,740
 56 335 56 335 59 335 c 0,741,742
 61 335 61 335 61 337 c 0,735,736
50 352 m 1,743,-1
 38 348 l 1,744,-1
 49 346 l 1,745,-1
 50 352 l 1,743,-1
106 285 m 1,746,-1
 106 290 l 1,747,-1
 102 290 l 1,748,-1
 102 285 l 1,749,-1
 106 285 l 1,746,-1
48 339 m 256,750,751
 48 342 48 342 46 342 c 0,752,753
 43 342 43 342 43 339 c 256,754,755
 43 336 43 336 46 336 c 0,756,757
 48 336 48 336 48 339 c 256,750,751
115 271 m 1,758,-1
 115 273 l 1,759,-1
 104 276 l 1,760,-1
 107 271 l 1,761,-1
 115 271 l 1,758,-1
140 237 m 1,762,-1
 140 241 l 1,763,-1
 135 241 l 1,764,-1
 135 237 l 1,765,-1
 140 237 l 1,762,-1
65 313 m 0,766,767
 65 316 65 316 62 316 c 256,768,769
 59 316 59 316 59 313 c 0,770,771
 59 311 59 311 62 311 c 256,772,773
 65 311 65 311 65 313 c 0,766,767
90 280 m 1,774,-1
 88 287 l 1,775,-1
 85 287 l 1,776,-1
 85 284 l 1,777,-1
 90 280 l 1,774,-1
117 256 m 0,778,779
 117 259 117 259 114 259 c 256,780,781
 111 259 111 259 111 256 c 0,782,783
 111 254 111 254 114 254 c 256,784,785
 117 254 117 254 117 256 c 0,778,779
68 298 m 1,786,-1
 62 296 l 1,787,-1
 66 293 l 1,788,-1
 68 298 l 1,786,-1
95 271 m 0,789,790
 90 270 90 270 87 265 c 1,791,-1
 93 265 l 1,792,793
 96 269 96 269 95 271 c 0,789,790
122 224 m 2,794,-1
 113 224 l 1,795,-1
 113 222 l 1,796,797
 121 222 121 222 122 224 c 2,794,-1
66 270 m 256,798,799
 66 273 66 273 64 273 c 0,800,801
 61 273 61 273 61 270 c 256,802,803
 61 267 61 267 64 267 c 0,804,805
 66 267 66 267 66 270 c 256,798,799
93 241 m 2,806,807
 92 244 92 244 89 244 c 0,808,809
 87 244 87 244 85 243 c 2,810,-1
 87 241 l 1,811,-1
 93 241 l 2,806,807
132 201 m 1,812,-1
 129 197 l 1,813,-1
 125 197 l 1,814,-1
 130 189 l 1,815,-1
 132 201 l 1,812,-1
88 227 m 1,816,-1
 84 235 l 1,817,-1
 80 235 l 1,818,-1
 78 230 l 1,819,-1
 88 227 l 1,816,-1
114 204 m 1,820,-1
 107 203 l 1,821,-1
 104 192 l 1,822,-1
 111 196 l 1,823,-1
 114 204 l 1,820,-1
91 221 m 1,824,-1
 81 220 l 1,825,-1
 85 214 l 1,826,-1
 88 214 l 1,827,-1
 91 221 l 1,824,-1
121 189 m 1,828,-1
 115 189 l 1,829,-1
 114 182 l 1,830,-1
 121 189 l 1,828,-1
91 210 m 1,831,-1
 85 208 l 1,832,-1
 88 206 l 1,833,-1
 91 210 l 1,831,-1
72 218 m 1,834,-1
 72 220 l 1,835,-1
 64 220 l 1,836,-1
 64 218 l 1,837,-1
 72 218 l 1,834,-1
EndSplineSet
Validated: 37
EndChar

StartChar: F
Encoding: 70 70 31
Width: 816
Flags: W
LayerCount: 2
Back
Fore
SplineSet
728 777 m 1,0,1
 723 773 723 773 703 776 c 0,2,3
 688 778 688 778 683 764 c 1,4,5
 676 772 676 772 677 777 c 0,6,7
 703 795 703 795 715 792 c 0,8,9
 721 787 721 787 728 777 c 1,0,1
761 707 m 1,10,11
 754 701 754 701 754 695 c 0,12,13
 754 688 754 688 767.5 673 c 128,-1,14
 781 658 781 658 781 653 c 0,15,16
 781 645 781 645 770 639 c 1,17,18
 772 591 772 591 761 561 c 1,19,20
 751 558 751 558 747.5 538.5 c 128,-1,21
 744 519 744 519 733 516 c 1,22,23
 731 523 731 523 731 531 c 0,24,25
 731 545 731 545 742.5 571.5 c 128,-1,26
 754 598 754 598 754 611 c 0,27,28
 754 623 754 623 748 633 c 1,29,30
 759 643 759 643 759 658 c 0,31,32
 759 669 759 669 753 689.5 c 128,-1,33
 747 710 747 710 747 721 c 256,34,35
 747 732 747 732 752 740 c 1,36,-1
 737 747 l 2,37,38
 738 749 738 749 740 749 c 256,39,40
 742 749 742 749 744 748 c 0,41,42
 750 745 750 745 752 752 c 1,43,44
 741 762 741 762 740 764 c 0,45,46
 742 767 742 767 756 767 c 1,47,48
 765 756 765 756 765 741 c 1,49,50
 765 748 765 748 761 707 c 1,10,11
652 781 m 1,51,52
 616 764 616 764 535.5 749 c 128,-1,53
 455 734 455 734 417 712 c 1,54,55
 462 748 462 748 533 762 c 0,56,57
 572 768 572 768 652 781 c 1,51,52
505 727 m 1,58,-1
 499 721 l 1,59,-1
 496 723 l 1,60,-1
 505 727 l 1,58,-1
746 459 m 1,61,62
 741 435 741 435 735 412 c 0,63,64
 728 384 728 384 716 368 c 1,65,66
 714 379 714 379 714 391 c 0,67,68
 714 426 714 426 733 459 c 1,69,-1
 746 459 l 1,61,62
406 714 m 1,70,71
 402 699 402 699 379 697 c 0,72,73
 375 696 375 696 372 696 c 0,74,75
 360 696 360 696 360 707 c 0,76,77
 360 709 360 709 361 712 c 0,78,79
 368 717 368 717 375 717 c 0,80,81
 378 717 378 717 390 715 c 0,82,83
 399 712 399 712 406 714 c 1,70,71
716 327 m 1,84,85
 697 311 697 311 697 284 c 0,86,87
 697 277 697 277 698.5 264.5 c 128,-1,88
 700 252 700 252 700 245 c 0,89,90
 700 222 700 222 677 215 c 1,91,92
 681 222 681 222 687 277 c 0,93,94
 692 320 692 320 716 327 c 1,84,85
280 690 m 1,95,96
 277 684 277 684 265.5 682 c 128,-1,97
 254 680 254 680 252 678 c 1,98,99
 250 681 250 681 250 684 c 0,100,101
 250 690 250 690 273 697 c 1,102,-1
 280 690 l 1,95,96
226 673 m 1,103,104
 214 674 214 674 188.5 660.5 c 128,-1,105
 163 647 163 647 152 647 c 0,106,107
 142 647 142 647 135 654 c 1,108,109
 153 676 153 676 188 676 c 0,110,111
 192 676 192 676 226 673 c 1,103,104
684 73 m 1,112,-1
 679 73 l 1,113,-1
 679 76 l 1,114,-1
 684 76 l 1,115,-1
 684 73 l 1,112,-1
679 35 m 1,116,117
 681 29 681 29 677 20 c 0,118,119
 673 20 673 20 673 26 c 2,120,-1
 673 35 l 1,121,-1
 679 35 l 1,116,117
679 420 m 1,122,-1
 643 413 l 2,123,124
 632 409 632 409 623 409 c 0,125,126
 605 409 605 409 575.5 435 c 128,-1,127
 546 461 546 461 526 459 c 1,128,129
 497 490 497 490 443 490 c 0,130,131
 433 490 433 490 424 489 c 1,132,133
 404 476 404 476 401 437 c 0,134,135
 397 395 397 395 385 383 c 1,136,137
 388 382 388 382 392 382 c 0,138,139
 402 382 402 382 424 417 c 1,140,-1
 424 438 l 2,141,142
 426 450 426 450 439 447 c 1,143,144
 442 451 442 451 441 452 c 2,145,-1
 436 459 l 1,146,147
 460 450 460 450 508 430 c 0,148,149
 549 412 549 412 550 372 c 0,150,151
 549 366 549 366 549 359 c 0,152,153
 549 343 549 343 560.5 311 c 128,-1,154
 572 279 572 279 572 262 c 0,155,156
 572 240 572 240 557 222 c 1,157,158
 551 204 551 204 506.5 193 c 128,-1,159
 462 182 462 182 462 173 c 0,160,161
 462 162 462 162 490 140 c 1,162,163
 503 136 503 136 529 128 c 0,164,165
 551 120 551 120 553 98 c 0,166,167
 556 51 556 51 531 16 c 1,168,169
 512 2 512 2 485 2 c 0,170,171
 460 2 460 2 406 20 c 1,172,173
 400 -6 400 -6 368 -24 c 0,174,175
 325 -48 325 -48 318 -53 c 1,176,177
 284 -55 284 -55 261 -40 c 0,178,179
 220 -13 220 -13 220 35 c 0,180,181
 220 50 220 50 224.5 80.5 c 128,-1,182
 229 111 229 111 229 126 c 0,183,184
 229 138 229 138 226 155 c 0,185,186
 217 209 217 209 198 317 c 0,187,188
 181 410 181 410 144 471 c 1,189,190
 148 487 148 487 118 512.5 c 128,-1,191
 88 538 88 538 88 544 c 0,192,193
 88 557 88 557 123 564 c 0,194,195
 141 567 141 567 176 573 c 0,196,197
 207 580 207 580 216 607 c 1,198,199
 239 602 239 602 262 602 c 0,200,201
 341 602 341 602 402 645 c 1,202,203
 421 635 421 635 439 635 c 0,204,205
 460 635 460 635 490 651 c 0,206,207
 529 672 529 672 542 675 c 1,208,209
 561 665 561 665 598 642 c 0,210,211
 629 622 629 622 629 592 c 0,212,213
 629 586 629 586 628 579 c 1,214,215
 644 554 644 554 655 501 c 0,216,217
 669 442 669 442 679 420 c 1,122,-1
95 630 m 1,218,-1
 43 589 l 2,219,220
 16 565 16 565 20 549 c 1,221,222
 22 555 22 555 16.5 565 c 128,-1,223
 11 575 11 575 11 578 c 0,224,225
 11 583 11 583 18 588 c 0,226,227
 31 591 31 591 56 614 c 0,228,229
 78 634 78 634 95 630 c 1,218,-1
664 61 m 1,230,231
 664 -1 664 -1 663 -18 c 0,232,233
 660 -64 660 -64 628 -85 c 1,234,-1
 610 -85 l 1,235,236
 613 -78 613 -78 622 -74 c 0,237,238
 625 -73 625 -73 634 -64 c 1,239,240
 621 -44 621 -44 621 -37 c 0,241,242
 621 -25 621 -25 637 -25 c 1,243,-1
 641 -29 l 1,244,245
 649 -17 649 -17 649 2 c 2,246,-1
 649 25 l 2,247,248
 649 49 649 49 664 61 c 1,230,231
50 531 m 0,249,250
 54 525 54 525 53 514 c 0,251,252
 53 502 53 502 45 502 c 0,253,254
 35 502 35 502 35 513 c 2,255,-1
 35 525 l 1,256,257
 49 532 49 532 50 531 c 0,249,250
75 467 m 1,258,259
 69 465 69 465 69 460 c 0,260,261
 69 457 69 457 71.5 452 c 128,-1,262
 74 447 74 447 74 444 c 0,263,264
 74 438 74 438 65 437 c 1,265,266
 66 444 66 444 54.5 457 c 128,-1,267
 43 470 43 470 43 476 c 256,268,269
 43 482 43 482 50 489 c 1,270,-1
 75 467 l 1,258,259
580 -85 m 0,271,272
 576 -84 576 -84 573 -84 c 0,273,274
 567 -84 567 -84 556.5 -88.5 c 128,-1,275
 546 -93 546 -93 540 -93 c 0,276,277
 536 -93 536 -93 531 -92 c 1,278,279
 559 -69 559 -69 568 -69 c 0,280,281
 572 -69 572 -69 577 -70 c 0,282,283
 582 -74 582 -74 582 -79 c 0,284,285
 582 -83 582 -83 580 -85 c 0,271,272
108 338 m 1,286,287
 98 332 98 332 95 332 c 2,288,-1
 65 422 l 1,289,290
 84 422 84 422 92 390 c 0,291,292
 103 345 103 345 108 338 c 1,286,287
120 287 m 0,293,294
 121 286 121 286 114 276 c 1,295,296
 100 279 100 279 99 293 c 2,297,298
 99 293 99 293 99 317 c 0,299,300
 102 319 102 319 105 319 c 0,301,302
 109 319 109 319 113.5 304 c 128,-1,303
 118 289 118 289 120 287 c 0,293,294
516 -83 m 1,304,305
 501 -99 501 -99 467 -99 c 0,306,307
 440 -99 440 -99 417 -89 c 1,308,-1
 409 -79 l 1,309,310
 440 -83 440 -83 516 -83 c 1,304,305
129 179 m 1,311,312
 119 190 119 190 119 208 c 2,313,-1
 119 220 l 2,314,315
 120 228 120 228 120 232 c 0,316,317
 120 247 120 247 114 257 c 1,318,319
 117 257 117 257 120 261 c 1,320,321
 129 252 129 252 129 242 c 0,322,323
 127 236 127 236 132 219 c 0,324,325
 138 199 138 199 138 194 c 0,326,327
 138 183 138 183 129 179 c 1,311,312
68 274 m 1,328,-1
 63 274 l 1,329,-1
 63 278 l 1,330,-1
 68 278 l 1,331,-1
 68 274 l 1,328,-1
39 272 m 0,332,333
 34 272 34 272 33 276 c 0,334,335
 30 281 30 281 39 287 c 0,336,337
 42 285 42 285 42 280 c 256,338,339
 42 275 42 275 39 272 c 0,332,333
49 232 m 1,340,-1
 45 232 l 1,341,-1
 45 237 l 1,342,-1
 49 237 l 1,343,-1
 49 232 l 1,340,-1
402 -89 m 1,344,345
 380 -101 380 -101 346 -101 c 0,346,347
 302 -101 302 -101 286 -89 c 1,348,349
 314 -81 314 -81 343 -81 c 256,350,351
 372 -81 372 -81 402 -89 c 1,344,345
147 104 m 1,352,353
 142 106 142 106 135 116 c 0,354,355
 137 119 137 119 137 122 c 256,356,357
 137 125 137 125 129.5 135 c 128,-1,358
 122 145 122 145 123 151 c 1,359,360
 119 149 119 149 103 140 c 0,361,362
 92 132 92 132 83 132 c 0,363,364
 77 132 77 132 71 136 c 1,365,366
 78 141 78 141 105 158 c 0,367,368
 126 171 126 171 140 170 c 1,369,370
 139 166 139 166 139 160 c 0,371,372
 139 152 139 152 144 136.5 c 128,-1,373
 149 121 149 121 149 114 c 0,374,375
 149 108 149 108 147 104 c 1,352,353
153 59 m 1,376,-1
 147 59 l 1,377,-1
 153 65 l 1,378,-1
 153 59 l 1,376,-1
177 14 m 1,379,380
 179 6 179 6 169.5 2.5 c 128,-1,381
 160 -1 160 -1 159 -4 c 1,382,383
 152 -1 152 -1 153 8 c 2,384,-1
 153 22 l 2,385,386
 154 23 154 23 162 26 c 1,387,388
 163 21 163 21 177 14 c 1,379,380
273 -92 m 0,389,390
 274 -100 274 -100 265 -102 c 0,391,392
 251 -107 251 -107 249 -107 c 0,393,394
 241 -102 241 -102 243 -92 c 0,395,396
 247 -86 247 -86 252 -86 c 0,397,398
 255 -86 255 -86 262.5 -89 c 128,-1,399
 270 -92 270 -92 273 -92 c 0,389,390
211 -79 m 1,400,401
 200 -79 200 -79 181 -77 c 1,402,403
 158 -45 158 -45 158 -30 c 0,404,405
 158 -23 158 -23 162 -16 c 1,406,407
 169 -18 169 -18 172 -34.5 c 128,-1,408
 175 -51 175 -51 186 -53 c 1,409,-1
 183 -55 l 1,410,411
 186 -58 186 -58 202.5 -61.5 c 128,-1,412
 219 -65 219 -65 219 -69 c 256,413,414
 219 -73 219 -73 211 -79 c 1,400,401
471 600 m 1,415,-1
 471 603 l 1,416,-1
 463 600 l 1,417,-1
 471 600 l 1,415,-1
471 579 m 1,418,-1
 471 583 l 1,419,-1
 463 579 l 1,420,-1
 471 579 l 1,418,-1
455 578 m 1,421,-1
 455 583 l 1,422,-1
 451 583 l 1,423,-1
 451 578 l 1,424,-1
 455 578 l 1,421,-1
440 580 m 1,425,-1
 440 585 l 1,426,-1
 436 585 l 1,427,-1
 436 580 l 1,428,-1
 440 580 l 1,425,-1
402 622 m 1,429,-1
 402 628 l 1,430,431
 372 615 372 615 310 594 c 1,432,433
 345 591 345 591 361 607 c 1,434,-1
 394 609 l 1,435,-1
 391 615 l 1,436,437
 396 623 396 623 402 622 c 1,429,-1
568 492 m 0,438,439
 570 484 570 484 562 483 c 128,-1,440
 554 482 554 482 547 482 c 0,441,442
 499 489 499 489 481 534 c 1,443,444
 447 555 447 555 404 555 c 0,445,446
 360 555 360 555 331 531 c 1,447,448
 316 510 316 510 316 483 c 0,449,450
 316 469 316 469 322 438 c 128,-1,451
 328 407 328 407 327 390 c 0,452,453
 330 388 330 388 337 378 c 128,-1,454
 344 368 344 368 349 368 c 0,455,456
 353 368 353 368 357 372 c 1,457,458
 330 405 330 405 330 465 c 0,459,460
 330 501 330 501 342 525 c 1,461,462
 368 542 368 542 396 542 c 0,463,464
 425 542 425 542 469 516 c 0,465,466
 480 509 480 509 535 471 c 1,467,468
 556 464 556 464 567 464 c 0,469,470
 583 464 583 464 583 477 c 0,471,472
 583 485 583 485 572.5 512 c 128,-1,473
 562 539 562 539 565 549 c 1,474,-1
 568 549 l 1,475,476
 567 561 567 561 556.5 586 c 128,-1,477
 546 611 546 611 546 623 c 256,478,479
 546 635 546 635 553 648 c 1,480,481
 544 658 544 658 533 658 c 0,482,483
 525 658 525 658 509 649 c 128,-1,484
 493 640 493 640 486 639 c 1,485,486
 492 635 492 635 498 635 c 256,487,488
 504 635 504 635 514.5 639.5 c 128,-1,489
 525 644 525 644 530 644 c 0,490,491
 534 644 534 644 538 643 c 0,492,493
 539 639 539 639 539 624 c 0,494,495
 539 610 539 610 529 607 c 1,496,497
 541 593 541 593 548.5 551 c 128,-1,498
 556 509 556 509 568 492 c 0,438,439
286 588 m 1,499,-1
 286 591 l 1,500,-1
 271 591 l 1,501,-1
 271 588 l 1,502,-1
 286 588 l 1,499,-1
258 588 m 1,503,-1
 258 591 l 1,504,-1
 252 588 l 1,505,-1
 258 588 l 1,503,-1
282 558 m 2,506,-1
 276 555 l 1,507,-1
 280 553 l 1,508,509
 283 556 283 556 282 558 c 2,506,-1
231 588 m 1,510,-1
 226 591 l 2,511,512
 225 590 225 590 218.5 588.5 c 128,-1,513
 212 587 212 587 213 583 c 0,514,515
 229 580 229 580 231 588 c 1,510,-1
249 543 m 1,516,517
 249 553 249 553 243 553 c 1,518,-1
 243 543 l 1,519,-1
 249 543 l 1,516,517
290 490 m 1,520,-1
 290 495 l 1,521,-1
 286 495 l 1,522,-1
 286 490 l 1,523,-1
 290 490 l 1,520,-1
213 570 m 1,524,525
 210 575 210 575 204 573 c 0,526,527
 200 571 200 571 198 568 c 2,528,-1
 201 564 l 2,529,530
 208 561 208 561 213 570 c 1,524,525
295 467 m 1,531,-1
 295 474 l 1,532,-1
 286 474 l 1,533,-1
 286 467 l 1,534,-1
 295 467 l 1,531,-1
226 543 m 2,535,-1
 213 546 l 2,536,537
 212 543 212 543 212 540 c 0,538,539
 212 534 212 534 219 531 c 0,540,541
 223 533 223 533 223 537 c 128,-1,542
 223 541 223 541 226 543 c 2,535,-1
192 564 m 1,543,544
 190 567 190 567 185 565 c 0,545,546
 181 564 181 564 181 561 c 0,547,548
 185 560 185 560 192 564 c 1,543,544
227 518 m 1,549,-1
 227 523 l 1,550,-1
 222 523 l 1,551,-1
 222 518 l 1,552,-1
 227 518 l 1,549,-1
302 430 m 1,553,-1
 302 435 l 1,554,-1
 297 435 l 1,555,-1
 297 430 l 1,556,-1
 302 430 l 1,553,-1
165 555 m 1,557,-1
 165 558 l 1,558,-1
 159 558 l 1,559,-1
 159 555 l 1,560,-1
 165 555 l 1,557,-1
258 441 m 1,561,-1
 249 441 l 1,562,-1
 249 435 l 1,563,564
 253 431 253 431 256 432 c 0,565,566
 258 433 258 433 258 441 c 1,561,-1
261 417 m 1,567,-1
 261 420 l 1,568,-1
 256 420 l 1,569,-1
 256 417 l 1,570,-1
 261 417 l 1,567,-1
276 402 m 1,571,572
 277 407 277 407 275 409 c 0,573,574
 272 410 272 410 268 409 c 0,575,576
 264 407 264 407 264 405 c 0,577,578
 265 402 265 402 276 402 c 1,571,572
135 523 m 1,579,-1
 123 538 l 2,580,581
 119 538 119 538 114 534 c 1,582,-1
 117 531 l 2,583,584
 118 525 118 525 124 522 c 0,585,586
 131 518 131 518 135 523 c 1,579,-1
147 507 m 2,587,-1
 138 507 l 1,588,-1
 138 504 l 2,589,590
 141 500 141 500 144 501 c 0,591,592
 148 505 148 505 147 507 c 2,587,-1
256 396 m 1,593,-1
 249 402 l 1,594,595
 245 398 245 398 243 398 c 1,596,597
 243 391 243 391 246 390 c 2,598,-1
 256 396 l 1,593,-1
154 490 m 1,599,-1
 154 495 l 1,600,-1
 150 495 l 1,601,-1
 150 490 l 1,602,-1
 154 490 l 1,599,-1
170 477 m 1,603,-1
 155 477 l 1,604,-1
 162 467 l 1,605,606
 169 471 169 471 170 477 c 1,603,-1
267 375 m 1,607,-1
 243 372 l 1,608,-1
 252 362 l 1,609,-1
 267 375 l 1,607,-1
186 422 m 1,610,611
 180 450 180 450 170 450 c 1,612,613
 174 447 174 447 174 438 c 0,614,615
 173 428 173 428 174 425 c 0,616,617
 176 420 176 420 186 422 c 1,610,611
192 398 m 1,618,-1
 192 405 l 1,619,-1
 186 405 l 1,620,-1
 186 398 l 1,621,-1
 192 398 l 1,618,-1
475 261 m 0,622,623
 497 284 497 284 497 305 c 0,624,625
 497 320 497 320 474.5 349.5 c 128,-1,626
 452 379 452 379 452 394 c 0,627,628
 452 412 452 412 469 432 c 1,629,630
 467 433 467 433 462 439 c 128,-1,631
 457 445 457 445 452 445 c 0,632,633
 450 445 450 445 447 444 c 1,634,635
 459 422 459 422 459 402 c 0,636,637
 459 392 459 392 456 383 c 1,638,639
 418 367 418 367 337 356 c 0,640,641
 248 344 248 344 213 332 c 1,642,-1
 209 347 l 2,643,644
 205 358 205 358 207 362 c 1,645,646
 202 365 202 365 201 377.5 c 128,-1,647
 200 390 200 390 197 390 c 256,648,649
 194 390 194 390 189 387 c 1,650,651
 248 204 248 204 248 112 c 0,652,653
 248 70 248 70 241 29 c 1,654,655
 243 32 243 32 246 32 c 256,656,657
 249 32 249 32 258 22 c 1,658,-1
 261 26 l 1,659,-1
 271 16 l 2,660,661
 278 12 278 12 284 12 c 0,662,663
 292 12 292 12 302 24 c 128,-1,664
 312 36 312 36 318 41 c 1,665,-1
 316 44 l 1,666,667
 328 47 328 47 334.5 66.5 c 128,-1,668
 341 86 341 86 346 89 c 1,669,670
 367 57 367 57 406 57 c 0,671,672
 448 57 448 57 469 104 c 1,673,674
 462 127 462 127 454 127 c 0,675,676
 451 127 451 127 447 125 c 0,677,678
 409 126 409 126 391 157 c 0,679,680
 378 179 378 179 371 226 c 0,681,682
 363 278 363 278 355 297 c 1,683,684
 378 304 378 304 393 304 c 0,685,686
 416 304 416 304 430 291 c 0,687,688
 435 285 435 285 435.5 272 c 128,-1,689
 436 259 436 259 439 254 c 1,690,691
 467 254 467 254 475 261 c 0,622,623
396 347 m 0,692,693
 403 342 403 342 401 336 c 0,694,695
 399 329 399 329 391 329 c 1,696,697
 383 338 383 338 385 342 c 0,698,699
 394 348 394 348 396 347 c 0,692,693
312 329 m 1,700,701
 319 311 319 311 319 302 c 0,702,703
 319 287 319 287 306 278 c 1,704,705
 296 277 296 277 276 276 c 1,706,707
 255 294 255 294 255 303 c 0,708,709
 255 309 255 309 261 314 c 0,710,711
 271 332 271 332 295 332 c 0,712,713
 304 332 304 332 312 329 c 1,700,701
336 215 m 0,714,715
 341 197 341 197 318 185 c 0,716,717
 314 184 314 184 309 184 c 0,718,719
 289 184 289 184 286 209 c 0,720,721
 285 215 285 215 291 219 c 128,-1,722
 297 223 297 223 302.5 227 c 128,-1,723
 308 231 308 231 312 231 c 256,724,725
 316 231 316 231 325 223.5 c 128,-1,726
 334 216 334 216 336 215 c 0,714,715
344 134 m 0,727,728
 344 118 344 118 331 118 c 0,729,730
 326 118 326 118 321 121 c 2,731,-1
 316 131 l 1,732,733
 326 143 326 143 334 143 c 0,734,735
 344 143 344 143 344 134 c 0,727,728
EndSplineSet
Validated: 37
EndChar

StartChar: G
Encoding: 71 71 32
Width: 877
Flags: W
LayerCount: 2
Back
Fore
SplineSet
814 635 m 2,0,-1
 814 609 l 2,1,2
 814 578 814 578 796 561 c 1,3,4
 772 588 772 588 772 613 c 0,5,6
 772 629 772 629 788 657.5 c 128,-1,7
 804 686 804 686 804 700 c 0,8,9
 804 719 804 719 786 739 c 1,10,11
 762 746 762 746 731 746 c 0,12,13
 704 746 704 746 651 737.5 c 128,-1,14
 598 729 598 729 572 729 c 0,15,16
 542 729 542 729 533 743 c 1,17,18
 694 768 694 768 781 768 c 0,19,20
 805 768 805 768 828 767 c 1,21,22
 837 704 837 704 837 712 c 1,23,24
 837 696 837 696 825.5 676.5 c 128,-1,25
 814 657 814 657 814 635 c 2,0,-1
784 348 m 1,26,27
 779 348 779 348 776 342 c 1,28,29
 775 349 775 349 765 387 c 0,30,31
 758 413 758 413 758 432 c 0,32,33
 758 456 758 456 770 475 c 1,34,35
 787 416 787 416 787 375 c 0,36,37
 787 359 787 359 784 348 c 1,26,27
746 326 m 1,38,39
 749 319 749 319 736 306 c 1,40,41
 717 303 717 303 704 320 c 1,42,43
 709 330 709 330 724 330 c 0,44,45
 733 330 733 330 746 326 c 1,38,39
688 138 m 1,46,-1
 680 138 l 1,47,-1
 680 142 l 1,48,-1
 688 142 l 1,49,-1
 688 138 l 1,46,-1
752 555 m 1,50,51
 727 521 727 521 705 443 c 0,52,53
 684 369 684 369 660 344 c 1,54,55
 667 500 667 500 541 565 c 1,56,57
 524 567 524 567 483 581 c 0,58,59
 447 594 447 594 425 594 c 256,60,61
 403 594 403 594 383 583 c 0,62,63
 319 533 319 533 282 464 c 0,64,65
 242 390 242 390 242 313 c 0,66,67
 242 266 242 266 257 220 c 1,68,-1
 277 206 l 1,69,70
 318 100 318 100 421 90 c 0,71,72
 480 84 480 84 489 124 c 0,73,74
 490 132 490 132 501 152.5 c 128,-1,75
 512 173 512 173 512 186 c 0,76,77
 512 196 512 196 507 206 c 1,78,79
 518 214 518 214 518 230 c 0,80,81
 518 237 518 237 515.5 251 c 128,-1,82
 513 265 513 265 513 272 c 0,83,84
 508 284 508 284 485 298 c 128,-1,85
 462 312 462 312 459 320 c 1,86,-1
 587 287 l 2,87,88
 662 266 662 266 708 244 c 1,89,90
 660 232 660 232 654 230 c 0,91,92
 624 218 624 218 616 190 c 1,93,94
 601 162 601 162 601 122 c 0,95,96
 601 111 601 111 602 100 c 1,97,98
 613 100 613 100 624 100 c 0,99,100
 637 100 637 100 640 90 c 1,101,102
 577 25 577 25 474 25 c 0,103,104
 373 25 373 25 229 90 c 1,105,106
 119 181 119 181 119 339 c 0,107,108
 119 387 119 387 130 439 c 1,109,-1
 167 493 l 1,110,-1
 161 497 l 1,111,112
 203 563 203 563 271.5 598.5 c 128,-1,113
 340 634 340 634 420 634 c 0,114,115
 454 634 454 634 489 627 c 1,116,117
 534 632 534 632 608 590 c 0,118,119
 686 547 686 547 715 547 c 0,120,121
 734 547 734 547 752 555 c 1,50,51
279 749 m 1,122,123
 237 737 237 737 152 709 c 0,124,125
 75 681 75 681 78 615 c 0,126,127
 79 599 79 599 88 575 c 1,128,129
 72 537 72 537 61 466 c 0,130,131
 48 384 48 384 40 356 c 1,132,133
 24 364 24 364 24 383 c 0,134,135
 24 392 24 392 29 412 c 128,-1,136
 34 432 34 432 34 441 c 1,137,138
 50 462 50 462 49 499 c 0,139,140
 48 542 48 542 54 557 c 0,141,142
 58 568 58 568 59 623 c 0,143,144
 59 666 59 666 69 685 c 0,145,146
 82 713 82 713 120 715 c 1,147,148
 177 759 177 759 234 759 c 0,149,150
 259 759 259 759 279 749 c 1,122,123
730 242 m 1,151,152
 725 219 725 219 713 73 c 0,153,154
 705 -22 705 -22 668 -79 c 1,155,156
 551 -79 551 -79 529 -83 c 1,157,158
 519 -66 519 -66 490 -70 c 0,159,160
 456 -75 456 -75 447 -69 c 1,161,162
 447 -48 447 -48 481 -48 c 0,163,164
 488 -48 488 -48 539 -55 c 1,165,166
 548 -47 548 -47 565 -47 c 0,167,168
 578 -47 578 -47 604.5 -53.5 c 128,-1,169
 631 -60 631 -60 644 -60 c 0,170,171
 680 -60 680 -60 682 -12 c 1,172,173
 692 15 692 15 692 40 c 0,174,175
 692 55 692 55 688 84.5 c 128,-1,176
 684 114 684 114 684 129 c 0,177,178
 684 182 684 182 706 252 c 0,179,180
 709 257 709 257 714 257 c 0,181,182
 727 257 727 257 730 242 c 1,151,152
531 -43 m 1,183,-1
 521 -43 l 1,184,-1
 531 -40 l 1,185,-1
 531 -43 l 1,183,-1
433 -55 m 1,186,187
 427 -61 427 -61 423 -59 c 1,188,-1
 423 -45 l 1,189,-1
 433 -55 l 1,186,187
411 -57 m 1,190,-1
 387 -57 l 1,191,-1
 387 -49 l 1,192,193
 403 -46 403 -46 411 -57 c 1,190,-1
395 -49 m 0,194,195
 396 -53 396 -53 385 -63 c 1,196,-1
 313 -45 l 1,197,198
 320 -36 320 -36 337 -36 c 256,199,200
 354 -36 354 -36 395 -49 c 0,194,195
38 258 m 1,201,202
 35 253 35 253 35 248 c 0,203,204
 35 242 35 242 40.5 230 c 128,-1,205
 46 218 46 218 46 213 c 0,206,207
 46 202 46 202 32 194 c 1,208,-1
 22 194 l 1,209,210
 16 227 16 227 16 231 c 0,211,212
 16 251 16 251 32 258 c 1,213,-1
 38 258 l 1,201,202
277 -10 m 1,214,215
 270 -13 270 -13 261 -13 c 0,216,217
 247 -13 247 -13 229 -6 c 1,218,219
 234 -1 234 -1 241 -1 c 0,220,221
 246 -1 246 -1 258.5 -5.5 c 128,-1,222
 271 -10 271 -10 277 -10 c 1,214,215
269 -22 m 1,223,224
 258 -26 258 -26 246 -26 c 0,225,226
 222 -26 222 -26 185 -5 c 0,227,228
 137 22 137 22 126 26 c 1,229,-1
 126 40 l 1,230,231
 151 41 151 41 197 12 c 0,232,233
 247 -19 247 -19 269 -22 c 1,223,224
359 -43 m 1,234,-1
 359 -40 l 1,235,-1
 325 -40 l 1,236,-1
 325 -43 l 1,237,-1
 359 -43 l 1,234,-1
EndSplineSet
Validated: 37
EndChar

